M48
; DRILL file {KiCad 7.0.10} date Fri Jan 12 17:51:54 2024
; FORMAT={-:-/ absolute / inch / decimal}
; #@! TF.CreationDate,2024-01-12T17:51:54+01:00
; #@! TF.GenerationSoftware,Kicad,Pcbnew,7.0.10
; #@! TF.FileFunction,Plated,1,2,PTH
FMAT,2
INCH
; #@! TA.AperFunction,Plated,PTH,ViaDrill
T1C0.0118
; #@! TA.AperFunction,Plated,PTH,ComponentDrill
T2C0.0354
; #@! TA.AperFunction,Plated,PTH,ComponentDrill
T3C0.0374
; #@! TA.AperFunction,Plated,PTH,ComponentDrill
T4C0.0402
; #@! TA.AperFunction,Plated,PTH,ComponentDrill
T5C0.0472
; #@! TA.AperFunction,Plated,PTH,ComponentDrill
T6C0.0906
%
G90
G05
T1
X2.785Y-3.43
X2.905Y-2.98
X3.0Y-3.885
X3.5Y-2.375
X3.635Y-3.325
X3.765Y-3.17
X3.765Y-3.35
X3.77Y-3.005
X3.775Y-3.39
X3.875Y-3.21
X3.88Y-3.2451
X3.925Y-2.91
X3.955Y-3.21
X3.965Y-3.265
X3.975Y-3.52
X3.975Y-3.615
X4.075Y-2.325
X4.085Y-3.145
X4.095Y-3.005
X4.21Y-3.88
X4.265Y-3.42
X4.275Y-3.205
X4.2993Y-3.014
X4.605Y-3.375
X4.64Y-3.01
X4.64Y-3.125
X4.795Y-2.855
X4.85Y-3.36
X4.85Y-3.405
X4.86Y-3.455
X4.9Y-3.455
X5.005Y-3.6
T2
X2.9675Y-2.375
X3.125Y-2.375
X3.2825Y-2.375
T3
X5.03Y-2.9616
X5.03Y-3.06
X5.03Y-3.1387
X5.03Y-3.2372
T4
X4.3Y-2.325
X4.4Y-2.325
X4.5Y-2.325
X4.6Y-2.325
T5
X2.8888Y-2.2077
X2.8888Y-2.4439
X3.3612Y-2.2077
X3.3612Y-2.4439
T6
X5.1367Y-2.8407
X5.1367Y-3.358
M30
