%TF.GenerationSoftware,KiCad,Pcbnew,7.0.10*%
%TF.CreationDate,2024-01-12T17:51:54+01:00*%
%TF.ProjectId,LightDudu4Lila,4c696768-7444-4756-9475-344c696c612e,rev?*%
%TF.SameCoordinates,Original*%
%TF.FileFunction,Legend,Top*%
%TF.FilePolarity,Positive*%
%FSLAX46Y46*%
G04 Gerber Fmt 4.6, Leading zero omitted, Abs format (unit mm)*
G04 Created by KiCad (PCBNEW 7.0.10) date 2024-01-12 17:51:54*
%MOMM*%
%LPD*%
G01*
G04 APERTURE LIST*
G04 Aperture macros list*
%AMRoundRect*
0 Rectangle with rounded corners*
0 $1 Rounding radius*
0 $2 $3 $4 $5 $6 $7 $8 $9 X,Y pos of 4 corners*
0 Add a 4 corners polygon primitive as box body*
4,1,4,$2,$3,$4,$5,$6,$7,$8,$9,$2,$3,0*
0 Add four circle primitives for the rounded corners*
1,1,$1+$1,$2,$3*
1,1,$1+$1,$4,$5*
1,1,$1+$1,$6,$7*
1,1,$1+$1,$8,$9*
0 Add four rect primitives between the rounded corners*
20,1,$1+$1,$2,$3,$4,$5,0*
20,1,$1+$1,$4,$5,$6,$7,0*
20,1,$1+$1,$6,$7,$8,$9,0*
20,1,$1+$1,$8,$9,$2,$3,0*%
G04 Aperture macros list end*
%ADD10C,0.150000*%
%ADD11C,0.120000*%
%ADD12C,0.100000*%
%ADD13RoundRect,0.140000X0.140000X0.170000X-0.140000X0.170000X-0.140000X-0.170000X0.140000X-0.170000X0*%
%ADD14RoundRect,0.250000X-0.250000X-0.475000X0.250000X-0.475000X0.250000X0.475000X-0.250000X0.475000X0*%
%ADD15RoundRect,0.225000X0.225000X0.250000X-0.225000X0.250000X-0.225000X-0.250000X0.225000X-0.250000X0*%
%ADD16C,2.000000*%
%ADD17C,1.700000*%
%ADD18RoundRect,0.250000X-0.312500X-0.625000X0.312500X-0.625000X0.312500X0.625000X-0.312500X0.625000X0*%
%ADD19R,1.500000X1.600000*%
%ADD20C,1.600000*%
%ADD21C,3.000000*%
%ADD22RoundRect,0.140000X0.170000X-0.140000X0.170000X0.140000X-0.170000X0.140000X-0.170000X-0.140000X0*%
%ADD23RoundRect,0.250000X0.312500X0.625000X-0.312500X0.625000X-0.312500X-0.625000X0.312500X-0.625000X0*%
%ADD24C,2.200000*%
%ADD25RoundRect,0.140000X-0.140000X-0.170000X0.140000X-0.170000X0.140000X0.170000X-0.140000X0.170000X0*%
%ADD26RoundRect,0.250000X-0.350000X0.850000X-0.350000X-0.850000X0.350000X-0.850000X0.350000X0.850000X0*%
%ADD27RoundRect,0.249997X-2.650003X2.950003X-2.650003X-2.950003X2.650003X-2.950003X2.650003X2.950003X0*%
%ADD28RoundRect,0.250000X0.262500X0.450000X-0.262500X0.450000X-0.262500X-0.450000X0.262500X-0.450000X0*%
%ADD29RoundRect,0.218750X-0.256250X0.218750X-0.256250X-0.218750X0.256250X-0.218750X0.256250X0.218750X0*%
%ADD30C,1.100000*%
%ADD31R,1.730000X2.030000*%
%ADD32O,1.730000X2.030000*%
%ADD33RoundRect,0.250000X0.475000X-0.250000X0.475000X0.250000X-0.475000X0.250000X-0.475000X-0.250000X0*%
%ADD34RoundRect,0.140000X-0.170000X0.140000X-0.170000X-0.140000X0.170000X-0.140000X0.170000X0.140000X0*%
%ADD35RoundRect,0.243750X-0.243750X-0.456250X0.243750X-0.456250X0.243750X0.456250X-0.243750X0.456250X0*%
%ADD36RoundRect,0.250000X0.250000X0.475000X-0.250000X0.475000X-0.250000X-0.475000X0.250000X-0.475000X0*%
%ADD37RoundRect,0.135000X0.135000X0.185000X-0.135000X0.185000X-0.135000X-0.185000X0.135000X-0.185000X0*%
%ADD38RoundRect,0.135000X-0.185000X0.135000X-0.185000X-0.135000X0.185000X-0.135000X0.185000X0.135000X0*%
%ADD39RoundRect,0.135000X-0.135000X-0.185000X0.135000X-0.185000X0.135000X0.185000X-0.135000X0.185000X0*%
%ADD40R,1.200000X1.400000*%
%ADD41R,0.900000X0.700000*%
%ADD42RoundRect,0.225000X0.250000X-0.225000X0.250000X0.225000X-0.250000X0.225000X-0.250000X-0.225000X0*%
%ADD43RoundRect,0.075000X-0.662500X-0.075000X0.662500X-0.075000X0.662500X0.075000X-0.662500X0.075000X0*%
%ADD44RoundRect,0.075000X-0.075000X-0.662500X0.075000X-0.662500X0.075000X0.662500X-0.075000X0.662500X0*%
G04 APERTURE END LIST*
D10*
X68300600Y-57134360D02*
X68252980Y-57277217D01*
X68252980Y-57277217D02*
X68252980Y-57515312D01*
X68252980Y-57515312D02*
X68300600Y-57610550D01*
X68300600Y-57610550D02*
X68348219Y-57658169D01*
X68348219Y-57658169D02*
X68443457Y-57705788D01*
X68443457Y-57705788D02*
X68538695Y-57705788D01*
X68538695Y-57705788D02*
X68633933Y-57658169D01*
X68633933Y-57658169D02*
X68681552Y-57610550D01*
X68681552Y-57610550D02*
X68729171Y-57515312D01*
X68729171Y-57515312D02*
X68776790Y-57324836D01*
X68776790Y-57324836D02*
X68824409Y-57229598D01*
X68824409Y-57229598D02*
X68872028Y-57181979D01*
X68872028Y-57181979D02*
X68967266Y-57134360D01*
X68967266Y-57134360D02*
X69062504Y-57134360D01*
X69062504Y-57134360D02*
X69157742Y-57181979D01*
X69157742Y-57181979D02*
X69205361Y-57229598D01*
X69205361Y-57229598D02*
X69252980Y-57324836D01*
X69252980Y-57324836D02*
X69252980Y-57562931D01*
X69252980Y-57562931D02*
X69205361Y-57705788D01*
X69252980Y-58039122D02*
X68252980Y-58277217D01*
X68252980Y-58277217D02*
X68967266Y-58467693D01*
X68967266Y-58467693D02*
X68252980Y-58658169D01*
X68252980Y-58658169D02*
X69252980Y-58896265D01*
X69252980Y-59134360D02*
X69252980Y-59705788D01*
X68252980Y-59420074D02*
X69252980Y-59420074D01*
X68348219Y-60610550D02*
X68300600Y-60562931D01*
X68300600Y-60562931D02*
X68252980Y-60420074D01*
X68252980Y-60420074D02*
X68252980Y-60324836D01*
X68252980Y-60324836D02*
X68300600Y-60181979D01*
X68300600Y-60181979D02*
X68395838Y-60086741D01*
X68395838Y-60086741D02*
X68491076Y-60039122D01*
X68491076Y-60039122D02*
X68681552Y-59991503D01*
X68681552Y-59991503D02*
X68824409Y-59991503D01*
X68824409Y-59991503D02*
X69014885Y-60039122D01*
X69014885Y-60039122D02*
X69110123Y-60086741D01*
X69110123Y-60086741D02*
X69205361Y-60181979D01*
X69205361Y-60181979D02*
X69252980Y-60324836D01*
X69252980Y-60324836D02*
X69252980Y-60420074D01*
X69252980Y-60420074D02*
X69205361Y-60562931D01*
X69205361Y-60562931D02*
X69157742Y-60610550D01*
X69252980Y-61658170D02*
X69252980Y-62229598D01*
X68252980Y-61943884D02*
X69252980Y-61943884D01*
X69252980Y-62753408D02*
X69252980Y-62943884D01*
X69252980Y-62943884D02*
X69205361Y-63039122D01*
X69205361Y-63039122D02*
X69110123Y-63134360D01*
X69110123Y-63134360D02*
X68919647Y-63181979D01*
X68919647Y-63181979D02*
X68586314Y-63181979D01*
X68586314Y-63181979D02*
X68395838Y-63134360D01*
X68395838Y-63134360D02*
X68300600Y-63039122D01*
X68300600Y-63039122D02*
X68252980Y-62943884D01*
X68252980Y-62943884D02*
X68252980Y-62753408D01*
X68252980Y-62753408D02*
X68300600Y-62658170D01*
X68300600Y-62658170D02*
X68395838Y-62562932D01*
X68395838Y-62562932D02*
X68586314Y-62515313D01*
X68586314Y-62515313D02*
X68919647Y-62515313D01*
X68919647Y-62515313D02*
X69110123Y-62562932D01*
X69110123Y-62562932D02*
X69205361Y-62658170D01*
X69205361Y-62658170D02*
X69252980Y-62753408D01*
X68252980Y-64372456D02*
X69252980Y-64372456D01*
X69252980Y-64372456D02*
X69252980Y-64753408D01*
X69252980Y-64753408D02*
X69205361Y-64848646D01*
X69205361Y-64848646D02*
X69157742Y-64896265D01*
X69157742Y-64896265D02*
X69062504Y-64943884D01*
X69062504Y-64943884D02*
X68919647Y-64943884D01*
X68919647Y-64943884D02*
X68824409Y-64896265D01*
X68824409Y-64896265D02*
X68776790Y-64848646D01*
X68776790Y-64848646D02*
X68729171Y-64753408D01*
X68729171Y-64753408D02*
X68729171Y-64372456D01*
X68252980Y-65943884D02*
X68729171Y-65610551D01*
X68252980Y-65372456D02*
X69252980Y-65372456D01*
X69252980Y-65372456D02*
X69252980Y-65753408D01*
X69252980Y-65753408D02*
X69205361Y-65848646D01*
X69205361Y-65848646D02*
X69157742Y-65896265D01*
X69157742Y-65896265D02*
X69062504Y-65943884D01*
X69062504Y-65943884D02*
X68919647Y-65943884D01*
X68919647Y-65943884D02*
X68824409Y-65896265D01*
X68824409Y-65896265D02*
X68776790Y-65848646D01*
X68776790Y-65848646D02*
X68729171Y-65753408D01*
X68729171Y-65753408D02*
X68729171Y-65372456D01*
X69252980Y-66562932D02*
X69252980Y-66753408D01*
X69252980Y-66753408D02*
X69205361Y-66848646D01*
X69205361Y-66848646D02*
X69110123Y-66943884D01*
X69110123Y-66943884D02*
X68919647Y-66991503D01*
X68919647Y-66991503D02*
X68586314Y-66991503D01*
X68586314Y-66991503D02*
X68395838Y-66943884D01*
X68395838Y-66943884D02*
X68300600Y-66848646D01*
X68300600Y-66848646D02*
X68252980Y-66753408D01*
X68252980Y-66753408D02*
X68252980Y-66562932D01*
X68252980Y-66562932D02*
X68300600Y-66467694D01*
X68300600Y-66467694D02*
X68395838Y-66372456D01*
X68395838Y-66372456D02*
X68586314Y-66324837D01*
X68586314Y-66324837D02*
X68919647Y-66324837D01*
X68919647Y-66324837D02*
X69110123Y-66372456D01*
X69110123Y-66372456D02*
X69205361Y-66467694D01*
X69205361Y-66467694D02*
X69252980Y-66562932D01*
X69205361Y-67943884D02*
X69252980Y-67848646D01*
X69252980Y-67848646D02*
X69252980Y-67705789D01*
X69252980Y-67705789D02*
X69205361Y-67562932D01*
X69205361Y-67562932D02*
X69110123Y-67467694D01*
X69110123Y-67467694D02*
X69014885Y-67420075D01*
X69014885Y-67420075D02*
X68824409Y-67372456D01*
X68824409Y-67372456D02*
X68681552Y-67372456D01*
X68681552Y-67372456D02*
X68491076Y-67420075D01*
X68491076Y-67420075D02*
X68395838Y-67467694D01*
X68395838Y-67467694D02*
X68300600Y-67562932D01*
X68300600Y-67562932D02*
X68252980Y-67705789D01*
X68252980Y-67705789D02*
X68252980Y-67801027D01*
X68252980Y-67801027D02*
X68300600Y-67943884D01*
X68300600Y-67943884D02*
X68348219Y-67991503D01*
X68348219Y-67991503D02*
X68681552Y-67991503D01*
X68681552Y-67991503D02*
X68681552Y-67801027D01*
X68252980Y-68991503D02*
X68729171Y-68658170D01*
X68252980Y-68420075D02*
X69252980Y-68420075D01*
X69252980Y-68420075D02*
X69252980Y-68801027D01*
X69252980Y-68801027D02*
X69205361Y-68896265D01*
X69205361Y-68896265D02*
X69157742Y-68943884D01*
X69157742Y-68943884D02*
X69062504Y-68991503D01*
X69062504Y-68991503D02*
X68919647Y-68991503D01*
X68919647Y-68991503D02*
X68824409Y-68943884D01*
X68824409Y-68943884D02*
X68776790Y-68896265D01*
X68776790Y-68896265D02*
X68729171Y-68801027D01*
X68729171Y-68801027D02*
X68729171Y-68420075D01*
X68348219Y-69420075D02*
X68300600Y-69467694D01*
X68300600Y-69467694D02*
X68252980Y-69420075D01*
X68252980Y-69420075D02*
X68300600Y-69372456D01*
X68300600Y-69372456D02*
X68348219Y-69420075D01*
X68348219Y-69420075D02*
X68252980Y-69420075D01*
X128657579Y-68313419D02*
X128657579Y-69122942D01*
X128657579Y-69122942D02*
X128705198Y-69218180D01*
X128705198Y-69218180D02*
X128752817Y-69265800D01*
X128752817Y-69265800D02*
X128848055Y-69313419D01*
X128848055Y-69313419D02*
X129038531Y-69313419D01*
X129038531Y-69313419D02*
X129133769Y-69265800D01*
X129133769Y-69265800D02*
X129181388Y-69218180D01*
X129181388Y-69218180D02*
X129229007Y-69122942D01*
X129229007Y-69122942D02*
X129229007Y-68313419D01*
X129657579Y-69265800D02*
X129800436Y-69313419D01*
X129800436Y-69313419D02*
X130038531Y-69313419D01*
X130038531Y-69313419D02*
X130133769Y-69265800D01*
X130133769Y-69265800D02*
X130181388Y-69218180D01*
X130181388Y-69218180D02*
X130229007Y-69122942D01*
X130229007Y-69122942D02*
X130229007Y-69027704D01*
X130229007Y-69027704D02*
X130181388Y-68932466D01*
X130181388Y-68932466D02*
X130133769Y-68884847D01*
X130133769Y-68884847D02*
X130038531Y-68837228D01*
X130038531Y-68837228D02*
X129848055Y-68789609D01*
X129848055Y-68789609D02*
X129752817Y-68741990D01*
X129752817Y-68741990D02*
X129705198Y-68694371D01*
X129705198Y-68694371D02*
X129657579Y-68599133D01*
X129657579Y-68599133D02*
X129657579Y-68503895D01*
X129657579Y-68503895D02*
X129705198Y-68408657D01*
X129705198Y-68408657D02*
X129752817Y-68361038D01*
X129752817Y-68361038D02*
X129848055Y-68313419D01*
X129848055Y-68313419D02*
X130086150Y-68313419D01*
X130086150Y-68313419D02*
X130229007Y-68361038D01*
X130990912Y-68789609D02*
X131133769Y-68837228D01*
X131133769Y-68837228D02*
X131181388Y-68884847D01*
X131181388Y-68884847D02*
X131229007Y-68980085D01*
X131229007Y-68980085D02*
X131229007Y-69122942D01*
X131229007Y-69122942D02*
X131181388Y-69218180D01*
X131181388Y-69218180D02*
X131133769Y-69265800D01*
X131133769Y-69265800D02*
X131038531Y-69313419D01*
X131038531Y-69313419D02*
X130657579Y-69313419D01*
X130657579Y-69313419D02*
X130657579Y-68313419D01*
X130657579Y-68313419D02*
X130990912Y-68313419D01*
X130990912Y-68313419D02*
X131086150Y-68361038D01*
X131086150Y-68361038D02*
X131133769Y-68408657D01*
X131133769Y-68408657D02*
X131181388Y-68503895D01*
X131181388Y-68503895D02*
X131181388Y-68599133D01*
X131181388Y-68599133D02*
X131133769Y-68694371D01*
X131133769Y-68694371D02*
X131086150Y-68741990D01*
X131086150Y-68741990D02*
X130990912Y-68789609D01*
X130990912Y-68789609D02*
X130657579Y-68789609D01*
X132371865Y-69027704D02*
X132848055Y-69027704D01*
X132276627Y-69313419D02*
X132609960Y-68313419D01*
X132609960Y-68313419D02*
X132943293Y-69313419D01*
X120367419Y-66922420D02*
X119367419Y-66922420D01*
X119367419Y-66922420D02*
X119367419Y-66684325D01*
X119367419Y-66684325D02*
X119415038Y-66541468D01*
X119415038Y-66541468D02*
X119510276Y-66446230D01*
X119510276Y-66446230D02*
X119605514Y-66398611D01*
X119605514Y-66398611D02*
X119795990Y-66350992D01*
X119795990Y-66350992D02*
X119938847Y-66350992D01*
X119938847Y-66350992D02*
X120129323Y-66398611D01*
X120129323Y-66398611D02*
X120224561Y-66446230D01*
X120224561Y-66446230D02*
X120319800Y-66541468D01*
X120319800Y-66541468D02*
X120367419Y-66684325D01*
X120367419Y-66684325D02*
X120367419Y-66922420D01*
X119843609Y-65922420D02*
X119843609Y-65589087D01*
X120367419Y-65446230D02*
X120367419Y-65922420D01*
X120367419Y-65922420D02*
X119367419Y-65922420D01*
X119367419Y-65922420D02*
X119367419Y-65446230D01*
X119843609Y-64684325D02*
X119891228Y-64541468D01*
X119891228Y-64541468D02*
X119938847Y-64493849D01*
X119938847Y-64493849D02*
X120034085Y-64446230D01*
X120034085Y-64446230D02*
X120176942Y-64446230D01*
X120176942Y-64446230D02*
X120272180Y-64493849D01*
X120272180Y-64493849D02*
X120319800Y-64541468D01*
X120319800Y-64541468D02*
X120367419Y-64636706D01*
X120367419Y-64636706D02*
X120367419Y-65017658D01*
X120367419Y-65017658D02*
X119367419Y-65017658D01*
X119367419Y-65017658D02*
X119367419Y-64684325D01*
X119367419Y-64684325D02*
X119415038Y-64589087D01*
X119415038Y-64589087D02*
X119462657Y-64541468D01*
X119462657Y-64541468D02*
X119557895Y-64493849D01*
X119557895Y-64493849D02*
X119653133Y-64493849D01*
X119653133Y-64493849D02*
X119748371Y-64541468D01*
X119748371Y-64541468D02*
X119795990Y-64589087D01*
X119795990Y-64589087D02*
X119843609Y-64684325D01*
X119843609Y-64684325D02*
X119843609Y-65017658D01*
X119367419Y-64017658D02*
X120176942Y-64017658D01*
X120176942Y-64017658D02*
X120272180Y-63970039D01*
X120272180Y-63970039D02*
X120319800Y-63922420D01*
X120319800Y-63922420D02*
X120367419Y-63827182D01*
X120367419Y-63827182D02*
X120367419Y-63636706D01*
X120367419Y-63636706D02*
X120319800Y-63541468D01*
X120319800Y-63541468D02*
X120272180Y-63493849D01*
X120272180Y-63493849D02*
X120176942Y-63446230D01*
X120176942Y-63446230D02*
X119367419Y-63446230D01*
X119415038Y-62446230D02*
X119367419Y-62541468D01*
X119367419Y-62541468D02*
X119367419Y-62684325D01*
X119367419Y-62684325D02*
X119415038Y-62827182D01*
X119415038Y-62827182D02*
X119510276Y-62922420D01*
X119510276Y-62922420D02*
X119605514Y-62970039D01*
X119605514Y-62970039D02*
X119795990Y-63017658D01*
X119795990Y-63017658D02*
X119938847Y-63017658D01*
X119938847Y-63017658D02*
X120129323Y-62970039D01*
X120129323Y-62970039D02*
X120224561Y-62922420D01*
X120224561Y-62922420D02*
X120319800Y-62827182D01*
X120319800Y-62827182D02*
X120367419Y-62684325D01*
X120367419Y-62684325D02*
X120367419Y-62589087D01*
X120367419Y-62589087D02*
X120319800Y-62446230D01*
X120319800Y-62446230D02*
X120272180Y-62398611D01*
X120272180Y-62398611D02*
X119938847Y-62398611D01*
X119938847Y-62398611D02*
X119938847Y-62589087D01*
X119986466Y-61208134D02*
X119986466Y-60446230D01*
X120367419Y-60827182D02*
X119605514Y-60827182D01*
X119843609Y-58874801D02*
X119843609Y-59208134D01*
X120367419Y-59208134D02*
X119367419Y-59208134D01*
X119367419Y-59208134D02*
X119367419Y-58731944D01*
X120367419Y-57874801D02*
X120367419Y-58350991D01*
X120367419Y-58350991D02*
X119367419Y-58350991D01*
X120081704Y-57589086D02*
X120081704Y-57112896D01*
X120367419Y-57684324D02*
X119367419Y-57350991D01*
X119367419Y-57350991D02*
X120367419Y-57017658D01*
X120319800Y-56731943D02*
X120367419Y-56589086D01*
X120367419Y-56589086D02*
X120367419Y-56350991D01*
X120367419Y-56350991D02*
X120319800Y-56255753D01*
X120319800Y-56255753D02*
X120272180Y-56208134D01*
X120272180Y-56208134D02*
X120176942Y-56160515D01*
X120176942Y-56160515D02*
X120081704Y-56160515D01*
X120081704Y-56160515D02*
X119986466Y-56208134D01*
X119986466Y-56208134D02*
X119938847Y-56255753D01*
X119938847Y-56255753D02*
X119891228Y-56350991D01*
X119891228Y-56350991D02*
X119843609Y-56541467D01*
X119843609Y-56541467D02*
X119795990Y-56636705D01*
X119795990Y-56636705D02*
X119748371Y-56684324D01*
X119748371Y-56684324D02*
X119653133Y-56731943D01*
X119653133Y-56731943D02*
X119557895Y-56731943D01*
X119557895Y-56731943D02*
X119462657Y-56684324D01*
X119462657Y-56684324D02*
X119415038Y-56636705D01*
X119415038Y-56636705D02*
X119367419Y-56541467D01*
X119367419Y-56541467D02*
X119367419Y-56303372D01*
X119367419Y-56303372D02*
X119415038Y-56160515D01*
X120367419Y-55731943D02*
X119367419Y-55731943D01*
X119843609Y-55731943D02*
X119843609Y-55160515D01*
X120367419Y-55160515D02*
X119367419Y-55160515D01*
G36*
X61591043Y-91524241D02*
G01*
X62263200Y-91524241D01*
X62263200Y-91803166D01*
X61325307Y-91803166D01*
X61325307Y-91439733D01*
X61325412Y-91424889D01*
X61325729Y-91410249D01*
X61326256Y-91395811D01*
X61326994Y-91381576D01*
X61327943Y-91367544D01*
X61329102Y-91353714D01*
X61330473Y-91340088D01*
X61332054Y-91326663D01*
X61333846Y-91313442D01*
X61335849Y-91300424D01*
X61338063Y-91287608D01*
X61340488Y-91274995D01*
X61343124Y-91262584D01*
X61345970Y-91250377D01*
X61349028Y-91238372D01*
X61352296Y-91226570D01*
X61355775Y-91214970D01*
X61359465Y-91203574D01*
X61363365Y-91192380D01*
X61367477Y-91181389D01*
X61371799Y-91170600D01*
X61376333Y-91160014D01*
X61381077Y-91149632D01*
X61386032Y-91139451D01*
X61391198Y-91129474D01*
X61396574Y-91119699D01*
X61402162Y-91110127D01*
X61407960Y-91100758D01*
X61413970Y-91091591D01*
X61420190Y-91082628D01*
X61426621Y-91073867D01*
X61433262Y-91065308D01*
X61441413Y-91055421D01*
X61449744Y-91045847D01*
X61458256Y-91036587D01*
X61466949Y-91027642D01*
X61475822Y-91019010D01*
X61484877Y-91010691D01*
X61494112Y-91002687D01*
X61503528Y-90994997D01*
X61513125Y-90987621D01*
X61522902Y-90980558D01*
X61532861Y-90973809D01*
X61543000Y-90967375D01*
X61553320Y-90961254D01*
X61563821Y-90955447D01*
X61574502Y-90949954D01*
X61585365Y-90944775D01*
X61596408Y-90939909D01*
X61607632Y-90935358D01*
X61619036Y-90931120D01*
X61630622Y-90927197D01*
X61642388Y-90923587D01*
X61654335Y-90920291D01*
X61666463Y-90917309D01*
X61678772Y-90914641D01*
X61691262Y-90912287D01*
X61703932Y-90910247D01*
X61716783Y-90908520D01*
X61729815Y-90907108D01*
X61743028Y-90906009D01*
X61756421Y-90905224D01*
X61769996Y-90904754D01*
X61783751Y-90904597D01*
X61796910Y-90904731D01*
X61809916Y-90905134D01*
X61822771Y-90905805D01*
X61835473Y-90906745D01*
X61848023Y-90907954D01*
X61860421Y-90909431D01*
X61872667Y-90911177D01*
X61884760Y-90913191D01*
X61896702Y-90915474D01*
X61908491Y-90918025D01*
X61920128Y-90920845D01*
X61931613Y-90923934D01*
X61942946Y-90927291D01*
X61954126Y-90930917D01*
X61965155Y-90934811D01*
X61976031Y-90938974D01*
X61986755Y-90943405D01*
X61997327Y-90948105D01*
X62007747Y-90953074D01*
X62018014Y-90958311D01*
X62028129Y-90963817D01*
X62038093Y-90969591D01*
X62047903Y-90975634D01*
X62057562Y-90981945D01*
X62067069Y-90988525D01*
X62076423Y-90995374D01*
X62085626Y-91002491D01*
X62094676Y-91009877D01*
X62103574Y-91017531D01*
X62112319Y-91025454D01*
X62120913Y-91033645D01*
X62129354Y-91042105D01*
X62137589Y-91050762D01*
X62145562Y-91059572D01*
X62153274Y-91068538D01*
X62160724Y-91077658D01*
X62167913Y-91086932D01*
X62174841Y-91096362D01*
X62181507Y-91105945D01*
X62187912Y-91115683D01*
X62194055Y-91125576D01*
X62199937Y-91135624D01*
X62205557Y-91145825D01*
X62210916Y-91156182D01*
X62216014Y-91166693D01*
X62220850Y-91177359D01*
X62225425Y-91188179D01*
X62229738Y-91199153D01*
X62233790Y-91210283D01*
X62237581Y-91221567D01*
X62241110Y-91233005D01*
X62244378Y-91244598D01*
X62247384Y-91256345D01*
X62250129Y-91268247D01*
X62252612Y-91280304D01*
X62254834Y-91292515D01*
X62256795Y-91304881D01*
X62258494Y-91317401D01*
X62259932Y-91330076D01*
X62261108Y-91342906D01*
X62262023Y-91355890D01*
X62262677Y-91369028D01*
X62263069Y-91382321D01*
X62263200Y-91395769D01*
X62263294Y-91406428D01*
X62263517Y-91417042D01*
X62263871Y-91429230D01*
X62264249Y-91440114D01*
X62264711Y-91452006D01*
X62265256Y-91464905D01*
X62265721Y-91475240D01*
X62265886Y-91478812D01*
X61997463Y-91478812D01*
X61997463Y-91434115D01*
X61997259Y-91419118D01*
X61996645Y-91404598D01*
X61995621Y-91390553D01*
X61994189Y-91376985D01*
X61992347Y-91363893D01*
X61990096Y-91351277D01*
X61987435Y-91339137D01*
X61984366Y-91327473D01*
X61980887Y-91316285D01*
X61976998Y-91305573D01*
X61972701Y-91295337D01*
X61967994Y-91285577D01*
X61962878Y-91276294D01*
X61957352Y-91267486D01*
X61951417Y-91259155D01*
X61945073Y-91251299D01*
X61938320Y-91243920D01*
X61931157Y-91237017D01*
X61923585Y-91230590D01*
X61915604Y-91224639D01*
X61907213Y-91219164D01*
X61898413Y-91214165D01*
X61889204Y-91209642D01*
X61879586Y-91205595D01*
X61869558Y-91202025D01*
X61859121Y-91198930D01*
X61848274Y-91196312D01*
X61837019Y-91194169D01*
X61825354Y-91192503D01*
X61813279Y-91191313D01*
X61800796Y-91190599D01*
X61787903Y-91190361D01*
X61775791Y-91190595D01*
X61764064Y-91191297D01*
X61752722Y-91192467D01*
X61741764Y-91194104D01*
X61731190Y-91196210D01*
X61721001Y-91198784D01*
X61711197Y-91201826D01*
X61701777Y-91205336D01*
X61692741Y-91209314D01*
X61675824Y-91218673D01*
X61660444Y-91229904D01*
X61646602Y-91243008D01*
X61634298Y-91257983D01*
X61628723Y-91266172D01*
X61623533Y-91274830D01*
X61618727Y-91283955D01*
X61614305Y-91293549D01*
X61610268Y-91303610D01*
X61606615Y-91314140D01*
X61603347Y-91325137D01*
X61600463Y-91336602D01*
X61597964Y-91348536D01*
X61595849Y-91360937D01*
X61594119Y-91373806D01*
X61592773Y-91387143D01*
X61591812Y-91400949D01*
X61591235Y-91415222D01*
X61591043Y-91429963D01*
X61591043Y-91524241D01*
G37*
G36*
X61325307Y-90120333D02*
G01*
X61932006Y-90120333D01*
X61942261Y-90120427D01*
X61952385Y-90120708D01*
X61962380Y-90121176D01*
X61972245Y-90121833D01*
X61981981Y-90122676D01*
X62001062Y-90124926D01*
X62019625Y-90127926D01*
X62037668Y-90131675D01*
X62055192Y-90136174D01*
X62072198Y-90141424D01*
X62088684Y-90147423D01*
X62104652Y-90154172D01*
X62120100Y-90161671D01*
X62135029Y-90169920D01*
X62149440Y-90178919D01*
X62163331Y-90188668D01*
X62176703Y-90199166D01*
X62189556Y-90210415D01*
X62195788Y-90216320D01*
X62207737Y-90228536D01*
X62218915Y-90241248D01*
X62229322Y-90254456D01*
X62238958Y-90268161D01*
X62247824Y-90282361D01*
X62255918Y-90297058D01*
X62263241Y-90312250D01*
X62269794Y-90327939D01*
X62275576Y-90344124D01*
X62280587Y-90360805D01*
X62284826Y-90377982D01*
X62288295Y-90395656D01*
X62290994Y-90413825D01*
X62292921Y-90432490D01*
X62294077Y-90451652D01*
X62294366Y-90461419D01*
X62294463Y-90471310D01*
X62294369Y-90481159D01*
X62293621Y-90500422D01*
X62292125Y-90519103D01*
X62289881Y-90537202D01*
X62286889Y-90554718D01*
X62283149Y-90571653D01*
X62278661Y-90588006D01*
X62273425Y-90603777D01*
X62267441Y-90618966D01*
X62260709Y-90633573D01*
X62253229Y-90647598D01*
X62245001Y-90661040D01*
X62236026Y-90673901D01*
X62226302Y-90686180D01*
X62215830Y-90697877D01*
X62204610Y-90708992D01*
X62198719Y-90714331D01*
X62186394Y-90724506D01*
X62173414Y-90734023D01*
X62159779Y-90742885D01*
X62145490Y-90751090D01*
X62130546Y-90758639D01*
X62114948Y-90765531D01*
X62098695Y-90771767D01*
X62081788Y-90777346D01*
X62064226Y-90782269D01*
X62046010Y-90786536D01*
X62027140Y-90790146D01*
X62017459Y-90791705D01*
X62007615Y-90793100D01*
X61997607Y-90794330D01*
X61987435Y-90795397D01*
X61977100Y-90796300D01*
X61966601Y-90797038D01*
X61955938Y-90797612D01*
X61945112Y-90798023D01*
X61934123Y-90798269D01*
X61922969Y-90798351D01*
X61325307Y-90798351D01*
X61325307Y-90519670D01*
X61922481Y-90519670D01*
X61933454Y-90519430D01*
X61943718Y-90518712D01*
X61957788Y-90516736D01*
X61970266Y-90513683D01*
X61981150Y-90509552D01*
X61990441Y-90504344D01*
X61998140Y-90498057D01*
X62005927Y-90488000D01*
X62010883Y-90476026D01*
X62012741Y-90465789D01*
X62013095Y-90458365D01*
X62012298Y-90447802D01*
X62009909Y-90438278D01*
X62004246Y-90427195D01*
X61995751Y-90417960D01*
X61987521Y-90412245D01*
X61977699Y-90407570D01*
X61966283Y-90403934D01*
X61953275Y-90401336D01*
X61938674Y-90399778D01*
X61928056Y-90399316D01*
X61922481Y-90399258D01*
X61325307Y-90399258D01*
X61325307Y-90120333D01*
G37*
G36*
X61591043Y-89676788D02*
G01*
X62263200Y-89676788D01*
X62263200Y-89955713D01*
X61325307Y-89955713D01*
X61325307Y-89592280D01*
X61325412Y-89577437D01*
X61325729Y-89562796D01*
X61326256Y-89548358D01*
X61326994Y-89534123D01*
X61327943Y-89520091D01*
X61329102Y-89506261D01*
X61330473Y-89492635D01*
X61332054Y-89479211D01*
X61333846Y-89465989D01*
X61335849Y-89452971D01*
X61338063Y-89440155D01*
X61340488Y-89427542D01*
X61343124Y-89415131D01*
X61345970Y-89402924D01*
X61349028Y-89390919D01*
X61352296Y-89379117D01*
X61355775Y-89367517D01*
X61359465Y-89356121D01*
X61363365Y-89344927D01*
X61367477Y-89333936D01*
X61371799Y-89323147D01*
X61376333Y-89312562D01*
X61381077Y-89302179D01*
X61386032Y-89291998D01*
X61391198Y-89282021D01*
X61396574Y-89272246D01*
X61402162Y-89262674D01*
X61407960Y-89253305D01*
X61413970Y-89244139D01*
X61420190Y-89235175D01*
X61426621Y-89226414D01*
X61433262Y-89217855D01*
X61441413Y-89207968D01*
X61449744Y-89198394D01*
X61458256Y-89189135D01*
X61466949Y-89180189D01*
X61475822Y-89171557D01*
X61484877Y-89163239D01*
X61494112Y-89155234D01*
X61503528Y-89147544D01*
X61513125Y-89140168D01*
X61522902Y-89133105D01*
X61532861Y-89126356D01*
X61543000Y-89119922D01*
X61553320Y-89113801D01*
X61563821Y-89107994D01*
X61574502Y-89102501D01*
X61585365Y-89097322D01*
X61596408Y-89092456D01*
X61607632Y-89087905D01*
X61619036Y-89083667D01*
X61630622Y-89079744D01*
X61642388Y-89076134D01*
X61654335Y-89072838D01*
X61666463Y-89069856D01*
X61678772Y-89067188D01*
X61691262Y-89064834D01*
X61703932Y-89062794D01*
X61716783Y-89061067D01*
X61729815Y-89059655D01*
X61743028Y-89058556D01*
X61756421Y-89057771D01*
X61769996Y-89057301D01*
X61783751Y-89057144D01*
X61796910Y-89057278D01*
X61809916Y-89057681D01*
X61822771Y-89058352D01*
X61835473Y-89059292D01*
X61848023Y-89060501D01*
X61860421Y-89061978D01*
X61872667Y-89063724D01*
X61884760Y-89065738D01*
X61896702Y-89068021D01*
X61908491Y-89070572D01*
X61920128Y-89073392D01*
X61931613Y-89076481D01*
X61942946Y-89079838D01*
X61954126Y-89083464D01*
X61965155Y-89087358D01*
X61976031Y-89091521D01*
X61986755Y-89095952D01*
X61997327Y-89100652D01*
X62007747Y-89105621D01*
X62018014Y-89110858D01*
X62028129Y-89116364D01*
X62038093Y-89122138D01*
X62047903Y-89128181D01*
X62057562Y-89134492D01*
X62067069Y-89141072D01*
X62076423Y-89147921D01*
X62085626Y-89155038D01*
X62094676Y-89162424D01*
X62103574Y-89170078D01*
X62112319Y-89178001D01*
X62120913Y-89186192D01*
X62129354Y-89194652D01*
X62137589Y-89203309D01*
X62145562Y-89212120D01*
X62153274Y-89221085D01*
X62160724Y-89230205D01*
X62167913Y-89239480D01*
X62174841Y-89248909D01*
X62181507Y-89258492D01*
X62187912Y-89268231D01*
X62194055Y-89278123D01*
X62199937Y-89288171D01*
X62205557Y-89298373D01*
X62210916Y-89308729D01*
X62216014Y-89319240D01*
X62220850Y-89329906D01*
X62225425Y-89340726D01*
X62229738Y-89351701D01*
X62233790Y-89362830D01*
X62237581Y-89374114D01*
X62241110Y-89385552D01*
X62244378Y-89397145D01*
X62247384Y-89408892D01*
X62250129Y-89420795D01*
X62252612Y-89432851D01*
X62254834Y-89445062D01*
X62256795Y-89457428D01*
X62258494Y-89469948D01*
X62259932Y-89482623D01*
X62261108Y-89495453D01*
X62262023Y-89508437D01*
X62262677Y-89521575D01*
X62263069Y-89534868D01*
X62263200Y-89548316D01*
X62263294Y-89558975D01*
X62263517Y-89569589D01*
X62263871Y-89581777D01*
X62264249Y-89592661D01*
X62264711Y-89604553D01*
X62265256Y-89617452D01*
X62265721Y-89627788D01*
X62265886Y-89631359D01*
X61997463Y-89631359D01*
X61997463Y-89586662D01*
X61997259Y-89571666D01*
X61996645Y-89557145D01*
X61995621Y-89543101D01*
X61994189Y-89529532D01*
X61992347Y-89516440D01*
X61990096Y-89503824D01*
X61987435Y-89491684D01*
X61984366Y-89480020D01*
X61980887Y-89468832D01*
X61976998Y-89458120D01*
X61972701Y-89447884D01*
X61967994Y-89438124D01*
X61962878Y-89428841D01*
X61957352Y-89420033D01*
X61951417Y-89411702D01*
X61945073Y-89403846D01*
X61938320Y-89396467D01*
X61931157Y-89389564D01*
X61923585Y-89383137D01*
X61915604Y-89377186D01*
X61907213Y-89371711D01*
X61898413Y-89366712D01*
X61889204Y-89362189D01*
X61879586Y-89358142D01*
X61869558Y-89354572D01*
X61859121Y-89351477D01*
X61848274Y-89348859D01*
X61837019Y-89346716D01*
X61825354Y-89345050D01*
X61813279Y-89343860D01*
X61800796Y-89343146D01*
X61787903Y-89342908D01*
X61775791Y-89343142D01*
X61764064Y-89343844D01*
X61752722Y-89345014D01*
X61741764Y-89346652D01*
X61731190Y-89348757D01*
X61721001Y-89351331D01*
X61711197Y-89354373D01*
X61701777Y-89357883D01*
X61692741Y-89361861D01*
X61675824Y-89371220D01*
X61660444Y-89382452D01*
X61646602Y-89395555D01*
X61634298Y-89410530D01*
X61628723Y-89418719D01*
X61623533Y-89427377D01*
X61618727Y-89436502D01*
X61614305Y-89446096D01*
X61610268Y-89456157D01*
X61606615Y-89466687D01*
X61603347Y-89477684D01*
X61600463Y-89489149D01*
X61597964Y-89501083D01*
X61595849Y-89513484D01*
X61594119Y-89526353D01*
X61592773Y-89539690D01*
X61591812Y-89553496D01*
X61591235Y-89567769D01*
X61591043Y-89582510D01*
X61591043Y-89676788D01*
G37*
G36*
X61325307Y-88272880D02*
G01*
X61932006Y-88272880D01*
X61942261Y-88272974D01*
X61952385Y-88273255D01*
X61962380Y-88273724D01*
X61972245Y-88274380D01*
X61981981Y-88275223D01*
X62001062Y-88277473D01*
X62019625Y-88280473D01*
X62037668Y-88284222D01*
X62055192Y-88288722D01*
X62072198Y-88293971D01*
X62088684Y-88299970D01*
X62104652Y-88306719D01*
X62120100Y-88314218D01*
X62135029Y-88322467D01*
X62149440Y-88331466D01*
X62163331Y-88341215D01*
X62176703Y-88351713D01*
X62189556Y-88362962D01*
X62195788Y-88368867D01*
X62207737Y-88381083D01*
X62218915Y-88393795D01*
X62229322Y-88407004D01*
X62238958Y-88420708D01*
X62247824Y-88434908D01*
X62255918Y-88449605D01*
X62263241Y-88464798D01*
X62269794Y-88480486D01*
X62275576Y-88496671D01*
X62280587Y-88513352D01*
X62284826Y-88530529D01*
X62288295Y-88548203D01*
X62290994Y-88566372D01*
X62292921Y-88585038D01*
X62294077Y-88604199D01*
X62294366Y-88613966D01*
X62294463Y-88623857D01*
X62294369Y-88633706D01*
X62293621Y-88652969D01*
X62292125Y-88671650D01*
X62289881Y-88689749D01*
X62286889Y-88707266D01*
X62283149Y-88724200D01*
X62278661Y-88740553D01*
X62273425Y-88756324D01*
X62267441Y-88771513D01*
X62260709Y-88786120D01*
X62253229Y-88800145D01*
X62245001Y-88813588D01*
X62236026Y-88826448D01*
X62226302Y-88838727D01*
X62215830Y-88850424D01*
X62204610Y-88861539D01*
X62198719Y-88866878D01*
X62186394Y-88877053D01*
X62173414Y-88886571D01*
X62159779Y-88895432D01*
X62145490Y-88903637D01*
X62130546Y-88911186D01*
X62114948Y-88918078D01*
X62098695Y-88924314D01*
X62081788Y-88929893D01*
X62064226Y-88934816D01*
X62046010Y-88939083D01*
X62027140Y-88942693D01*
X62017459Y-88944252D01*
X62007615Y-88945647D01*
X61997607Y-88946878D01*
X61987435Y-88947944D01*
X61977100Y-88948847D01*
X61966601Y-88949585D01*
X61955938Y-88950160D01*
X61945112Y-88950570D01*
X61934123Y-88950816D01*
X61922969Y-88950898D01*
X61325307Y-88950898D01*
X61325307Y-88672217D01*
X61922481Y-88672217D01*
X61933454Y-88671977D01*
X61943718Y-88671259D01*
X61957788Y-88669283D01*
X61970266Y-88666230D01*
X61981150Y-88662099D01*
X61990441Y-88656891D01*
X61998140Y-88650605D01*
X62005927Y-88640547D01*
X62010883Y-88628573D01*
X62012741Y-88618336D01*
X62013095Y-88610912D01*
X62012298Y-88600349D01*
X62009909Y-88590825D01*
X62004246Y-88579742D01*
X61995751Y-88570507D01*
X61987521Y-88564793D01*
X61977699Y-88560117D01*
X61966283Y-88556481D01*
X61953275Y-88553883D01*
X61938674Y-88552325D01*
X61928056Y-88551863D01*
X61922481Y-88551805D01*
X61325307Y-88551805D01*
X61325307Y-88272880D01*
G37*
G36*
X61762990Y-87888442D02*
G01*
X61950569Y-87888442D01*
X61950569Y-88202294D01*
X61762990Y-88202294D01*
X61762990Y-87888442D01*
G37*
G36*
X61325307Y-87815657D02*
G01*
X61325307Y-87536976D01*
X61880959Y-87536976D01*
X61892848Y-87536792D01*
X61903969Y-87536238D01*
X61914321Y-87535315D01*
X61926928Y-87533510D01*
X61938169Y-87531048D01*
X61948043Y-87527930D01*
X61958466Y-87523110D01*
X61966753Y-87517264D01*
X61968154Y-87515971D01*
X61974416Y-87508411D01*
X61979617Y-87498860D01*
X61983757Y-87487317D01*
X61986304Y-87476648D01*
X61988172Y-87464705D01*
X61989128Y-87454912D01*
X61989701Y-87444401D01*
X61989892Y-87433173D01*
X61989892Y-87418763D01*
X62263200Y-87418763D01*
X62263200Y-87493012D01*
X62262851Y-87511801D01*
X62261807Y-87530065D01*
X62260065Y-87547804D01*
X62257628Y-87565018D01*
X62254494Y-87581708D01*
X62250663Y-87597873D01*
X62246136Y-87613513D01*
X62240912Y-87628628D01*
X62234992Y-87643219D01*
X62228376Y-87657285D01*
X62221063Y-87670826D01*
X62213053Y-87683842D01*
X62204347Y-87696334D01*
X62194945Y-87708301D01*
X62184846Y-87719743D01*
X62174051Y-87730661D01*
X62162606Y-87740953D01*
X62150619Y-87750582D01*
X62138090Y-87759546D01*
X62125019Y-87767847D01*
X62111406Y-87775483D01*
X62097252Y-87782456D01*
X62082555Y-87788764D01*
X62067317Y-87794408D01*
X62051536Y-87799388D01*
X62035214Y-87803705D01*
X62018350Y-87807357D01*
X62000944Y-87810345D01*
X61982996Y-87812669D01*
X61964506Y-87814329D01*
X61945474Y-87815325D01*
X61925900Y-87815657D01*
X61325307Y-87815657D01*
G37*
G36*
X61325307Y-87048735D02*
G01*
X62263200Y-87048735D01*
X62263200Y-87327660D01*
X61325307Y-87327660D01*
X61325307Y-87048735D01*
G37*
G36*
X61731727Y-86466460D02*
G01*
X61731727Y-86200724D01*
X61745421Y-86190313D01*
X61759208Y-86180574D01*
X61773089Y-86171506D01*
X61787063Y-86163110D01*
X61801131Y-86155386D01*
X61815292Y-86148333D01*
X61829547Y-86141953D01*
X61843896Y-86136243D01*
X61858337Y-86131206D01*
X61872873Y-86126840D01*
X61887502Y-86123146D01*
X61902224Y-86120123D01*
X61917040Y-86117773D01*
X61931949Y-86116093D01*
X61946952Y-86115086D01*
X61962048Y-86114750D01*
X61979488Y-86115143D01*
X61996574Y-86116322D01*
X62013308Y-86118288D01*
X62029688Y-86121039D01*
X62045716Y-86124577D01*
X62061390Y-86128901D01*
X62076711Y-86134011D01*
X62091680Y-86139907D01*
X62106295Y-86146589D01*
X62120558Y-86154058D01*
X62134467Y-86162313D01*
X62148024Y-86171353D01*
X62161227Y-86181180D01*
X62174078Y-86191793D01*
X62186575Y-86203193D01*
X62198719Y-86215378D01*
X62210313Y-86228138D01*
X62221159Y-86241260D01*
X62231257Y-86254745D01*
X62240607Y-86268593D01*
X62249209Y-86282803D01*
X62257063Y-86297375D01*
X62264169Y-86312310D01*
X62270527Y-86327608D01*
X62276137Y-86343268D01*
X62280999Y-86359291D01*
X62285113Y-86375676D01*
X62288479Y-86392424D01*
X62291097Y-86409534D01*
X62292967Y-86427007D01*
X62294089Y-86444842D01*
X62294463Y-86463040D01*
X62294321Y-86474921D01*
X62293897Y-86486690D01*
X62293190Y-86498346D01*
X62292200Y-86509889D01*
X62290927Y-86521320D01*
X62289371Y-86532638D01*
X62287532Y-86543844D01*
X62285410Y-86554937D01*
X62283006Y-86565917D01*
X62280318Y-86576785D01*
X62277348Y-86587540D01*
X62274095Y-86598183D01*
X62270559Y-86608713D01*
X62266740Y-86619131D01*
X62262638Y-86629436D01*
X62258254Y-86639628D01*
X62253586Y-86649708D01*
X62248636Y-86659675D01*
X62243402Y-86669530D01*
X62237886Y-86679272D01*
X62232087Y-86688901D01*
X62226005Y-86698418D01*
X62219640Y-86707822D01*
X62212992Y-86717114D01*
X62206062Y-86726293D01*
X62198848Y-86735360D01*
X62191352Y-86744314D01*
X62183573Y-86753155D01*
X62175510Y-86761884D01*
X62167165Y-86770500D01*
X62158537Y-86779004D01*
X62149627Y-86787395D01*
X62140497Y-86795584D01*
X62131244Y-86803514D01*
X62121868Y-86811184D01*
X62112368Y-86818593D01*
X62102745Y-86825743D01*
X62092998Y-86832632D01*
X62083127Y-86839262D01*
X62073133Y-86845632D01*
X62063015Y-86851741D01*
X62052774Y-86857591D01*
X62042409Y-86863181D01*
X62031921Y-86868510D01*
X62021309Y-86873580D01*
X62010573Y-86878390D01*
X61999714Y-86882939D01*
X61988732Y-86887229D01*
X61977625Y-86891259D01*
X61966396Y-86895029D01*
X61955043Y-86898539D01*
X61943566Y-86901788D01*
X61931965Y-86904778D01*
X61920242Y-86907508D01*
X61908394Y-86909978D01*
X61896423Y-86912188D01*
X61884329Y-86914138D01*
X61872110Y-86915828D01*
X61859769Y-86917257D01*
X61847304Y-86918427D01*
X61834715Y-86919337D01*
X61822002Y-86919987D01*
X61809167Y-86920377D01*
X61796207Y-86920507D01*
X61783224Y-86920375D01*
X61770378Y-86919978D01*
X61757668Y-86919316D01*
X61745096Y-86918389D01*
X61732660Y-86917198D01*
X61720361Y-86915742D01*
X61708199Y-86914021D01*
X61696174Y-86912035D01*
X61684286Y-86909785D01*
X61672535Y-86907269D01*
X61660921Y-86904490D01*
X61649444Y-86901445D01*
X61638104Y-86898135D01*
X61626900Y-86894561D01*
X61615834Y-86890722D01*
X61604904Y-86886619D01*
X61594111Y-86882250D01*
X61583455Y-86877617D01*
X61572937Y-86872719D01*
X61562555Y-86867556D01*
X61552309Y-86862129D01*
X61542201Y-86856436D01*
X61532230Y-86850479D01*
X61522396Y-86844258D01*
X61512698Y-86837771D01*
X61503138Y-86831020D01*
X61493714Y-86824004D01*
X61484427Y-86816723D01*
X61475278Y-86809178D01*
X61466265Y-86801367D01*
X61457389Y-86793292D01*
X61448650Y-86784952D01*
X61440099Y-86776399D01*
X61431821Y-86767714D01*
X61423813Y-86758898D01*
X61416078Y-86749949D01*
X61408613Y-86740869D01*
X61401420Y-86731658D01*
X61394499Y-86722315D01*
X61387848Y-86712840D01*
X61381470Y-86703233D01*
X61375362Y-86693495D01*
X61369527Y-86683625D01*
X61363962Y-86673624D01*
X61358669Y-86663490D01*
X61353648Y-86653225D01*
X61348898Y-86642829D01*
X61344419Y-86632301D01*
X61340212Y-86621641D01*
X61336276Y-86610849D01*
X61332612Y-86599926D01*
X61329219Y-86588871D01*
X61326097Y-86577685D01*
X61323247Y-86566367D01*
X61320668Y-86554917D01*
X61318361Y-86543335D01*
X61316326Y-86531622D01*
X61314561Y-86519777D01*
X61313068Y-86507801D01*
X61311847Y-86495693D01*
X61310897Y-86483453D01*
X61310218Y-86471081D01*
X61309811Y-86458578D01*
X61309675Y-86445943D01*
X61309856Y-86432804D01*
X61310397Y-86419399D01*
X61311298Y-86405728D01*
X61312561Y-86391790D01*
X61314183Y-86377586D01*
X61316167Y-86363116D01*
X61317690Y-86353322D01*
X61319373Y-86343409D01*
X61321216Y-86333378D01*
X61323219Y-86323229D01*
X61325383Y-86312961D01*
X61327707Y-86302575D01*
X61330192Y-86292070D01*
X61605698Y-86292070D01*
X61603079Y-86304332D01*
X61600717Y-86316388D01*
X61598614Y-86328237D01*
X61596768Y-86339881D01*
X61595179Y-86351318D01*
X61593848Y-86362550D01*
X61592775Y-86373575D01*
X61591959Y-86384394D01*
X61591401Y-86395007D01*
X61591100Y-86405414D01*
X61591043Y-86412238D01*
X61591283Y-86424371D01*
X61592001Y-86436223D01*
X61593198Y-86447795D01*
X61594875Y-86459087D01*
X61597030Y-86470098D01*
X61599664Y-86480828D01*
X61602777Y-86491278D01*
X61606369Y-86501448D01*
X61610440Y-86511337D01*
X61614990Y-86520945D01*
X61620019Y-86530273D01*
X61625527Y-86539320D01*
X61631514Y-86548087D01*
X61637980Y-86556574D01*
X61644924Y-86564780D01*
X61652348Y-86572705D01*
X61660154Y-86580218D01*
X61668247Y-86587246D01*
X61676625Y-86593789D01*
X61685290Y-86599847D01*
X61694242Y-86605421D01*
X61703479Y-86610510D01*
X61713002Y-86615114D01*
X61722812Y-86619234D01*
X61732908Y-86622869D01*
X61743290Y-86626019D01*
X61753959Y-86628685D01*
X61764914Y-86630866D01*
X61776154Y-86632562D01*
X61787682Y-86633774D01*
X61799495Y-86634501D01*
X61811594Y-86634743D01*
X61823920Y-86634518D01*
X61835923Y-86633842D01*
X61847604Y-86632717D01*
X61858962Y-86631141D01*
X61869998Y-86629114D01*
X61880711Y-86626637D01*
X61891102Y-86623710D01*
X61901171Y-86620333D01*
X61910916Y-86616505D01*
X61920340Y-86612227D01*
X61929441Y-86607499D01*
X61938219Y-86602320D01*
X61946675Y-86596691D01*
X61954809Y-86590611D01*
X61962620Y-86584082D01*
X61970108Y-86577102D01*
X61977206Y-86569709D01*
X61983847Y-86562001D01*
X61990029Y-86553978D01*
X61995754Y-86545640D01*
X62001020Y-86536988D01*
X62005829Y-86528020D01*
X62010179Y-86518738D01*
X62014072Y-86509141D01*
X62017506Y-86499229D01*
X62020483Y-86489003D01*
X62023002Y-86478461D01*
X62025063Y-86467605D01*
X62026666Y-86456433D01*
X62027810Y-86444947D01*
X62028497Y-86433146D01*
X62028726Y-86421031D01*
X62028336Y-86409857D01*
X62027164Y-86399781D01*
X62024385Y-86388058D01*
X62020218Y-86378288D01*
X62013055Y-86368824D01*
X62003722Y-86362412D01*
X61992218Y-86359054D01*
X61984274Y-86358504D01*
X61972820Y-86359956D01*
X61963735Y-86364309D01*
X61957020Y-86371565D01*
X61952675Y-86381723D01*
X61950865Y-86392405D01*
X61950569Y-86399781D01*
X61950569Y-86466460D01*
X61731727Y-86466460D01*
G37*
G36*
X61653569Y-85649223D02*
G01*
X61903674Y-85649223D01*
X61903674Y-85726892D01*
X62263200Y-85726892D01*
X62263200Y-86005818D01*
X61325307Y-86005818D01*
X61325307Y-85726892D01*
X61653569Y-85726892D01*
X61653569Y-85649223D01*
G37*
G36*
X61325307Y-85322915D02*
G01*
X62263200Y-85322915D01*
X62263200Y-85601840D01*
X61325307Y-85601840D01*
X61325307Y-85322915D01*
G37*
G36*
X61591043Y-84732091D02*
G01*
X62263200Y-84732091D01*
X62263200Y-85011017D01*
X61591043Y-85011017D01*
X61591043Y-85224729D01*
X61325307Y-85224729D01*
X61325307Y-84519112D01*
X61591043Y-84519112D01*
X61591043Y-84732091D01*
G37*
G36*
X61762990Y-84200375D02*
G01*
X61950569Y-84200375D01*
X61950569Y-84514227D01*
X61762990Y-84514227D01*
X61762990Y-84200375D01*
G37*
G36*
X61325307Y-84127590D02*
G01*
X61325307Y-83848909D01*
X61880959Y-83848909D01*
X61892848Y-83848725D01*
X61903969Y-83848171D01*
X61914321Y-83847248D01*
X61926928Y-83845443D01*
X61938169Y-83842981D01*
X61948043Y-83839863D01*
X61958466Y-83835043D01*
X61966753Y-83829197D01*
X61968154Y-83827904D01*
X61974416Y-83820344D01*
X61979617Y-83810793D01*
X61983757Y-83799250D01*
X61986304Y-83788581D01*
X61988172Y-83776638D01*
X61989128Y-83766845D01*
X61989701Y-83756334D01*
X61989892Y-83745106D01*
X61989892Y-83730696D01*
X62263200Y-83730696D01*
X62263200Y-83804945D01*
X62262851Y-83823734D01*
X62261807Y-83841998D01*
X62260065Y-83859737D01*
X62257628Y-83876951D01*
X62254494Y-83893641D01*
X62250663Y-83909806D01*
X62246136Y-83925446D01*
X62240912Y-83940561D01*
X62234992Y-83955152D01*
X62228376Y-83969218D01*
X62221063Y-83982759D01*
X62213053Y-83995775D01*
X62204347Y-84008267D01*
X62194945Y-84020234D01*
X62184846Y-84031676D01*
X62174051Y-84042594D01*
X62162606Y-84052886D01*
X62150619Y-84062515D01*
X62138090Y-84071479D01*
X62125019Y-84079780D01*
X62111406Y-84087416D01*
X62097252Y-84094389D01*
X62082555Y-84100697D01*
X62067317Y-84106341D01*
X62051536Y-84111321D01*
X62035214Y-84115638D01*
X62018350Y-84119290D01*
X62000944Y-84122278D01*
X61982996Y-84124602D01*
X61964506Y-84126262D01*
X61945474Y-84127258D01*
X61925900Y-84127590D01*
X61325307Y-84127590D01*
G37*
G36*
X61684832Y-83139384D02*
G01*
X61888042Y-83139384D01*
X61888042Y-83321345D01*
X61888347Y-83332421D01*
X61889259Y-83342449D01*
X61891157Y-83353096D01*
X61894477Y-83363608D01*
X61899733Y-83373103D01*
X61900499Y-83374101D01*
X61907811Y-83380833D01*
X61917291Y-83385642D01*
X61927363Y-83388271D01*
X61937318Y-83389353D01*
X61942753Y-83389488D01*
X61952719Y-83389107D01*
X61963184Y-83387641D01*
X61973330Y-83384542D01*
X61982207Y-83379169D01*
X61986961Y-83373857D01*
X61991556Y-83363858D01*
X61994140Y-83353654D01*
X61995730Y-83343380D01*
X61996807Y-83331496D01*
X61997299Y-83320829D01*
X61997463Y-83309133D01*
X61997463Y-83121554D01*
X62263200Y-83121554D01*
X62263200Y-83340640D01*
X62262910Y-83359681D01*
X62262043Y-83378154D01*
X62260598Y-83396058D01*
X62258574Y-83413394D01*
X62255972Y-83430161D01*
X62252792Y-83446359D01*
X62249034Y-83461988D01*
X62244698Y-83477049D01*
X62239784Y-83491542D01*
X62234291Y-83505466D01*
X62228220Y-83518821D01*
X62221571Y-83531607D01*
X62214344Y-83543825D01*
X62206539Y-83555474D01*
X62198156Y-83566555D01*
X62189194Y-83577067D01*
X62179687Y-83586945D01*
X62169666Y-83596187D01*
X62159132Y-83604790D01*
X62148085Y-83612757D01*
X62136524Y-83620086D01*
X62124450Y-83626778D01*
X62111863Y-83632833D01*
X62098763Y-83638250D01*
X62085149Y-83643030D01*
X62071022Y-83647172D01*
X62056382Y-83650678D01*
X62041229Y-83653545D01*
X62025562Y-83655776D01*
X62009382Y-83657369D01*
X61992688Y-83658325D01*
X61975481Y-83658644D01*
X61604477Y-83658644D01*
X61588102Y-83658343D01*
X61572195Y-83657438D01*
X61556755Y-83655931D01*
X61541782Y-83653820D01*
X61527278Y-83651107D01*
X61513240Y-83647790D01*
X61499671Y-83643871D01*
X61486568Y-83639349D01*
X61473934Y-83634224D01*
X61461766Y-83628495D01*
X61450066Y-83622164D01*
X61438834Y-83615230D01*
X61428069Y-83607693D01*
X61417772Y-83599553D01*
X61407942Y-83590809D01*
X61398580Y-83581463D01*
X61389707Y-83571541D01*
X61381406Y-83561130D01*
X61373678Y-83550231D01*
X61366523Y-83538843D01*
X61359940Y-83526967D01*
X61353929Y-83514602D01*
X61348491Y-83501749D01*
X61343625Y-83488407D01*
X61339332Y-83474577D01*
X61335611Y-83460258D01*
X61332463Y-83445451D01*
X61329887Y-83430155D01*
X61327883Y-83414371D01*
X61326452Y-83398098D01*
X61325593Y-83381337D01*
X61325307Y-83364087D01*
X61325307Y-83121554D01*
X61591043Y-83121554D01*
X61591043Y-83299363D01*
X61591447Y-83312283D01*
X61592657Y-83323932D01*
X61594675Y-83334311D01*
X61598621Y-83346172D01*
X61604002Y-83355773D01*
X61610818Y-83363116D01*
X61621356Y-83369117D01*
X61631400Y-83371376D01*
X61636961Y-83371659D01*
X61647932Y-83370841D01*
X61658553Y-83367902D01*
X61667128Y-83362826D01*
X61674330Y-83354562D01*
X61678925Y-83344227D01*
X61681509Y-83334292D01*
X61683099Y-83324583D01*
X61684176Y-83313575D01*
X61684740Y-83301266D01*
X61684832Y-83293257D01*
X61684832Y-83139384D01*
G37*
G36*
X61591043Y-82686557D02*
G01*
X62263200Y-82686557D01*
X62263200Y-82965483D01*
X61325307Y-82965483D01*
X61325307Y-82602049D01*
X61325412Y-82587206D01*
X61325729Y-82572566D01*
X61326256Y-82558128D01*
X61326994Y-82543893D01*
X61327943Y-82529861D01*
X61329102Y-82516031D01*
X61330473Y-82502404D01*
X61332054Y-82488980D01*
X61333846Y-82475759D01*
X61335849Y-82462740D01*
X61338063Y-82449925D01*
X61340488Y-82437311D01*
X61343124Y-82424901D01*
X61345970Y-82412694D01*
X61349028Y-82400689D01*
X61352296Y-82388887D01*
X61355775Y-82377287D01*
X61359465Y-82365890D01*
X61363365Y-82354697D01*
X61367477Y-82343705D01*
X61371799Y-82332917D01*
X61376333Y-82322331D01*
X61381077Y-82311948D01*
X61386032Y-82301768D01*
X61391198Y-82291791D01*
X61396574Y-82282016D01*
X61402162Y-82272444D01*
X61407960Y-82263075D01*
X61413970Y-82253908D01*
X61420190Y-82244944D01*
X61426621Y-82236183D01*
X61433262Y-82227625D01*
X61441413Y-82217738D01*
X61449744Y-82208164D01*
X61458256Y-82198904D01*
X61466949Y-82189958D01*
X61475822Y-82181326D01*
X61484877Y-82173008D01*
X61494112Y-82165004D01*
X61503528Y-82157314D01*
X61513125Y-82149937D01*
X61522902Y-82142875D01*
X61532861Y-82136126D01*
X61543000Y-82129691D01*
X61553320Y-82123571D01*
X61563821Y-82117764D01*
X61574502Y-82112271D01*
X61585365Y-82107091D01*
X61596408Y-82102226D01*
X61607632Y-82097675D01*
X61619036Y-82093437D01*
X61630622Y-82089513D01*
X61642388Y-82085904D01*
X61654335Y-82082608D01*
X61666463Y-82079626D01*
X61678772Y-82076958D01*
X61691262Y-82074604D01*
X61703932Y-82072563D01*
X61716783Y-82070837D01*
X61729815Y-82069425D01*
X61743028Y-82068326D01*
X61756421Y-82067541D01*
X61769996Y-82067070D01*
X61783751Y-82066913D01*
X61796910Y-82067048D01*
X61809916Y-82067451D01*
X61822771Y-82068122D01*
X61835473Y-82069062D01*
X61848023Y-82070271D01*
X61860421Y-82071748D01*
X61872667Y-82073493D01*
X61884760Y-82075508D01*
X61896702Y-82077791D01*
X61908491Y-82080342D01*
X61920128Y-82083162D01*
X61931613Y-82086251D01*
X61942946Y-82089608D01*
X61954126Y-82093233D01*
X61965155Y-82097128D01*
X61976031Y-82101291D01*
X61986755Y-82105722D01*
X61997327Y-82110422D01*
X62007747Y-82115391D01*
X62018014Y-82120628D01*
X62028129Y-82126133D01*
X62038093Y-82131908D01*
X62047903Y-82137951D01*
X62057562Y-82144262D01*
X62067069Y-82150842D01*
X62076423Y-82157691D01*
X62085626Y-82164808D01*
X62094676Y-82172194D01*
X62103574Y-82179848D01*
X62112319Y-82187771D01*
X62120913Y-82195962D01*
X62129354Y-82204422D01*
X62137589Y-82213078D01*
X62145562Y-82221889D01*
X62153274Y-82230855D01*
X62160724Y-82239975D01*
X62167913Y-82249249D01*
X62174841Y-82258678D01*
X62181507Y-82268262D01*
X62187912Y-82278000D01*
X62194055Y-82287893D01*
X62199937Y-82297940D01*
X62205557Y-82308142D01*
X62210916Y-82318499D01*
X62216014Y-82329010D01*
X62220850Y-82339675D01*
X62225425Y-82350496D01*
X62229738Y-82361470D01*
X62233790Y-82372600D01*
X62237581Y-82383883D01*
X62241110Y-82395322D01*
X62244378Y-82406915D01*
X62247384Y-82418662D01*
X62250129Y-82430564D01*
X62252612Y-82442621D01*
X62254834Y-82454832D01*
X62256795Y-82467198D01*
X62258494Y-82479718D01*
X62259932Y-82492393D01*
X62261108Y-82505222D01*
X62262023Y-82518206D01*
X62262677Y-82531345D01*
X62263069Y-82544638D01*
X62263200Y-82558086D01*
X62263294Y-82568745D01*
X62263517Y-82579359D01*
X62263871Y-82591547D01*
X62264249Y-82602431D01*
X62264711Y-82614323D01*
X62265256Y-82627222D01*
X62265721Y-82637557D01*
X62265886Y-82641128D01*
X61997463Y-82641128D01*
X61997463Y-82596432D01*
X61997259Y-82581435D01*
X61996645Y-82566915D01*
X61995621Y-82552870D01*
X61994189Y-82539302D01*
X61992347Y-82526210D01*
X61990096Y-82513593D01*
X61987435Y-82501453D01*
X61984366Y-82489789D01*
X61980887Y-82478601D01*
X61976998Y-82467890D01*
X61972701Y-82457654D01*
X61967994Y-82447894D01*
X61962878Y-82438610D01*
X61957352Y-82429803D01*
X61951417Y-82421471D01*
X61945073Y-82413616D01*
X61938320Y-82406237D01*
X61931157Y-82399334D01*
X61923585Y-82392907D01*
X61915604Y-82386955D01*
X61907213Y-82381481D01*
X61898413Y-82376482D01*
X61889204Y-82371959D01*
X61879586Y-82367912D01*
X61869558Y-82364342D01*
X61859121Y-82361247D01*
X61848274Y-82358629D01*
X61837019Y-82356486D01*
X61825354Y-82354820D01*
X61813279Y-82353630D01*
X61800796Y-82352916D01*
X61787903Y-82352678D01*
X61775791Y-82352912D01*
X61764064Y-82353613D01*
X61752722Y-82354783D01*
X61741764Y-82356421D01*
X61731190Y-82358527D01*
X61721001Y-82361101D01*
X61711197Y-82364143D01*
X61701777Y-82367653D01*
X61692741Y-82371630D01*
X61675824Y-82380990D01*
X61660444Y-82392221D01*
X61646602Y-82405324D01*
X61634298Y-82420300D01*
X61628723Y-82428489D01*
X61623533Y-82437147D01*
X61618727Y-82446272D01*
X61614305Y-82455866D01*
X61610268Y-82465927D01*
X61606615Y-82476456D01*
X61603347Y-82487454D01*
X61600463Y-82498919D01*
X61597964Y-82510852D01*
X61595849Y-82523254D01*
X61594119Y-82536123D01*
X61592773Y-82549460D01*
X61591812Y-82563265D01*
X61591235Y-82577539D01*
X61591043Y-82592280D01*
X61591043Y-82686557D01*
G37*
G36*
X61325307Y-81591861D02*
G01*
X61325307Y-81251142D01*
X61325541Y-81232494D01*
X61326243Y-81214438D01*
X61327413Y-81196974D01*
X61329051Y-81180102D01*
X61331157Y-81163822D01*
X61333730Y-81148134D01*
X61336772Y-81133038D01*
X61340282Y-81118534D01*
X61344260Y-81104622D01*
X61348706Y-81091302D01*
X61353619Y-81078573D01*
X61359001Y-81066437D01*
X61364851Y-81054893D01*
X61371168Y-81043941D01*
X61377954Y-81033581D01*
X61385208Y-81023813D01*
X61392929Y-81014637D01*
X61401119Y-81006053D01*
X61409776Y-80998061D01*
X61418902Y-80990661D01*
X61428495Y-80983853D01*
X61438556Y-80977637D01*
X61449086Y-80972013D01*
X61460083Y-80966981D01*
X61471549Y-80962541D01*
X61483482Y-80958693D01*
X61495883Y-80955437D01*
X61508752Y-80952773D01*
X61522090Y-80950701D01*
X61535895Y-80949221D01*
X61550168Y-80948333D01*
X61564909Y-80948037D01*
X61579590Y-80948442D01*
X61593959Y-80949659D01*
X61608014Y-80951686D01*
X61621757Y-80954525D01*
X61635186Y-80958174D01*
X61648303Y-80962634D01*
X61661107Y-80967905D01*
X61673597Y-80973988D01*
X61685775Y-80980881D01*
X61697640Y-80988585D01*
X61709192Y-80997100D01*
X61720431Y-81006426D01*
X61731357Y-81016563D01*
X61741970Y-81027511D01*
X61752270Y-81039270D01*
X61762257Y-81051840D01*
X61766418Y-81042584D01*
X61770777Y-81033621D01*
X61775336Y-81024952D01*
X61785053Y-81008497D01*
X61795567Y-80993216D01*
X61806878Y-80979111D01*
X61818987Y-80966181D01*
X61831894Y-80954427D01*
X61845598Y-80943849D01*
X61860100Y-80934445D01*
X61875400Y-80926217D01*
X61891497Y-80919165D01*
X61908391Y-80913288D01*
X61926084Y-80908586D01*
X61944574Y-80905060D01*
X61963861Y-80902709D01*
X61973804Y-80901974D01*
X61983946Y-80901533D01*
X61994288Y-80901387D01*
X62010083Y-80901733D01*
X62025471Y-80902772D01*
X62040453Y-80904503D01*
X62055028Y-80906928D01*
X62069197Y-80910045D01*
X62082960Y-80913854D01*
X62096316Y-80918357D01*
X62109265Y-80923552D01*
X62121809Y-80929439D01*
X62133945Y-80936019D01*
X62145676Y-80943292D01*
X62157000Y-80951258D01*
X62167917Y-80959916D01*
X62178428Y-80969267D01*
X62188533Y-80979310D01*
X62198231Y-80990047D01*
X62204818Y-80998208D01*
X62211022Y-81006482D01*
X62216845Y-81014866D01*
X62222285Y-81023363D01*
X62227343Y-81031971D01*
X62232019Y-81040691D01*
X62236313Y-81049522D01*
X62241444Y-81061471D01*
X62245896Y-81073618D01*
X62248789Y-81082859D01*
X62251364Y-81092412D01*
X62253686Y-81102571D01*
X62255755Y-81113335D01*
X62257570Y-81124705D01*
X62259133Y-81136679D01*
X62260441Y-81149260D01*
X62261497Y-81162445D01*
X62262299Y-81176236D01*
X62262848Y-81190632D01*
X62263073Y-81200566D01*
X62263185Y-81210769D01*
X62263200Y-81215971D01*
X62263200Y-81268972D01*
X62013095Y-81268972D01*
X62013095Y-81221589D01*
X62012957Y-81211533D01*
X62012399Y-81200047D01*
X62011412Y-81189766D01*
X62009660Y-81179018D01*
X62006835Y-81168671D01*
X62004302Y-81162726D01*
X61998156Y-81154344D01*
X61989885Y-81148704D01*
X61979489Y-81145808D01*
X61972795Y-81145385D01*
X61961889Y-81147091D01*
X61952831Y-81152207D01*
X61945622Y-81160734D01*
X61941185Y-81170011D01*
X61937932Y-81181472D01*
X61936268Y-81191499D01*
X61935270Y-81202755D01*
X61934937Y-81215239D01*
X61934937Y-81268972D01*
X61678482Y-81268972D01*
X61678010Y-81255223D01*
X61676593Y-81242826D01*
X61674232Y-81231781D01*
X61670926Y-81222089D01*
X61665049Y-81211270D01*
X61657493Y-81202855D01*
X61648257Y-81196844D01*
X61637342Y-81193238D01*
X61624749Y-81192036D01*
X61613185Y-81193119D01*
X61603164Y-81196371D01*
X61594684Y-81201790D01*
X61587746Y-81209377D01*
X61582350Y-81219131D01*
X61578495Y-81231053D01*
X61576616Y-81241417D01*
X61575604Y-81253001D01*
X61575412Y-81261400D01*
X61575412Y-81312936D01*
X62263200Y-81312936D01*
X62263200Y-81591861D01*
X61325307Y-81591861D01*
G37*
G36*
X61814602Y-79863983D02*
G01*
X61827259Y-79864404D01*
X61839796Y-79865105D01*
X61852211Y-79866087D01*
X61864506Y-79867349D01*
X61876680Y-79868892D01*
X61888734Y-79870715D01*
X61900667Y-79872819D01*
X61912479Y-79875203D01*
X61924170Y-79877868D01*
X61935741Y-79880813D01*
X61947191Y-79884039D01*
X61958521Y-79887545D01*
X61969729Y-79891332D01*
X61980817Y-79895399D01*
X61991785Y-79899747D01*
X62002631Y-79904375D01*
X62013357Y-79909284D01*
X62023962Y-79914473D01*
X62034447Y-79919942D01*
X62044811Y-79925693D01*
X62055054Y-79931723D01*
X62065177Y-79938035D01*
X62075178Y-79944626D01*
X62085059Y-79951498D01*
X62094820Y-79958651D01*
X62104460Y-79966084D01*
X62113979Y-79973798D01*
X62123377Y-79981792D01*
X62132655Y-79990067D01*
X62141812Y-79998622D01*
X62150848Y-80007458D01*
X62159683Y-80016494D01*
X62168239Y-80025651D01*
X62176513Y-80034929D01*
X62184508Y-80044327D01*
X62192221Y-80053846D01*
X62199654Y-80063486D01*
X62206807Y-80073246D01*
X62213679Y-80083127D01*
X62220271Y-80093129D01*
X62226582Y-80103251D01*
X62232613Y-80113495D01*
X62238363Y-80123858D01*
X62243833Y-80134343D01*
X62249022Y-80144948D01*
X62253931Y-80155674D01*
X62258559Y-80166521D01*
X62262907Y-80177488D01*
X62266974Y-80188576D01*
X62270761Y-80199785D01*
X62274267Y-80211114D01*
X62277492Y-80222564D01*
X62280438Y-80234135D01*
X62283102Y-80245827D01*
X62285487Y-80257639D01*
X62287590Y-80269572D01*
X62289414Y-80281625D01*
X62290956Y-80293799D01*
X62292219Y-80306094D01*
X62293200Y-80318510D01*
X62293902Y-80331046D01*
X62294322Y-80343703D01*
X62294463Y-80356481D01*
X62294322Y-80369169D01*
X62293899Y-80381741D01*
X62293194Y-80394196D01*
X62292207Y-80406535D01*
X62290938Y-80418758D01*
X62289388Y-80430864D01*
X62287555Y-80442854D01*
X62285441Y-80454727D01*
X62283044Y-80466484D01*
X62280366Y-80478125D01*
X62277406Y-80489649D01*
X62274164Y-80501057D01*
X62270640Y-80512349D01*
X62266834Y-80523524D01*
X62262746Y-80534582D01*
X62258376Y-80545525D01*
X62253724Y-80556351D01*
X62248790Y-80567060D01*
X62243574Y-80577653D01*
X62238077Y-80588130D01*
X62232297Y-80598490D01*
X62226236Y-80608734D01*
X62219892Y-80618861D01*
X62213267Y-80628873D01*
X62206360Y-80638767D01*
X62199171Y-80648546D01*
X62191700Y-80658207D01*
X62183947Y-80667753D01*
X62175912Y-80677182D01*
X62167595Y-80686495D01*
X62158996Y-80695691D01*
X62150115Y-80704771D01*
X62141035Y-80713637D01*
X62131839Y-80722221D01*
X62122526Y-80730524D01*
X62113097Y-80738545D01*
X62103551Y-80746285D01*
X62093890Y-80753744D01*
X62084111Y-80760921D01*
X62074217Y-80767816D01*
X62064206Y-80774430D01*
X62054078Y-80780763D01*
X62043834Y-80786814D01*
X62033474Y-80792584D01*
X62022997Y-80798072D01*
X62012404Y-80803279D01*
X62001695Y-80808205D01*
X61990869Y-80812848D01*
X61979926Y-80817211D01*
X61968868Y-80821292D01*
X61957693Y-80825092D01*
X61946401Y-80828610D01*
X61934993Y-80831846D01*
X61923469Y-80834802D01*
X61911828Y-80837476D01*
X61900071Y-80839868D01*
X61888198Y-80841979D01*
X61876208Y-80843808D01*
X61864102Y-80845356D01*
X61851879Y-80846623D01*
X61839540Y-80847608D01*
X61827085Y-80848311D01*
X61814513Y-80848734D01*
X61801825Y-80848874D01*
X61788988Y-80848732D01*
X61776275Y-80848307D01*
X61763686Y-80847597D01*
X61751221Y-80846604D01*
X61738880Y-80845326D01*
X61726663Y-80843765D01*
X61714570Y-80841920D01*
X61702601Y-80839792D01*
X61690756Y-80837379D01*
X61679035Y-80834682D01*
X61667439Y-80831702D01*
X61655966Y-80828438D01*
X61644617Y-80824890D01*
X61633393Y-80821058D01*
X61622292Y-80816943D01*
X61611315Y-80812543D01*
X61600463Y-80807860D01*
X61589734Y-80802893D01*
X61579130Y-80797642D01*
X61568649Y-80792107D01*
X61558293Y-80786288D01*
X61548060Y-80780186D01*
X61537952Y-80773799D01*
X61527967Y-80767129D01*
X61518107Y-80760175D01*
X61508371Y-80752937D01*
X61498759Y-80745416D01*
X61489270Y-80737610D01*
X61479906Y-80729521D01*
X61470666Y-80721148D01*
X61461550Y-80712491D01*
X61452557Y-80703550D01*
X61443767Y-80694404D01*
X61435255Y-80685131D01*
X61427023Y-80675733D01*
X61419070Y-80666207D01*
X61411395Y-80656556D01*
X61404000Y-80646778D01*
X61396884Y-80636873D01*
X61390047Y-80626842D01*
X61383489Y-80616685D01*
X61377210Y-80606401D01*
X61371210Y-80595991D01*
X61365489Y-80585455D01*
X61360047Y-80574792D01*
X61354884Y-80564002D01*
X61350001Y-80553086D01*
X61345396Y-80542044D01*
X61341070Y-80530876D01*
X61337024Y-80519581D01*
X61333257Y-80508159D01*
X61329768Y-80496611D01*
X61326559Y-80484937D01*
X61323629Y-80473136D01*
X61320978Y-80461209D01*
X61318606Y-80449156D01*
X61316513Y-80436976D01*
X61314699Y-80424669D01*
X61313164Y-80412237D01*
X61311908Y-80399677D01*
X61310931Y-80386992D01*
X61310234Y-80374180D01*
X61309815Y-80361241D01*
X61309764Y-80356481D01*
X61591043Y-80356481D01*
X61591285Y-80367099D01*
X61592009Y-80377520D01*
X61593216Y-80387745D01*
X61594905Y-80397773D01*
X61597078Y-80407605D01*
X61599733Y-80417240D01*
X61602871Y-80426679D01*
X61606492Y-80435921D01*
X61610595Y-80444966D01*
X61615181Y-80453815D01*
X61620250Y-80462468D01*
X61625802Y-80470924D01*
X61631837Y-80479183D01*
X61638354Y-80487246D01*
X61645354Y-80495112D01*
X61652837Y-80502782D01*
X61660661Y-80510088D01*
X61668686Y-80516922D01*
X61676911Y-80523284D01*
X61685336Y-80529176D01*
X61693962Y-80534596D01*
X61702788Y-80539545D01*
X61711815Y-80544022D01*
X61721041Y-80548028D01*
X61730469Y-80551563D01*
X61740096Y-80554627D01*
X61749924Y-80557219D01*
X61759952Y-80559340D01*
X61770181Y-80560989D01*
X61780610Y-80562168D01*
X61791239Y-80562875D01*
X61802069Y-80563110D01*
X61812899Y-80562873D01*
X61823528Y-80562160D01*
X61833957Y-80560972D01*
X61844186Y-80559309D01*
X61854214Y-80557171D01*
X61864042Y-80554558D01*
X61873669Y-80551470D01*
X61883097Y-80547906D01*
X61892323Y-80543867D01*
X61901350Y-80539354D01*
X61910176Y-80534365D01*
X61918802Y-80528901D01*
X61927227Y-80522962D01*
X61935452Y-80516548D01*
X61943477Y-80509658D01*
X61951301Y-80502294D01*
X61958784Y-80494597D01*
X61965784Y-80486712D01*
X61972301Y-80478637D01*
X61978336Y-80470374D01*
X61983888Y-80461922D01*
X61988957Y-80453281D01*
X61993543Y-80444451D01*
X61997646Y-80435432D01*
X62001267Y-80426224D01*
X62004405Y-80416828D01*
X62007060Y-80407242D01*
X62009233Y-80397468D01*
X62010922Y-80387504D01*
X62012129Y-80377352D01*
X62012853Y-80367011D01*
X62013095Y-80356481D01*
X62012854Y-80345746D01*
X62012133Y-80335220D01*
X62010931Y-80324902D01*
X62009248Y-80314792D01*
X62007084Y-80304889D01*
X62004439Y-80295195D01*
X62001314Y-80285709D01*
X61997708Y-80276430D01*
X61993620Y-80267360D01*
X61989052Y-80258497D01*
X61984003Y-80249843D01*
X61978473Y-80241397D01*
X61972463Y-80233158D01*
X61965971Y-80225128D01*
X61958999Y-80217305D01*
X61951546Y-80209691D01*
X61943749Y-80202415D01*
X61935746Y-80195609D01*
X61927537Y-80189272D01*
X61919122Y-80183404D01*
X61910501Y-80178006D01*
X61901674Y-80173077D01*
X61892641Y-80168618D01*
X61883402Y-80164628D01*
X61873957Y-80161107D01*
X61864305Y-80158056D01*
X61854448Y-80155475D01*
X61844384Y-80153362D01*
X61834114Y-80151719D01*
X61823639Y-80150546D01*
X61812957Y-80149842D01*
X61802069Y-80149607D01*
X61791181Y-80149842D01*
X61780499Y-80150546D01*
X61770024Y-80151719D01*
X61759754Y-80153362D01*
X61749690Y-80155475D01*
X61739833Y-80158056D01*
X61730181Y-80161107D01*
X61720736Y-80164628D01*
X61711497Y-80168618D01*
X61702464Y-80173077D01*
X61693637Y-80178006D01*
X61685016Y-80183404D01*
X61676601Y-80189272D01*
X61668392Y-80195609D01*
X61660389Y-80202415D01*
X61652592Y-80209691D01*
X61645139Y-80217305D01*
X61638167Y-80225128D01*
X61631675Y-80233158D01*
X61625665Y-80241397D01*
X61620135Y-80249843D01*
X61615086Y-80258497D01*
X61610518Y-80267360D01*
X61606430Y-80276430D01*
X61602824Y-80285709D01*
X61599699Y-80295195D01*
X61597054Y-80304889D01*
X61594890Y-80314792D01*
X61593207Y-80324902D01*
X61592005Y-80335220D01*
X61591284Y-80345746D01*
X61591043Y-80356481D01*
X61309764Y-80356481D01*
X61309675Y-80348176D01*
X61309817Y-80335776D01*
X61310242Y-80323486D01*
X61310951Y-80311307D01*
X61311942Y-80299240D01*
X61313217Y-80287284D01*
X61314776Y-80275439D01*
X61316618Y-80263705D01*
X61318743Y-80252082D01*
X61321151Y-80240571D01*
X61323843Y-80229170D01*
X61326819Y-80217881D01*
X61330077Y-80206703D01*
X61333619Y-80195636D01*
X61337445Y-80184680D01*
X61341553Y-80173835D01*
X61345945Y-80163101D01*
X61350621Y-80152479D01*
X61355580Y-80141968D01*
X61360822Y-80131568D01*
X61366347Y-80121279D01*
X61372156Y-80111101D01*
X61378249Y-80101034D01*
X61384624Y-80091079D01*
X61391283Y-80081234D01*
X61398225Y-80071501D01*
X61405451Y-80061879D01*
X61412960Y-80052368D01*
X61420752Y-80042968D01*
X61428828Y-80033680D01*
X61437187Y-80024502D01*
X61445830Y-80015436D01*
X61454756Y-80006481D01*
X61463864Y-79997705D01*
X61473084Y-79989208D01*
X61482417Y-79980990D01*
X61491862Y-79973050D01*
X61501418Y-79965389D01*
X61511087Y-79958006D01*
X61520868Y-79950902D01*
X61530761Y-79944077D01*
X61540766Y-79937530D01*
X61550883Y-79931262D01*
X61561113Y-79925272D01*
X61571454Y-79919561D01*
X61581908Y-79914128D01*
X61592473Y-79908974D01*
X61603151Y-79904099D01*
X61613941Y-79899502D01*
X61624843Y-79895184D01*
X61635857Y-79891145D01*
X61646983Y-79887384D01*
X61658221Y-79883901D01*
X61669572Y-79880698D01*
X61681034Y-79877772D01*
X61692609Y-79875126D01*
X61704296Y-79872758D01*
X61716094Y-79870668D01*
X61728005Y-79868858D01*
X61740028Y-79867325D01*
X61752163Y-79866072D01*
X61764411Y-79865097D01*
X61776770Y-79864400D01*
X61789241Y-79863982D01*
X61801825Y-79863843D01*
X61814602Y-79863983D01*
G37*
G36*
X61794253Y-79398316D02*
G01*
X62044358Y-79398316D01*
X62044358Y-79478916D01*
X62263200Y-79478916D01*
X62263200Y-79757597D01*
X61666026Y-79757597D01*
X61655536Y-79757505D01*
X61645194Y-79757229D01*
X61634999Y-79756769D01*
X61624951Y-79756124D01*
X61615051Y-79755296D01*
X61605298Y-79754283D01*
X61586235Y-79751705D01*
X61567761Y-79748390D01*
X61549877Y-79744339D01*
X61532582Y-79739552D01*
X61515877Y-79734028D01*
X61499762Y-79727767D01*
X61484237Y-79720770D01*
X61469301Y-79713036D01*
X61454954Y-79704566D01*
X61441197Y-79695359D01*
X61428030Y-79685416D01*
X61415453Y-79674736D01*
X61403465Y-79663320D01*
X61392107Y-79651206D01*
X61381483Y-79638495D01*
X61371591Y-79625186D01*
X61362432Y-79611281D01*
X61354006Y-79596778D01*
X61346312Y-79581678D01*
X61339351Y-79565980D01*
X61333123Y-79549686D01*
X61327627Y-79532794D01*
X61322865Y-79515305D01*
X61318835Y-79497218D01*
X61315537Y-79478535D01*
X61312973Y-79459254D01*
X61311965Y-79449389D01*
X61311141Y-79439376D01*
X61310500Y-79429213D01*
X61310042Y-79418900D01*
X61309767Y-79408439D01*
X61309675Y-79397828D01*
X61309758Y-79387608D01*
X61310006Y-79377555D01*
X61310420Y-79367671D01*
X61311745Y-79348407D01*
X61313731Y-79329814D01*
X61316379Y-79311892D01*
X61319690Y-79294643D01*
X61323663Y-79278065D01*
X61328298Y-79262158D01*
X61333595Y-79246924D01*
X61339554Y-79232361D01*
X61346175Y-79218469D01*
X61353459Y-79205250D01*
X61361404Y-79192702D01*
X61370012Y-79180825D01*
X61379282Y-79169621D01*
X61389213Y-79159088D01*
X61394428Y-79154073D01*
X61405381Y-79144490D01*
X61417055Y-79135526D01*
X61429447Y-79127180D01*
X61442559Y-79119452D01*
X61456390Y-79112342D01*
X61470941Y-79105850D01*
X61486211Y-79099977D01*
X61502200Y-79094722D01*
X61518909Y-79090085D01*
X61536337Y-79086067D01*
X61554484Y-79082667D01*
X61573351Y-79079884D01*
X61583054Y-79078725D01*
X61592937Y-79077721D01*
X61603000Y-79076871D01*
X61613243Y-79076175D01*
X61623665Y-79075634D01*
X61634267Y-79075248D01*
X61645050Y-79075016D01*
X61656012Y-79074939D01*
X62263200Y-79074939D01*
X62263200Y-79353864D01*
X61675063Y-79353864D01*
X61663671Y-79354070D01*
X61653188Y-79354688D01*
X61641361Y-79356041D01*
X61630953Y-79358037D01*
X61620337Y-79361283D01*
X61610535Y-79366242D01*
X61609361Y-79367053D01*
X61601347Y-79374823D01*
X61596213Y-79383750D01*
X61592832Y-79394665D01*
X61591329Y-79405601D01*
X61591043Y-79413703D01*
X61591782Y-79425358D01*
X61593997Y-79435866D01*
X61597689Y-79445227D01*
X61604910Y-79455926D01*
X61612048Y-79462613D01*
X61620663Y-79468154D01*
X61630756Y-79472548D01*
X61642325Y-79475796D01*
X61655371Y-79477897D01*
X61669894Y-79478852D01*
X61675063Y-79478916D01*
X61794253Y-79478916D01*
X61794253Y-79398316D01*
G37*
G36*
X61575412Y-78631149D02*
G01*
X62263200Y-78631149D01*
X62263200Y-78910075D01*
X61325307Y-78910075D01*
X61325307Y-78552015D01*
X61325386Y-78541874D01*
X61325622Y-78531877D01*
X61326015Y-78522024D01*
X61327275Y-78502747D01*
X61329164Y-78484046D01*
X61331683Y-78465918D01*
X61334831Y-78448365D01*
X61338609Y-78431387D01*
X61343017Y-78414982D01*
X61348054Y-78399152D01*
X61353722Y-78383897D01*
X61360019Y-78369215D01*
X61366945Y-78355108D01*
X61374501Y-78341576D01*
X61382687Y-78328618D01*
X61391503Y-78316234D01*
X61400948Y-78304424D01*
X61405907Y-78298735D01*
X61417393Y-78286579D01*
X61429259Y-78275207D01*
X61441505Y-78264620D01*
X61454130Y-78254817D01*
X61467135Y-78245798D01*
X61480519Y-78237563D01*
X61494284Y-78230113D01*
X61508428Y-78223447D01*
X61522952Y-78217565D01*
X61537855Y-78212467D01*
X61553139Y-78208154D01*
X61568802Y-78204625D01*
X61584845Y-78201880D01*
X61601267Y-78199919D01*
X61618069Y-78198743D01*
X61635251Y-78198351D01*
X61652756Y-78198837D01*
X61669915Y-78200293D01*
X61686728Y-78202722D01*
X61703196Y-78206121D01*
X61719319Y-78210492D01*
X61735097Y-78215833D01*
X61750529Y-78222146D01*
X61765616Y-78229431D01*
X61780357Y-78237686D01*
X61794753Y-78246913D01*
X61808804Y-78257111D01*
X61822509Y-78268281D01*
X61835869Y-78280421D01*
X61848883Y-78293533D01*
X61861553Y-78307616D01*
X61873876Y-78322671D01*
X62263200Y-78161959D01*
X62263200Y-78454562D01*
X61958873Y-78589872D01*
X61716096Y-78589872D01*
X61716096Y-78567890D01*
X61715804Y-78557243D01*
X61714928Y-78547282D01*
X61712519Y-78533630D01*
X61708797Y-78521522D01*
X61703761Y-78510961D01*
X61697411Y-78501945D01*
X61689747Y-78494474D01*
X61680770Y-78488550D01*
X61670479Y-78484170D01*
X61658874Y-78481337D01*
X61645955Y-78480049D01*
X61641357Y-78479963D01*
X61629572Y-78480856D01*
X61618946Y-78483535D01*
X61609479Y-78488000D01*
X61601172Y-78494251D01*
X61594023Y-78502288D01*
X61588034Y-78512111D01*
X61583204Y-78523721D01*
X61579533Y-78537116D01*
X61577730Y-78547038D01*
X61576442Y-78557754D01*
X61575669Y-78569264D01*
X61575412Y-78581568D01*
X61575412Y-78631149D01*
G37*
G36*
X61591043Y-77793885D02*
G01*
X62263200Y-77793885D01*
X62263200Y-78072810D01*
X61325307Y-78072810D01*
X61325307Y-77709377D01*
X61325412Y-77694534D01*
X61325729Y-77679893D01*
X61326256Y-77665455D01*
X61326994Y-77651220D01*
X61327943Y-77637188D01*
X61329102Y-77623358D01*
X61330473Y-77609732D01*
X61332054Y-77596308D01*
X61333846Y-77583086D01*
X61335849Y-77570068D01*
X61338063Y-77557252D01*
X61340488Y-77544639D01*
X61343124Y-77532228D01*
X61345970Y-77520021D01*
X61349028Y-77508016D01*
X61352296Y-77496214D01*
X61355775Y-77484614D01*
X61359465Y-77473218D01*
X61363365Y-77462024D01*
X61367477Y-77451033D01*
X61371799Y-77440244D01*
X61376333Y-77429659D01*
X61381077Y-77419276D01*
X61386032Y-77409095D01*
X61391198Y-77399118D01*
X61396574Y-77389343D01*
X61402162Y-77379771D01*
X61407960Y-77370402D01*
X61413970Y-77361236D01*
X61420190Y-77352272D01*
X61426621Y-77343511D01*
X61433262Y-77334952D01*
X61441413Y-77325065D01*
X61449744Y-77315491D01*
X61458256Y-77306232D01*
X61466949Y-77297286D01*
X61475822Y-77288654D01*
X61484877Y-77280336D01*
X61494112Y-77272331D01*
X61503528Y-77264641D01*
X61513125Y-77257265D01*
X61522902Y-77250202D01*
X61532861Y-77243453D01*
X61543000Y-77237019D01*
X61553320Y-77230898D01*
X61563821Y-77225091D01*
X61574502Y-77219598D01*
X61585365Y-77214419D01*
X61596408Y-77209553D01*
X61607632Y-77205002D01*
X61619036Y-77200764D01*
X61630622Y-77196841D01*
X61642388Y-77193231D01*
X61654335Y-77189935D01*
X61666463Y-77186953D01*
X61678772Y-77184285D01*
X61691262Y-77181931D01*
X61703932Y-77179891D01*
X61716783Y-77178164D01*
X61729815Y-77176752D01*
X61743028Y-77175653D01*
X61756421Y-77174868D01*
X61769996Y-77174398D01*
X61783751Y-77174241D01*
X61796910Y-77174375D01*
X61809916Y-77174778D01*
X61822771Y-77175449D01*
X61835473Y-77176389D01*
X61848023Y-77177598D01*
X61860421Y-77179075D01*
X61872667Y-77180821D01*
X61884760Y-77182835D01*
X61896702Y-77185118D01*
X61908491Y-77187669D01*
X61920128Y-77190489D01*
X61931613Y-77193578D01*
X61942946Y-77196935D01*
X61954126Y-77200561D01*
X61965155Y-77204455D01*
X61976031Y-77208618D01*
X61986755Y-77213049D01*
X61997327Y-77217749D01*
X62007747Y-77222718D01*
X62018014Y-77227955D01*
X62028129Y-77233461D01*
X62038093Y-77239235D01*
X62047903Y-77245278D01*
X62057562Y-77251589D01*
X62067069Y-77258169D01*
X62076423Y-77265018D01*
X62085626Y-77272135D01*
X62094676Y-77279521D01*
X62103574Y-77287175D01*
X62112319Y-77295098D01*
X62120913Y-77303289D01*
X62129354Y-77311749D01*
X62137589Y-77320406D01*
X62145562Y-77329217D01*
X62153274Y-77338182D01*
X62160724Y-77347302D01*
X62167913Y-77356577D01*
X62174841Y-77366006D01*
X62181507Y-77375589D01*
X62187912Y-77385328D01*
X62194055Y-77395220D01*
X62199937Y-77405268D01*
X62205557Y-77415470D01*
X62210916Y-77425826D01*
X62216014Y-77436337D01*
X62220850Y-77447003D01*
X62225425Y-77457823D01*
X62229738Y-77468798D01*
X62233790Y-77479927D01*
X62237581Y-77491211D01*
X62241110Y-77502649D01*
X62244378Y-77514242D01*
X62247384Y-77525989D01*
X62250129Y-77537892D01*
X62252612Y-77549948D01*
X62254834Y-77562159D01*
X62256795Y-77574525D01*
X62258494Y-77587045D01*
X62259932Y-77599720D01*
X62261108Y-77612550D01*
X62262023Y-77625534D01*
X62262677Y-77638672D01*
X62263069Y-77651965D01*
X62263200Y-77665413D01*
X62263294Y-77676072D01*
X62263517Y-77686686D01*
X62263871Y-77698874D01*
X62264249Y-77709758D01*
X62264711Y-77721650D01*
X62265256Y-77734549D01*
X62265721Y-77744885D01*
X62265886Y-77748456D01*
X61997463Y-77748456D01*
X61997463Y-77703759D01*
X61997259Y-77688763D01*
X61996645Y-77674242D01*
X61995621Y-77660198D01*
X61994189Y-77646629D01*
X61992347Y-77633537D01*
X61990096Y-77620921D01*
X61987435Y-77608781D01*
X61984366Y-77597117D01*
X61980887Y-77585929D01*
X61976998Y-77575217D01*
X61972701Y-77564981D01*
X61967994Y-77555221D01*
X61962878Y-77545938D01*
X61957352Y-77537130D01*
X61951417Y-77528799D01*
X61945073Y-77520943D01*
X61938320Y-77513564D01*
X61931157Y-77506661D01*
X61923585Y-77500234D01*
X61915604Y-77494283D01*
X61907213Y-77488808D01*
X61898413Y-77483809D01*
X61889204Y-77479286D01*
X61879586Y-77475239D01*
X61869558Y-77471669D01*
X61859121Y-77468574D01*
X61848274Y-77465956D01*
X61837019Y-77463813D01*
X61825354Y-77462147D01*
X61813279Y-77460957D01*
X61800796Y-77460243D01*
X61787903Y-77460005D01*
X61775791Y-77460239D01*
X61764064Y-77460941D01*
X61752722Y-77462111D01*
X61741764Y-77463749D01*
X61731190Y-77465854D01*
X61721001Y-77468428D01*
X61711197Y-77471470D01*
X61701777Y-77474980D01*
X61692741Y-77478958D01*
X61675824Y-77488317D01*
X61660444Y-77499549D01*
X61646602Y-77512652D01*
X61634298Y-77527627D01*
X61628723Y-77535816D01*
X61623533Y-77544474D01*
X61618727Y-77553599D01*
X61614305Y-77563193D01*
X61610268Y-77573254D01*
X61606615Y-77583784D01*
X61603347Y-77594781D01*
X61600463Y-77606246D01*
X61597964Y-77618180D01*
X61595849Y-77630581D01*
X61594119Y-77643450D01*
X61592773Y-77656787D01*
X61591812Y-77670593D01*
X61591235Y-77684866D01*
X61591043Y-77699607D01*
X61591043Y-77793885D01*
G37*
X110577333Y-85830580D02*
X110529714Y-85878200D01*
X110529714Y-85878200D02*
X110386857Y-85925819D01*
X110386857Y-85925819D02*
X110291619Y-85925819D01*
X110291619Y-85925819D02*
X110148762Y-85878200D01*
X110148762Y-85878200D02*
X110053524Y-85782961D01*
X110053524Y-85782961D02*
X110005905Y-85687723D01*
X110005905Y-85687723D02*
X109958286Y-85497247D01*
X109958286Y-85497247D02*
X109958286Y-85354390D01*
X109958286Y-85354390D02*
X110005905Y-85163914D01*
X110005905Y-85163914D02*
X110053524Y-85068676D01*
X110053524Y-85068676D02*
X110148762Y-84973438D01*
X110148762Y-84973438D02*
X110291619Y-84925819D01*
X110291619Y-84925819D02*
X110386857Y-84925819D01*
X110386857Y-84925819D02*
X110529714Y-84973438D01*
X110529714Y-84973438D02*
X110577333Y-85021057D01*
X111529714Y-85925819D02*
X110958286Y-85925819D01*
X111244000Y-85925819D02*
X111244000Y-84925819D01*
X111244000Y-84925819D02*
X111148762Y-85068676D01*
X111148762Y-85068676D02*
X111053524Y-85163914D01*
X111053524Y-85163914D02*
X110958286Y-85211533D01*
X120261142Y-84560580D02*
X120213523Y-84608200D01*
X120213523Y-84608200D02*
X120070666Y-84655819D01*
X120070666Y-84655819D02*
X119975428Y-84655819D01*
X119975428Y-84655819D02*
X119832571Y-84608200D01*
X119832571Y-84608200D02*
X119737333Y-84512961D01*
X119737333Y-84512961D02*
X119689714Y-84417723D01*
X119689714Y-84417723D02*
X119642095Y-84227247D01*
X119642095Y-84227247D02*
X119642095Y-84084390D01*
X119642095Y-84084390D02*
X119689714Y-83893914D01*
X119689714Y-83893914D02*
X119737333Y-83798676D01*
X119737333Y-83798676D02*
X119832571Y-83703438D01*
X119832571Y-83703438D02*
X119975428Y-83655819D01*
X119975428Y-83655819D02*
X120070666Y-83655819D01*
X120070666Y-83655819D02*
X120213523Y-83703438D01*
X120213523Y-83703438D02*
X120261142Y-83751057D01*
X121213523Y-84655819D02*
X120642095Y-84655819D01*
X120927809Y-84655819D02*
X120927809Y-83655819D01*
X120927809Y-83655819D02*
X120832571Y-83798676D01*
X120832571Y-83798676D02*
X120737333Y-83893914D01*
X120737333Y-83893914D02*
X120642095Y-83941533D01*
X121546857Y-83655819D02*
X122165904Y-83655819D01*
X122165904Y-83655819D02*
X121832571Y-84036771D01*
X121832571Y-84036771D02*
X121975428Y-84036771D01*
X121975428Y-84036771D02*
X122070666Y-84084390D01*
X122070666Y-84084390D02*
X122118285Y-84132009D01*
X122118285Y-84132009D02*
X122165904Y-84227247D01*
X122165904Y-84227247D02*
X122165904Y-84465342D01*
X122165904Y-84465342D02*
X122118285Y-84560580D01*
X122118285Y-84560580D02*
X122070666Y-84608200D01*
X122070666Y-84608200D02*
X121975428Y-84655819D01*
X121975428Y-84655819D02*
X121689714Y-84655819D01*
X121689714Y-84655819D02*
X121594476Y-84608200D01*
X121594476Y-84608200D02*
X121546857Y-84560580D01*
X94720580Y-87161666D02*
X94768200Y-87209285D01*
X94768200Y-87209285D02*
X94815819Y-87352142D01*
X94815819Y-87352142D02*
X94815819Y-87447380D01*
X94815819Y-87447380D02*
X94768200Y-87590237D01*
X94768200Y-87590237D02*
X94672961Y-87685475D01*
X94672961Y-87685475D02*
X94577723Y-87733094D01*
X94577723Y-87733094D02*
X94387247Y-87780713D01*
X94387247Y-87780713D02*
X94244390Y-87780713D01*
X94244390Y-87780713D02*
X94053914Y-87733094D01*
X94053914Y-87733094D02*
X93958676Y-87685475D01*
X93958676Y-87685475D02*
X93863438Y-87590237D01*
X93863438Y-87590237D02*
X93815819Y-87447380D01*
X93815819Y-87447380D02*
X93815819Y-87352142D01*
X93815819Y-87352142D02*
X93863438Y-87209285D01*
X93863438Y-87209285D02*
X93911057Y-87161666D01*
X94244390Y-86590237D02*
X94196771Y-86685475D01*
X94196771Y-86685475D02*
X94149152Y-86733094D01*
X94149152Y-86733094D02*
X94053914Y-86780713D01*
X94053914Y-86780713D02*
X94006295Y-86780713D01*
X94006295Y-86780713D02*
X93911057Y-86733094D01*
X93911057Y-86733094D02*
X93863438Y-86685475D01*
X93863438Y-86685475D02*
X93815819Y-86590237D01*
X93815819Y-86590237D02*
X93815819Y-86399761D01*
X93815819Y-86399761D02*
X93863438Y-86304523D01*
X93863438Y-86304523D02*
X93911057Y-86256904D01*
X93911057Y-86256904D02*
X94006295Y-86209285D01*
X94006295Y-86209285D02*
X94053914Y-86209285D01*
X94053914Y-86209285D02*
X94149152Y-86256904D01*
X94149152Y-86256904D02*
X94196771Y-86304523D01*
X94196771Y-86304523D02*
X94244390Y-86399761D01*
X94244390Y-86399761D02*
X94244390Y-86590237D01*
X94244390Y-86590237D02*
X94292009Y-86685475D01*
X94292009Y-86685475D02*
X94339628Y-86733094D01*
X94339628Y-86733094D02*
X94434866Y-86780713D01*
X94434866Y-86780713D02*
X94625342Y-86780713D01*
X94625342Y-86780713D02*
X94720580Y-86733094D01*
X94720580Y-86733094D02*
X94768200Y-86685475D01*
X94768200Y-86685475D02*
X94815819Y-86590237D01*
X94815819Y-86590237D02*
X94815819Y-86399761D01*
X94815819Y-86399761D02*
X94768200Y-86304523D01*
X94768200Y-86304523D02*
X94720580Y-86256904D01*
X94720580Y-86256904D02*
X94625342Y-86209285D01*
X94625342Y-86209285D02*
X94434866Y-86209285D01*
X94434866Y-86209285D02*
X94339628Y-86256904D01*
X94339628Y-86256904D02*
X94292009Y-86304523D01*
X94292009Y-86304523D02*
X94244390Y-86399761D01*
X108164333Y-89608819D02*
X107831000Y-89132628D01*
X107592905Y-89608819D02*
X107592905Y-88608819D01*
X107592905Y-88608819D02*
X107973857Y-88608819D01*
X107973857Y-88608819D02*
X108069095Y-88656438D01*
X108069095Y-88656438D02*
X108116714Y-88704057D01*
X108116714Y-88704057D02*
X108164333Y-88799295D01*
X108164333Y-88799295D02*
X108164333Y-88942152D01*
X108164333Y-88942152D02*
X108116714Y-89037390D01*
X108116714Y-89037390D02*
X108069095Y-89085009D01*
X108069095Y-89085009D02*
X107973857Y-89132628D01*
X107973857Y-89132628D02*
X107592905Y-89132628D01*
X109021476Y-88608819D02*
X108831000Y-88608819D01*
X108831000Y-88608819D02*
X108735762Y-88656438D01*
X108735762Y-88656438D02*
X108688143Y-88704057D01*
X108688143Y-88704057D02*
X108592905Y-88846914D01*
X108592905Y-88846914D02*
X108545286Y-89037390D01*
X108545286Y-89037390D02*
X108545286Y-89418342D01*
X108545286Y-89418342D02*
X108592905Y-89513580D01*
X108592905Y-89513580D02*
X108640524Y-89561200D01*
X108640524Y-89561200D02*
X108735762Y-89608819D01*
X108735762Y-89608819D02*
X108926238Y-89608819D01*
X108926238Y-89608819D02*
X109021476Y-89561200D01*
X109021476Y-89561200D02*
X109069095Y-89513580D01*
X109069095Y-89513580D02*
X109116714Y-89418342D01*
X109116714Y-89418342D02*
X109116714Y-89180247D01*
X109116714Y-89180247D02*
X109069095Y-89085009D01*
X109069095Y-89085009D02*
X109021476Y-89037390D01*
X109021476Y-89037390D02*
X108926238Y-88989771D01*
X108926238Y-88989771D02*
X108735762Y-88989771D01*
X108735762Y-88989771D02*
X108640524Y-89037390D01*
X108640524Y-89037390D02*
X108592905Y-89085009D01*
X108592905Y-89085009D02*
X108545286Y-89180247D01*
X98657580Y-79922666D02*
X98705200Y-79970285D01*
X98705200Y-79970285D02*
X98752819Y-80113142D01*
X98752819Y-80113142D02*
X98752819Y-80208380D01*
X98752819Y-80208380D02*
X98705200Y-80351237D01*
X98705200Y-80351237D02*
X98609961Y-80446475D01*
X98609961Y-80446475D02*
X98514723Y-80494094D01*
X98514723Y-80494094D02*
X98324247Y-80541713D01*
X98324247Y-80541713D02*
X98181390Y-80541713D01*
X98181390Y-80541713D02*
X97990914Y-80494094D01*
X97990914Y-80494094D02*
X97895676Y-80446475D01*
X97895676Y-80446475D02*
X97800438Y-80351237D01*
X97800438Y-80351237D02*
X97752819Y-80208380D01*
X97752819Y-80208380D02*
X97752819Y-80113142D01*
X97752819Y-80113142D02*
X97800438Y-79970285D01*
X97800438Y-79970285D02*
X97848057Y-79922666D01*
X97752819Y-79065523D02*
X97752819Y-79255999D01*
X97752819Y-79255999D02*
X97800438Y-79351237D01*
X97800438Y-79351237D02*
X97848057Y-79398856D01*
X97848057Y-79398856D02*
X97990914Y-79494094D01*
X97990914Y-79494094D02*
X98181390Y-79541713D01*
X98181390Y-79541713D02*
X98562342Y-79541713D01*
X98562342Y-79541713D02*
X98657580Y-79494094D01*
X98657580Y-79494094D02*
X98705200Y-79446475D01*
X98705200Y-79446475D02*
X98752819Y-79351237D01*
X98752819Y-79351237D02*
X98752819Y-79160761D01*
X98752819Y-79160761D02*
X98705200Y-79065523D01*
X98705200Y-79065523D02*
X98657580Y-79017904D01*
X98657580Y-79017904D02*
X98562342Y-78970285D01*
X98562342Y-78970285D02*
X98324247Y-78970285D01*
X98324247Y-78970285D02*
X98229009Y-79017904D01*
X98229009Y-79017904D02*
X98181390Y-79065523D01*
X98181390Y-79065523D02*
X98133771Y-79160761D01*
X98133771Y-79160761D02*
X98133771Y-79351237D01*
X98133771Y-79351237D02*
X98181390Y-79446475D01*
X98181390Y-79446475D02*
X98229009Y-79494094D01*
X98229009Y-79494094D02*
X98324247Y-79541713D01*
X96607333Y-93672819D02*
X96274000Y-93196628D01*
X96035905Y-93672819D02*
X96035905Y-92672819D01*
X96035905Y-92672819D02*
X96416857Y-92672819D01*
X96416857Y-92672819D02*
X96512095Y-92720438D01*
X96512095Y-92720438D02*
X96559714Y-92768057D01*
X96559714Y-92768057D02*
X96607333Y-92863295D01*
X96607333Y-92863295D02*
X96607333Y-93006152D01*
X96607333Y-93006152D02*
X96559714Y-93101390D01*
X96559714Y-93101390D02*
X96512095Y-93149009D01*
X96512095Y-93149009D02*
X96416857Y-93196628D01*
X96416857Y-93196628D02*
X96035905Y-93196628D01*
X97512095Y-92672819D02*
X97035905Y-92672819D01*
X97035905Y-92672819D02*
X96988286Y-93149009D01*
X96988286Y-93149009D02*
X97035905Y-93101390D01*
X97035905Y-93101390D02*
X97131143Y-93053771D01*
X97131143Y-93053771D02*
X97369238Y-93053771D01*
X97369238Y-93053771D02*
X97464476Y-93101390D01*
X97464476Y-93101390D02*
X97512095Y-93149009D01*
X97512095Y-93149009D02*
X97559714Y-93244247D01*
X97559714Y-93244247D02*
X97559714Y-93482342D01*
X97559714Y-93482342D02*
X97512095Y-93577580D01*
X97512095Y-93577580D02*
X97464476Y-93625200D01*
X97464476Y-93625200D02*
X97369238Y-93672819D01*
X97369238Y-93672819D02*
X97131143Y-93672819D01*
X97131143Y-93672819D02*
X97035905Y-93625200D01*
X97035905Y-93625200D02*
X96988286Y-93577580D01*
X102804333Y-71225580D02*
X102756714Y-71273200D01*
X102756714Y-71273200D02*
X102613857Y-71320819D01*
X102613857Y-71320819D02*
X102518619Y-71320819D01*
X102518619Y-71320819D02*
X102375762Y-71273200D01*
X102375762Y-71273200D02*
X102280524Y-71177961D01*
X102280524Y-71177961D02*
X102232905Y-71082723D01*
X102232905Y-71082723D02*
X102185286Y-70892247D01*
X102185286Y-70892247D02*
X102185286Y-70749390D01*
X102185286Y-70749390D02*
X102232905Y-70558914D01*
X102232905Y-70558914D02*
X102280524Y-70463676D01*
X102280524Y-70463676D02*
X102375762Y-70368438D01*
X102375762Y-70368438D02*
X102518619Y-70320819D01*
X102518619Y-70320819D02*
X102613857Y-70320819D01*
X102613857Y-70320819D02*
X102756714Y-70368438D01*
X102756714Y-70368438D02*
X102804333Y-70416057D01*
X103661476Y-70654152D02*
X103661476Y-71320819D01*
X103423381Y-70273200D02*
X103185286Y-70987485D01*
X103185286Y-70987485D02*
X103804333Y-70987485D01*
X98657580Y-74461666D02*
X98705200Y-74509285D01*
X98705200Y-74509285D02*
X98752819Y-74652142D01*
X98752819Y-74652142D02*
X98752819Y-74747380D01*
X98752819Y-74747380D02*
X98705200Y-74890237D01*
X98705200Y-74890237D02*
X98609961Y-74985475D01*
X98609961Y-74985475D02*
X98514723Y-75033094D01*
X98514723Y-75033094D02*
X98324247Y-75080713D01*
X98324247Y-75080713D02*
X98181390Y-75080713D01*
X98181390Y-75080713D02*
X97990914Y-75033094D01*
X97990914Y-75033094D02*
X97895676Y-74985475D01*
X97895676Y-74985475D02*
X97800438Y-74890237D01*
X97800438Y-74890237D02*
X97752819Y-74747380D01*
X97752819Y-74747380D02*
X97752819Y-74652142D01*
X97752819Y-74652142D02*
X97800438Y-74509285D01*
X97800438Y-74509285D02*
X97848057Y-74461666D01*
X97752819Y-74128332D02*
X97752819Y-73509285D01*
X97752819Y-73509285D02*
X98133771Y-73842618D01*
X98133771Y-73842618D02*
X98133771Y-73699761D01*
X98133771Y-73699761D02*
X98181390Y-73604523D01*
X98181390Y-73604523D02*
X98229009Y-73556904D01*
X98229009Y-73556904D02*
X98324247Y-73509285D01*
X98324247Y-73509285D02*
X98562342Y-73509285D01*
X98562342Y-73509285D02*
X98657580Y-73556904D01*
X98657580Y-73556904D02*
X98705200Y-73604523D01*
X98705200Y-73604523D02*
X98752819Y-73699761D01*
X98752819Y-73699761D02*
X98752819Y-73985475D01*
X98752819Y-73985475D02*
X98705200Y-74080713D01*
X98705200Y-74080713D02*
X98657580Y-74128332D01*
X116421819Y-95240904D02*
X117231342Y-95240904D01*
X117231342Y-95240904D02*
X117326580Y-95193285D01*
X117326580Y-95193285D02*
X117374200Y-95145666D01*
X117374200Y-95145666D02*
X117421819Y-95050428D01*
X117421819Y-95050428D02*
X117421819Y-94859952D01*
X117421819Y-94859952D02*
X117374200Y-94764714D01*
X117374200Y-94764714D02*
X117326580Y-94717095D01*
X117326580Y-94717095D02*
X117231342Y-94669476D01*
X117231342Y-94669476D02*
X116421819Y-94669476D01*
X116421819Y-94288523D02*
X116421819Y-93669476D01*
X116421819Y-93669476D02*
X116802771Y-94002809D01*
X116802771Y-94002809D02*
X116802771Y-93859952D01*
X116802771Y-93859952D02*
X116850390Y-93764714D01*
X116850390Y-93764714D02*
X116898009Y-93717095D01*
X116898009Y-93717095D02*
X116993247Y-93669476D01*
X116993247Y-93669476D02*
X117231342Y-93669476D01*
X117231342Y-93669476D02*
X117326580Y-93717095D01*
X117326580Y-93717095D02*
X117374200Y-93764714D01*
X117374200Y-93764714D02*
X117421819Y-93859952D01*
X117421819Y-93859952D02*
X117421819Y-94145666D01*
X117421819Y-94145666D02*
X117374200Y-94240904D01*
X117374200Y-94240904D02*
X117326580Y-94288523D01*
X75652333Y-80083819D02*
X75319000Y-79607628D01*
X75080905Y-80083819D02*
X75080905Y-79083819D01*
X75080905Y-79083819D02*
X75461857Y-79083819D01*
X75461857Y-79083819D02*
X75557095Y-79131438D01*
X75557095Y-79131438D02*
X75604714Y-79179057D01*
X75604714Y-79179057D02*
X75652333Y-79274295D01*
X75652333Y-79274295D02*
X75652333Y-79417152D01*
X75652333Y-79417152D02*
X75604714Y-79512390D01*
X75604714Y-79512390D02*
X75557095Y-79560009D01*
X75557095Y-79560009D02*
X75461857Y-79607628D01*
X75461857Y-79607628D02*
X75080905Y-79607628D01*
X76509476Y-79417152D02*
X76509476Y-80083819D01*
X76271381Y-79036200D02*
X76033286Y-79750485D01*
X76033286Y-79750485D02*
X76652333Y-79750485D01*
X112113219Y-91111294D02*
X111113219Y-91111294D01*
X111113219Y-91111294D02*
X111113219Y-90873199D01*
X111113219Y-90873199D02*
X111160838Y-90730342D01*
X111160838Y-90730342D02*
X111256076Y-90635104D01*
X111256076Y-90635104D02*
X111351314Y-90587485D01*
X111351314Y-90587485D02*
X111541790Y-90539866D01*
X111541790Y-90539866D02*
X111684647Y-90539866D01*
X111684647Y-90539866D02*
X111875123Y-90587485D01*
X111875123Y-90587485D02*
X111970361Y-90635104D01*
X111970361Y-90635104D02*
X112065600Y-90730342D01*
X112065600Y-90730342D02*
X112113219Y-90873199D01*
X112113219Y-90873199D02*
X112113219Y-91111294D01*
X112113219Y-89587485D02*
X112113219Y-90158913D01*
X112113219Y-89873199D02*
X111113219Y-89873199D01*
X111113219Y-89873199D02*
X111256076Y-89968437D01*
X111256076Y-89968437D02*
X111351314Y-90063675D01*
X111351314Y-90063675D02*
X111398933Y-90158913D01*
X126357142Y-97006580D02*
X126309523Y-97054200D01*
X126309523Y-97054200D02*
X126166666Y-97101819D01*
X126166666Y-97101819D02*
X126071428Y-97101819D01*
X126071428Y-97101819D02*
X125928571Y-97054200D01*
X125928571Y-97054200D02*
X125833333Y-96958961D01*
X125833333Y-96958961D02*
X125785714Y-96863723D01*
X125785714Y-96863723D02*
X125738095Y-96673247D01*
X125738095Y-96673247D02*
X125738095Y-96530390D01*
X125738095Y-96530390D02*
X125785714Y-96339914D01*
X125785714Y-96339914D02*
X125833333Y-96244676D01*
X125833333Y-96244676D02*
X125928571Y-96149438D01*
X125928571Y-96149438D02*
X126071428Y-96101819D01*
X126071428Y-96101819D02*
X126166666Y-96101819D01*
X126166666Y-96101819D02*
X126309523Y-96149438D01*
X126309523Y-96149438D02*
X126357142Y-96197057D01*
X127309523Y-97101819D02*
X126738095Y-97101819D01*
X127023809Y-97101819D02*
X127023809Y-96101819D01*
X127023809Y-96101819D02*
X126928571Y-96244676D01*
X126928571Y-96244676D02*
X126833333Y-96339914D01*
X126833333Y-96339914D02*
X126738095Y-96387533D01*
X127690476Y-96197057D02*
X127738095Y-96149438D01*
X127738095Y-96149438D02*
X127833333Y-96101819D01*
X127833333Y-96101819D02*
X128071428Y-96101819D01*
X128071428Y-96101819D02*
X128166666Y-96149438D01*
X128166666Y-96149438D02*
X128214285Y-96197057D01*
X128214285Y-96197057D02*
X128261904Y-96292295D01*
X128261904Y-96292295D02*
X128261904Y-96387533D01*
X128261904Y-96387533D02*
X128214285Y-96530390D01*
X128214285Y-96530390D02*
X127642857Y-97101819D01*
X127642857Y-97101819D02*
X128261904Y-97101819D01*
X94048342Y-78743980D02*
X94000723Y-78791600D01*
X94000723Y-78791600D02*
X93857866Y-78839219D01*
X93857866Y-78839219D02*
X93762628Y-78839219D01*
X93762628Y-78839219D02*
X93619771Y-78791600D01*
X93619771Y-78791600D02*
X93524533Y-78696361D01*
X93524533Y-78696361D02*
X93476914Y-78601123D01*
X93476914Y-78601123D02*
X93429295Y-78410647D01*
X93429295Y-78410647D02*
X93429295Y-78267790D01*
X93429295Y-78267790D02*
X93476914Y-78077314D01*
X93476914Y-78077314D02*
X93524533Y-77982076D01*
X93524533Y-77982076D02*
X93619771Y-77886838D01*
X93619771Y-77886838D02*
X93762628Y-77839219D01*
X93762628Y-77839219D02*
X93857866Y-77839219D01*
X93857866Y-77839219D02*
X94000723Y-77886838D01*
X94000723Y-77886838D02*
X94048342Y-77934457D01*
X95000723Y-78839219D02*
X94429295Y-78839219D01*
X94715009Y-78839219D02*
X94715009Y-77839219D01*
X94715009Y-77839219D02*
X94619771Y-77982076D01*
X94619771Y-77982076D02*
X94524533Y-78077314D01*
X94524533Y-78077314D02*
X94429295Y-78124933D01*
X95953104Y-78839219D02*
X95381676Y-78839219D01*
X95667390Y-78839219D02*
X95667390Y-77839219D01*
X95667390Y-77839219D02*
X95572152Y-77982076D01*
X95572152Y-77982076D02*
X95476914Y-78077314D01*
X95476914Y-78077314D02*
X95381676Y-78124933D01*
X93286342Y-75391180D02*
X93238723Y-75438800D01*
X93238723Y-75438800D02*
X93095866Y-75486419D01*
X93095866Y-75486419D02*
X93000628Y-75486419D01*
X93000628Y-75486419D02*
X92857771Y-75438800D01*
X92857771Y-75438800D02*
X92762533Y-75343561D01*
X92762533Y-75343561D02*
X92714914Y-75248323D01*
X92714914Y-75248323D02*
X92667295Y-75057847D01*
X92667295Y-75057847D02*
X92667295Y-74914990D01*
X92667295Y-74914990D02*
X92714914Y-74724514D01*
X92714914Y-74724514D02*
X92762533Y-74629276D01*
X92762533Y-74629276D02*
X92857771Y-74534038D01*
X92857771Y-74534038D02*
X93000628Y-74486419D01*
X93000628Y-74486419D02*
X93095866Y-74486419D01*
X93095866Y-74486419D02*
X93238723Y-74534038D01*
X93238723Y-74534038D02*
X93286342Y-74581657D01*
X94238723Y-75486419D02*
X93667295Y-75486419D01*
X93953009Y-75486419D02*
X93953009Y-74486419D01*
X93953009Y-74486419D02*
X93857771Y-74629276D01*
X93857771Y-74629276D02*
X93762533Y-74724514D01*
X93762533Y-74724514D02*
X93667295Y-74772133D01*
X94857771Y-74486419D02*
X94953009Y-74486419D01*
X94953009Y-74486419D02*
X95048247Y-74534038D01*
X95048247Y-74534038D02*
X95095866Y-74581657D01*
X95095866Y-74581657D02*
X95143485Y-74676895D01*
X95143485Y-74676895D02*
X95191104Y-74867371D01*
X95191104Y-74867371D02*
X95191104Y-75105466D01*
X95191104Y-75105466D02*
X95143485Y-75295942D01*
X95143485Y-75295942D02*
X95095866Y-75391180D01*
X95095866Y-75391180D02*
X95048247Y-75438800D01*
X95048247Y-75438800D02*
X94953009Y-75486419D01*
X94953009Y-75486419D02*
X94857771Y-75486419D01*
X94857771Y-75486419D02*
X94762533Y-75438800D01*
X94762533Y-75438800D02*
X94714914Y-75391180D01*
X94714914Y-75391180D02*
X94667295Y-75295942D01*
X94667295Y-75295942D02*
X94619676Y-75105466D01*
X94619676Y-75105466D02*
X94619676Y-74867371D01*
X94619676Y-74867371D02*
X94667295Y-74676895D01*
X94667295Y-74676895D02*
X94714914Y-74581657D01*
X94714914Y-74581657D02*
X94762533Y-74534038D01*
X94762533Y-74534038D02*
X94857771Y-74486419D01*
X78636905Y-97355819D02*
X78636905Y-96355819D01*
X78636905Y-96355819D02*
X78875000Y-96355819D01*
X78875000Y-96355819D02*
X79017857Y-96403438D01*
X79017857Y-96403438D02*
X79113095Y-96498676D01*
X79113095Y-96498676D02*
X79160714Y-96593914D01*
X79160714Y-96593914D02*
X79208333Y-96784390D01*
X79208333Y-96784390D02*
X79208333Y-96927247D01*
X79208333Y-96927247D02*
X79160714Y-97117723D01*
X79160714Y-97117723D02*
X79113095Y-97212961D01*
X79113095Y-97212961D02*
X79017857Y-97308200D01*
X79017857Y-97308200D02*
X78875000Y-97355819D01*
X78875000Y-97355819D02*
X78636905Y-97355819D01*
X79589286Y-96451057D02*
X79636905Y-96403438D01*
X79636905Y-96403438D02*
X79732143Y-96355819D01*
X79732143Y-96355819D02*
X79970238Y-96355819D01*
X79970238Y-96355819D02*
X80065476Y-96403438D01*
X80065476Y-96403438D02*
X80113095Y-96451057D01*
X80113095Y-96451057D02*
X80160714Y-96546295D01*
X80160714Y-96546295D02*
X80160714Y-96641533D01*
X80160714Y-96641533D02*
X80113095Y-96784390D01*
X80113095Y-96784390D02*
X79541667Y-97355819D01*
X79541667Y-97355819D02*
X80160714Y-97355819D01*
X74033142Y-89386580D02*
X73985523Y-89434200D01*
X73985523Y-89434200D02*
X73842666Y-89481819D01*
X73842666Y-89481819D02*
X73747428Y-89481819D01*
X73747428Y-89481819D02*
X73604571Y-89434200D01*
X73604571Y-89434200D02*
X73509333Y-89338961D01*
X73509333Y-89338961D02*
X73461714Y-89243723D01*
X73461714Y-89243723D02*
X73414095Y-89053247D01*
X73414095Y-89053247D02*
X73414095Y-88910390D01*
X73414095Y-88910390D02*
X73461714Y-88719914D01*
X73461714Y-88719914D02*
X73509333Y-88624676D01*
X73509333Y-88624676D02*
X73604571Y-88529438D01*
X73604571Y-88529438D02*
X73747428Y-88481819D01*
X73747428Y-88481819D02*
X73842666Y-88481819D01*
X73842666Y-88481819D02*
X73985523Y-88529438D01*
X73985523Y-88529438D02*
X74033142Y-88577057D01*
X74985523Y-89481819D02*
X74414095Y-89481819D01*
X74699809Y-89481819D02*
X74699809Y-88481819D01*
X74699809Y-88481819D02*
X74604571Y-88624676D01*
X74604571Y-88624676D02*
X74509333Y-88719914D01*
X74509333Y-88719914D02*
X74414095Y-88767533D01*
X75842666Y-88815152D02*
X75842666Y-89481819D01*
X75604571Y-88434200D02*
X75366476Y-89148485D01*
X75366476Y-89148485D02*
X75985523Y-89148485D01*
X113752333Y-74781580D02*
X113704714Y-74829200D01*
X113704714Y-74829200D02*
X113561857Y-74876819D01*
X113561857Y-74876819D02*
X113466619Y-74876819D01*
X113466619Y-74876819D02*
X113323762Y-74829200D01*
X113323762Y-74829200D02*
X113228524Y-74733961D01*
X113228524Y-74733961D02*
X113180905Y-74638723D01*
X113180905Y-74638723D02*
X113133286Y-74448247D01*
X113133286Y-74448247D02*
X113133286Y-74305390D01*
X113133286Y-74305390D02*
X113180905Y-74114914D01*
X113180905Y-74114914D02*
X113228524Y-74019676D01*
X113228524Y-74019676D02*
X113323762Y-73924438D01*
X113323762Y-73924438D02*
X113466619Y-73876819D01*
X113466619Y-73876819D02*
X113561857Y-73876819D01*
X113561857Y-73876819D02*
X113704714Y-73924438D01*
X113704714Y-73924438D02*
X113752333Y-73972057D01*
X114133286Y-73972057D02*
X114180905Y-73924438D01*
X114180905Y-73924438D02*
X114276143Y-73876819D01*
X114276143Y-73876819D02*
X114514238Y-73876819D01*
X114514238Y-73876819D02*
X114609476Y-73924438D01*
X114609476Y-73924438D02*
X114657095Y-73972057D01*
X114657095Y-73972057D02*
X114704714Y-74067295D01*
X114704714Y-74067295D02*
X114704714Y-74162533D01*
X114704714Y-74162533D02*
X114657095Y-74305390D01*
X114657095Y-74305390D02*
X114085667Y-74876819D01*
X114085667Y-74876819D02*
X114704714Y-74876819D01*
X107770705Y-96771619D02*
X107770705Y-95771619D01*
X107770705Y-95771619D02*
X108008800Y-95771619D01*
X108008800Y-95771619D02*
X108151657Y-95819238D01*
X108151657Y-95819238D02*
X108246895Y-95914476D01*
X108246895Y-95914476D02*
X108294514Y-96009714D01*
X108294514Y-96009714D02*
X108342133Y-96200190D01*
X108342133Y-96200190D02*
X108342133Y-96343047D01*
X108342133Y-96343047D02*
X108294514Y-96533523D01*
X108294514Y-96533523D02*
X108246895Y-96628761D01*
X108246895Y-96628761D02*
X108151657Y-96724000D01*
X108151657Y-96724000D02*
X108008800Y-96771619D01*
X108008800Y-96771619D02*
X107770705Y-96771619D01*
X108675467Y-95771619D02*
X109294514Y-95771619D01*
X109294514Y-95771619D02*
X108961181Y-96152571D01*
X108961181Y-96152571D02*
X109104038Y-96152571D01*
X109104038Y-96152571D02*
X109199276Y-96200190D01*
X109199276Y-96200190D02*
X109246895Y-96247809D01*
X109246895Y-96247809D02*
X109294514Y-96343047D01*
X109294514Y-96343047D02*
X109294514Y-96581142D01*
X109294514Y-96581142D02*
X109246895Y-96676380D01*
X109246895Y-96676380D02*
X109199276Y-96724000D01*
X109199276Y-96724000D02*
X109104038Y-96771619D01*
X109104038Y-96771619D02*
X108818324Y-96771619D01*
X108818324Y-96771619D02*
X108723086Y-96724000D01*
X108723086Y-96724000D02*
X108675467Y-96676380D01*
X115532333Y-88492819D02*
X115199000Y-88016628D01*
X114960905Y-88492819D02*
X114960905Y-87492819D01*
X114960905Y-87492819D02*
X115341857Y-87492819D01*
X115341857Y-87492819D02*
X115437095Y-87540438D01*
X115437095Y-87540438D02*
X115484714Y-87588057D01*
X115484714Y-87588057D02*
X115532333Y-87683295D01*
X115532333Y-87683295D02*
X115532333Y-87826152D01*
X115532333Y-87826152D02*
X115484714Y-87921390D01*
X115484714Y-87921390D02*
X115437095Y-87969009D01*
X115437095Y-87969009D02*
X115341857Y-88016628D01*
X115341857Y-88016628D02*
X114960905Y-88016628D01*
X115865667Y-87492819D02*
X116484714Y-87492819D01*
X116484714Y-87492819D02*
X116151381Y-87873771D01*
X116151381Y-87873771D02*
X116294238Y-87873771D01*
X116294238Y-87873771D02*
X116389476Y-87921390D01*
X116389476Y-87921390D02*
X116437095Y-87969009D01*
X116437095Y-87969009D02*
X116484714Y-88064247D01*
X116484714Y-88064247D02*
X116484714Y-88302342D01*
X116484714Y-88302342D02*
X116437095Y-88397580D01*
X116437095Y-88397580D02*
X116389476Y-88445200D01*
X116389476Y-88445200D02*
X116294238Y-88492819D01*
X116294238Y-88492819D02*
X116008524Y-88492819D01*
X116008524Y-88492819D02*
X115913286Y-88445200D01*
X115913286Y-88445200D02*
X115865667Y-88397580D01*
X121245333Y-75765819D02*
X120912000Y-75289628D01*
X120673905Y-75765819D02*
X120673905Y-74765819D01*
X120673905Y-74765819D02*
X121054857Y-74765819D01*
X121054857Y-74765819D02*
X121150095Y-74813438D01*
X121150095Y-74813438D02*
X121197714Y-74861057D01*
X121197714Y-74861057D02*
X121245333Y-74956295D01*
X121245333Y-74956295D02*
X121245333Y-75099152D01*
X121245333Y-75099152D02*
X121197714Y-75194390D01*
X121197714Y-75194390D02*
X121150095Y-75242009D01*
X121150095Y-75242009D02*
X121054857Y-75289628D01*
X121054857Y-75289628D02*
X120673905Y-75289628D01*
X121626286Y-74861057D02*
X121673905Y-74813438D01*
X121673905Y-74813438D02*
X121769143Y-74765819D01*
X121769143Y-74765819D02*
X122007238Y-74765819D01*
X122007238Y-74765819D02*
X122102476Y-74813438D01*
X122102476Y-74813438D02*
X122150095Y-74861057D01*
X122150095Y-74861057D02*
X122197714Y-74956295D01*
X122197714Y-74956295D02*
X122197714Y-75051533D01*
X122197714Y-75051533D02*
X122150095Y-75194390D01*
X122150095Y-75194390D02*
X121578667Y-75765819D01*
X121578667Y-75765819D02*
X122197714Y-75765819D01*
X103592333Y-68018819D02*
X103259000Y-67542628D01*
X103020905Y-68018819D02*
X103020905Y-67018819D01*
X103020905Y-67018819D02*
X103401857Y-67018819D01*
X103401857Y-67018819D02*
X103497095Y-67066438D01*
X103497095Y-67066438D02*
X103544714Y-67114057D01*
X103544714Y-67114057D02*
X103592333Y-67209295D01*
X103592333Y-67209295D02*
X103592333Y-67352152D01*
X103592333Y-67352152D02*
X103544714Y-67447390D01*
X103544714Y-67447390D02*
X103497095Y-67495009D01*
X103497095Y-67495009D02*
X103401857Y-67542628D01*
X103401857Y-67542628D02*
X103020905Y-67542628D01*
X104544714Y-68018819D02*
X103973286Y-68018819D01*
X104259000Y-68018819D02*
X104259000Y-67018819D01*
X104259000Y-67018819D02*
X104163762Y-67161676D01*
X104163762Y-67161676D02*
X104068524Y-67256914D01*
X104068524Y-67256914D02*
X103973286Y-67304533D01*
X88100819Y-78736723D02*
X89100819Y-78070057D01*
X88100819Y-78070057D02*
X89100819Y-78736723D01*
X89100819Y-77165295D02*
X89100819Y-77736723D01*
X89100819Y-77451009D02*
X88100819Y-77451009D01*
X88100819Y-77451009D02*
X88243676Y-77546247D01*
X88243676Y-77546247D02*
X88338914Y-77641485D01*
X88338914Y-77641485D02*
X88386533Y-77736723D01*
X95134133Y-83620780D02*
X95086514Y-83668400D01*
X95086514Y-83668400D02*
X94943657Y-83716019D01*
X94943657Y-83716019D02*
X94848419Y-83716019D01*
X94848419Y-83716019D02*
X94705562Y-83668400D01*
X94705562Y-83668400D02*
X94610324Y-83573161D01*
X94610324Y-83573161D02*
X94562705Y-83477923D01*
X94562705Y-83477923D02*
X94515086Y-83287447D01*
X94515086Y-83287447D02*
X94515086Y-83144590D01*
X94515086Y-83144590D02*
X94562705Y-82954114D01*
X94562705Y-82954114D02*
X94610324Y-82858876D01*
X94610324Y-82858876D02*
X94705562Y-82763638D01*
X94705562Y-82763638D02*
X94848419Y-82716019D01*
X94848419Y-82716019D02*
X94943657Y-82716019D01*
X94943657Y-82716019D02*
X95086514Y-82763638D01*
X95086514Y-82763638D02*
X95134133Y-82811257D01*
X95467467Y-82716019D02*
X96134133Y-82716019D01*
X96134133Y-82716019D02*
X95705562Y-83716019D01*
X92688580Y-83072266D02*
X92736200Y-83119885D01*
X92736200Y-83119885D02*
X92783819Y-83262742D01*
X92783819Y-83262742D02*
X92783819Y-83357980D01*
X92783819Y-83357980D02*
X92736200Y-83500837D01*
X92736200Y-83500837D02*
X92640961Y-83596075D01*
X92640961Y-83596075D02*
X92545723Y-83643694D01*
X92545723Y-83643694D02*
X92355247Y-83691313D01*
X92355247Y-83691313D02*
X92212390Y-83691313D01*
X92212390Y-83691313D02*
X92021914Y-83643694D01*
X92021914Y-83643694D02*
X91926676Y-83596075D01*
X91926676Y-83596075D02*
X91831438Y-83500837D01*
X91831438Y-83500837D02*
X91783819Y-83357980D01*
X91783819Y-83357980D02*
X91783819Y-83262742D01*
X91783819Y-83262742D02*
X91831438Y-83119885D01*
X91831438Y-83119885D02*
X91879057Y-83072266D01*
X92783819Y-82596075D02*
X92783819Y-82405599D01*
X92783819Y-82405599D02*
X92736200Y-82310361D01*
X92736200Y-82310361D02*
X92688580Y-82262742D01*
X92688580Y-82262742D02*
X92545723Y-82167504D01*
X92545723Y-82167504D02*
X92355247Y-82119885D01*
X92355247Y-82119885D02*
X91974295Y-82119885D01*
X91974295Y-82119885D02*
X91879057Y-82167504D01*
X91879057Y-82167504D02*
X91831438Y-82215123D01*
X91831438Y-82215123D02*
X91783819Y-82310361D01*
X91783819Y-82310361D02*
X91783819Y-82500837D01*
X91783819Y-82500837D02*
X91831438Y-82596075D01*
X91831438Y-82596075D02*
X91879057Y-82643694D01*
X91879057Y-82643694D02*
X91974295Y-82691313D01*
X91974295Y-82691313D02*
X92212390Y-82691313D01*
X92212390Y-82691313D02*
X92307628Y-82643694D01*
X92307628Y-82643694D02*
X92355247Y-82596075D01*
X92355247Y-82596075D02*
X92402866Y-82500837D01*
X92402866Y-82500837D02*
X92402866Y-82310361D01*
X92402866Y-82310361D02*
X92355247Y-82215123D01*
X92355247Y-82215123D02*
X92307628Y-82167504D01*
X92307628Y-82167504D02*
X92212390Y-82119885D01*
X97997180Y-69711866D02*
X98044800Y-69759485D01*
X98044800Y-69759485D02*
X98092419Y-69902342D01*
X98092419Y-69902342D02*
X98092419Y-69997580D01*
X98092419Y-69997580D02*
X98044800Y-70140437D01*
X98044800Y-70140437D02*
X97949561Y-70235675D01*
X97949561Y-70235675D02*
X97854323Y-70283294D01*
X97854323Y-70283294D02*
X97663847Y-70330913D01*
X97663847Y-70330913D02*
X97520990Y-70330913D01*
X97520990Y-70330913D02*
X97330514Y-70283294D01*
X97330514Y-70283294D02*
X97235276Y-70235675D01*
X97235276Y-70235675D02*
X97140038Y-70140437D01*
X97140038Y-70140437D02*
X97092419Y-69997580D01*
X97092419Y-69997580D02*
X97092419Y-69902342D01*
X97092419Y-69902342D02*
X97140038Y-69759485D01*
X97140038Y-69759485D02*
X97187657Y-69711866D01*
X97092419Y-68807104D02*
X97092419Y-69283294D01*
X97092419Y-69283294D02*
X97568609Y-69330913D01*
X97568609Y-69330913D02*
X97520990Y-69283294D01*
X97520990Y-69283294D02*
X97473371Y-69188056D01*
X97473371Y-69188056D02*
X97473371Y-68949961D01*
X97473371Y-68949961D02*
X97520990Y-68854723D01*
X97520990Y-68854723D02*
X97568609Y-68807104D01*
X97568609Y-68807104D02*
X97663847Y-68759485D01*
X97663847Y-68759485D02*
X97901942Y-68759485D01*
X97901942Y-68759485D02*
X97997180Y-68807104D01*
X97997180Y-68807104D02*
X98044800Y-68854723D01*
X98044800Y-68854723D02*
X98092419Y-68949961D01*
X98092419Y-68949961D02*
X98092419Y-69188056D01*
X98092419Y-69188056D02*
X98044800Y-69283294D01*
X98044800Y-69283294D02*
X97997180Y-69330913D01*
X102547009Y-86431333D02*
X102547009Y-86764666D01*
X103070819Y-86764666D02*
X102070819Y-86764666D01*
X102070819Y-86764666D02*
X102070819Y-86288476D01*
X102547009Y-85574190D02*
X102594628Y-85431333D01*
X102594628Y-85431333D02*
X102642247Y-85383714D01*
X102642247Y-85383714D02*
X102737485Y-85336095D01*
X102737485Y-85336095D02*
X102880342Y-85336095D01*
X102880342Y-85336095D02*
X102975580Y-85383714D01*
X102975580Y-85383714D02*
X103023200Y-85431333D01*
X103023200Y-85431333D02*
X103070819Y-85526571D01*
X103070819Y-85526571D02*
X103070819Y-85907523D01*
X103070819Y-85907523D02*
X102070819Y-85907523D01*
X102070819Y-85907523D02*
X102070819Y-85574190D01*
X102070819Y-85574190D02*
X102118438Y-85478952D01*
X102118438Y-85478952D02*
X102166057Y-85431333D01*
X102166057Y-85431333D02*
X102261295Y-85383714D01*
X102261295Y-85383714D02*
X102356533Y-85383714D01*
X102356533Y-85383714D02*
X102451771Y-85431333D01*
X102451771Y-85431333D02*
X102499390Y-85478952D01*
X102499390Y-85478952D02*
X102547009Y-85574190D01*
X102547009Y-85574190D02*
X102547009Y-85907523D01*
X103070819Y-84383714D02*
X103070819Y-84955142D01*
X103070819Y-84669428D02*
X102070819Y-84669428D01*
X102070819Y-84669428D02*
X102213676Y-84764666D01*
X102213676Y-84764666D02*
X102308914Y-84859904D01*
X102308914Y-84859904D02*
X102356533Y-84955142D01*
D11*
%TO.C,C1*%
X108946836Y-86085000D02*
X108731164Y-86085000D01*
X108946836Y-85365000D02*
X108731164Y-85365000D01*
%TO.C,C13*%
X120642748Y-85244000D02*
X121165252Y-85244000D01*
X120642748Y-86714000D02*
X121165252Y-86714000D01*
%TO.C,C8*%
X98311580Y-86997000D02*
X98030420Y-86997000D01*
X98311580Y-85977000D02*
X98030420Y-85977000D01*
%TO.C,SW1*%
X86675000Y-63375000D02*
X85375000Y-63375000D01*
X86675000Y-62075000D02*
X86675000Y-63375000D01*
X86375000Y-56475000D02*
X86375000Y-61675000D01*
X84325000Y-62425000D02*
X74425000Y-62425000D01*
X74425000Y-55725000D02*
X84325000Y-55725000D01*
X72375000Y-61675000D02*
X72375000Y-56475000D01*
%TO.C,G\u002A\u002A\u002A*%
G36*
X96697505Y-59785764D02*
G01*
X96691623Y-59791647D01*
X96685741Y-59785764D01*
X96691623Y-59779882D01*
X96697505Y-59785764D01*
G37*
G36*
X96779858Y-60091647D02*
G01*
X96773976Y-60097529D01*
X96768094Y-60091647D01*
X96773976Y-60085764D01*
X96779858Y-60091647D01*
G37*
G36*
X95274114Y-58342948D02*
G01*
X95330560Y-58374865D01*
X95372894Y-58418980D01*
X95391923Y-58461339D01*
X95399159Y-58515065D01*
X95394749Y-58571250D01*
X95378844Y-58620987D01*
X95369258Y-58637135D01*
X95324323Y-58681267D01*
X95267708Y-58708751D01*
X95205503Y-58718123D01*
X95143794Y-58707922D01*
X95119041Y-58697214D01*
X95068054Y-58660757D01*
X95036408Y-58613937D01*
X95022232Y-58553466D01*
X95021035Y-58524862D01*
X95023618Y-58475611D01*
X95032648Y-58441185D01*
X95045646Y-58418980D01*
X95095135Y-58369417D01*
X95152387Y-58340224D01*
X95213385Y-58331401D01*
X95274114Y-58342948D01*
G37*
G36*
X95837841Y-59691515D02*
G01*
X95895963Y-59714035D01*
X95945293Y-59754370D01*
X95957686Y-59770023D01*
X95978162Y-59813563D01*
X95989153Y-59867710D01*
X95989779Y-59922762D01*
X95979158Y-59969018D01*
X95976304Y-59975054D01*
X95934773Y-60031465D01*
X95880105Y-60071232D01*
X95816831Y-60092390D01*
X95749486Y-60092969D01*
X95720018Y-60086285D01*
X95662736Y-60057751D01*
X95619541Y-60013836D01*
X95591950Y-59959052D01*
X95581483Y-59897908D01*
X95589657Y-59834916D01*
X95616089Y-59777440D01*
X95660052Y-59729772D01*
X95714954Y-59699491D01*
X95775861Y-59686703D01*
X95837841Y-59691515D01*
G37*
G36*
X97464776Y-59148985D02*
G01*
X97519587Y-59166018D01*
X97568582Y-59199599D01*
X97607956Y-59250528D01*
X97616568Y-59267630D01*
X97635937Y-59333695D01*
X97632202Y-59397662D01*
X97611591Y-59450940D01*
X97573799Y-59499153D01*
X97521831Y-59534007D01*
X97461735Y-59553575D01*
X97399555Y-59555934D01*
X97341338Y-59539158D01*
X97338708Y-59537818D01*
X97282515Y-59499006D01*
X97246621Y-59450367D01*
X97229237Y-59388888D01*
X97226917Y-59349509D01*
X97236696Y-59284048D01*
X97263495Y-59230338D01*
X97303509Y-59189176D01*
X97352931Y-59161364D01*
X97407955Y-59147700D01*
X97464776Y-59148985D01*
G37*
G36*
X96849511Y-57869088D02*
G01*
X96905445Y-57897594D01*
X96947211Y-57944744D01*
X96954157Y-57957034D01*
X96975184Y-58019422D01*
X96975461Y-58080619D01*
X96957269Y-58136785D01*
X96922890Y-58184083D01*
X96874604Y-58218673D01*
X96814694Y-58236716D01*
X96786942Y-58238437D01*
X96742873Y-58234399D01*
X96701658Y-58224523D01*
X96688308Y-58219140D01*
X96642320Y-58187561D01*
X96613302Y-58144799D01*
X96599391Y-58087352D01*
X96597505Y-58048392D01*
X96599479Y-57999147D01*
X96606563Y-57965321D01*
X96620501Y-57939043D01*
X96622265Y-57936627D01*
X96670136Y-57890814D01*
X96729832Y-57865140D01*
X96779935Y-57859520D01*
X96849511Y-57869088D01*
G37*
G36*
X96204279Y-58224392D02*
G01*
X96221480Y-58248426D01*
X96224718Y-58281856D01*
X96213010Y-58319260D01*
X96197208Y-58342796D01*
X96167511Y-58366593D01*
X96126820Y-58385617D01*
X96084228Y-58396781D01*
X96048833Y-58396996D01*
X96042767Y-58395212D01*
X96008705Y-58394180D01*
X95965304Y-58412200D01*
X95927252Y-58438440D01*
X95880273Y-58465420D01*
X95832787Y-58474757D01*
X95790348Y-58466031D01*
X95768094Y-58450470D01*
X95750193Y-58420948D01*
X95744564Y-58394000D01*
X95751761Y-58359355D01*
X95769601Y-58338369D01*
X95792460Y-58333268D01*
X95814711Y-58346280D01*
X95824777Y-58362235D01*
X95842351Y-58386252D01*
X95863805Y-58388019D01*
X95890200Y-58367384D01*
X95903834Y-58350931D01*
X95935294Y-58316948D01*
X95966814Y-58302565D01*
X96006267Y-58305188D01*
X96026432Y-58310538D01*
X96075608Y-58318299D01*
X96110598Y-58307501D01*
X96132097Y-58277812D01*
X96137732Y-58257281D01*
X96146106Y-58228455D01*
X96160117Y-58216709D01*
X96174095Y-58215176D01*
X96204279Y-58224392D01*
G37*
G36*
X94169204Y-58998207D02*
G01*
X94225075Y-59019802D01*
X94276141Y-59059902D01*
X94297180Y-59082305D01*
X94339823Y-59147642D01*
X94361365Y-59221847D01*
X94361940Y-59303653D01*
X94341683Y-59391797D01*
X94300728Y-59485012D01*
X94244795Y-59574291D01*
X94186430Y-59647442D01*
X94131222Y-59698488D01*
X94078012Y-59728452D01*
X94065348Y-59732637D01*
X94007477Y-59744735D01*
X93936310Y-59753216D01*
X93861901Y-59757330D01*
X93794307Y-59756326D01*
X93772835Y-59754484D01*
X93678495Y-59734500D01*
X93599929Y-59697304D01*
X93536363Y-59642409D01*
X93491524Y-59577806D01*
X93463732Y-59505805D01*
X93458589Y-59434509D01*
X93476172Y-59366163D01*
X93483846Y-59350329D01*
X93525717Y-59284307D01*
X93572085Y-59238977D01*
X93627520Y-59211500D01*
X93696593Y-59199038D01*
X93729809Y-59197611D01*
X93776100Y-59196291D01*
X93807023Y-59191201D01*
X93829639Y-59178340D01*
X93851009Y-59153711D01*
X93877923Y-59113729D01*
X93930225Y-59053798D01*
X93995030Y-59013399D01*
X94070154Y-58993721D01*
X94101610Y-58991921D01*
X94169204Y-58998207D01*
G37*
G36*
X96830622Y-59550545D02*
G01*
X96853275Y-59569436D01*
X96863112Y-59588135D01*
X96873263Y-59635502D01*
X96862640Y-59675497D01*
X96837991Y-59706389D01*
X96802006Y-59741571D01*
X96850437Y-59854927D01*
X96874632Y-59914731D01*
X96889764Y-59961755D01*
X96897899Y-60003955D01*
X96901102Y-60049282D01*
X96901128Y-60050196D01*
X96901457Y-60094948D01*
X96898158Y-60123627D01*
X96889376Y-60143624D01*
X96873256Y-60162329D01*
X96872887Y-60162699D01*
X96829418Y-60191518D01*
X96775373Y-60206103D01*
X96732800Y-60205652D01*
X96693382Y-60190632D01*
X96651464Y-60160044D01*
X96614406Y-60119681D01*
X96603901Y-60104242D01*
X96588812Y-60074934D01*
X96569601Y-60030743D01*
X96549435Y-59979159D01*
X96540353Y-59953990D01*
X96521765Y-59902868D01*
X96507557Y-59870123D01*
X96495267Y-59851619D01*
X96482435Y-59843220D01*
X96473308Y-59841294D01*
X96430119Y-59834798D01*
X96404100Y-59824946D01*
X96388902Y-59807670D01*
X96381284Y-59787497D01*
X96595660Y-59787497D01*
X96598013Y-59827688D01*
X96608459Y-59877965D01*
X96625348Y-59933079D01*
X96647031Y-59987779D01*
X96671860Y-60036813D01*
X96698184Y-60074932D01*
X96702717Y-60079979D01*
X96736337Y-60109980D01*
X96763506Y-60119748D01*
X96788068Y-60110206D01*
X96796665Y-60102571D01*
X96809178Y-60085126D01*
X96813861Y-60062338D01*
X96810515Y-60029450D01*
X96798937Y-59981701D01*
X96790287Y-59951738D01*
X96768225Y-59885728D01*
X96744506Y-59828724D01*
X96721109Y-59784723D01*
X96700019Y-59757721D01*
X96691207Y-59751938D01*
X96652576Y-59744780D01*
X96618387Y-59751422D01*
X96603048Y-59762644D01*
X96595660Y-59787497D01*
X96381284Y-59787497D01*
X96378699Y-59780651D01*
X96370349Y-59736549D01*
X96377358Y-59709425D01*
X96400173Y-59698056D01*
X96409153Y-59697529D01*
X96438299Y-59707034D01*
X96452587Y-59726941D01*
X96465077Y-59748501D01*
X96474278Y-59756352D01*
X96493273Y-59747858D01*
X96518991Y-59726729D01*
X96544507Y-59699494D01*
X96562748Y-59672961D01*
X96582668Y-59647052D01*
X96610415Y-59638789D01*
X96614760Y-59638705D01*
X96641817Y-59642363D01*
X96656329Y-59650470D01*
X96673093Y-59658979D01*
X96702682Y-59661918D01*
X96735114Y-59659504D01*
X96760408Y-59651950D01*
X96765741Y-59648117D01*
X96775743Y-59626995D01*
X96779858Y-59596435D01*
X96787602Y-59564674D01*
X96806627Y-59549167D01*
X96830622Y-59550545D01*
G37*
G36*
X97466539Y-55257571D02*
G01*
X97555467Y-55287796D01*
X97610758Y-55316445D01*
X97671460Y-55356116D01*
X97715777Y-55394016D01*
X97749556Y-55436081D01*
X97777261Y-55485406D01*
X97802004Y-55560182D01*
X97810219Y-55646336D01*
X97801843Y-55738437D01*
X97781185Y-55818659D01*
X97766601Y-55869588D01*
X97760352Y-55909911D01*
X97761447Y-55928083D01*
X97772056Y-55946073D01*
X97796636Y-55976879D01*
X97832164Y-56017039D01*
X97875619Y-56063094D01*
X97907327Y-56095189D01*
X98048724Y-56244226D01*
X98169900Y-56390984D01*
X98273383Y-56539187D01*
X98361703Y-56692561D01*
X98437387Y-56854829D01*
X98458345Y-56906666D01*
X98507418Y-57042207D01*
X98545981Y-57172932D01*
X98575442Y-57305423D01*
X98597207Y-57446262D01*
X98612685Y-57602031D01*
X98615610Y-57642227D01*
X98620550Y-57703429D01*
X98626324Y-57757616D01*
X98632291Y-57799716D01*
X98637811Y-57824660D01*
X98639049Y-57827626D01*
X98654787Y-57843154D01*
X98686169Y-57864757D01*
X98727475Y-57888648D01*
X98744926Y-57897711D01*
X98911428Y-57993558D01*
X99061089Y-58105444D01*
X99194677Y-58234123D01*
X99312962Y-58380349D01*
X99416713Y-58544876D01*
X99430077Y-58569330D01*
X99471854Y-58654853D01*
X99513516Y-58754066D01*
X99552999Y-58860819D01*
X99588239Y-58968963D01*
X99617174Y-59072347D01*
X99637740Y-59164822D01*
X99644799Y-59209294D01*
X99654646Y-59268882D01*
X99668619Y-59312422D01*
X99690363Y-59347392D01*
X99723526Y-59381267D01*
X99732537Y-59389161D01*
X99769239Y-59424743D01*
X99802753Y-59463901D01*
X99820226Y-59489161D01*
X99846695Y-59524279D01*
X99878440Y-59553286D01*
X99889430Y-59560277D01*
X99920675Y-59584545D01*
X99949647Y-59618774D01*
X99956505Y-59629769D01*
X99966097Y-59647780D01*
X99972930Y-59665068D01*
X99977301Y-59685607D01*
X99979508Y-59713373D01*
X99979848Y-59752342D01*
X99978619Y-59806489D01*
X99976117Y-59879789D01*
X99975821Y-59887980D01*
X99968203Y-60098270D01*
X100014536Y-60190421D01*
X100040224Y-60245041D01*
X100065111Y-60303850D01*
X100084284Y-60355161D01*
X100086057Y-60360536D01*
X100111244Y-60438498D01*
X100210053Y-60484802D01*
X100287019Y-60526730D01*
X100353248Y-60574185D01*
X100371646Y-60590484D01*
X100434430Y-60649862D01*
X100610085Y-60684871D01*
X100754528Y-60715918D01*
X100876331Y-60747053D01*
X100976382Y-60778579D01*
X101055569Y-60810797D01*
X101114781Y-60844011D01*
X101142741Y-60866056D01*
X101175263Y-60904807D01*
X101197021Y-60947640D01*
X101203388Y-60979766D01*
X101193719Y-61021262D01*
X101167505Y-61068715D01*
X101128932Y-61116956D01*
X101082187Y-61160816D01*
X101031459Y-61195125D01*
X101027037Y-61197467D01*
X100997415Y-61211480D01*
X100948737Y-61232944D01*
X100883843Y-61260702D01*
X100805575Y-61293596D01*
X100716775Y-61330467D01*
X100620282Y-61370158D01*
X100518939Y-61411510D01*
X100415587Y-61453366D01*
X100313066Y-61494568D01*
X100214219Y-61533956D01*
X100121886Y-61570375D01*
X100038908Y-61602664D01*
X99968126Y-61629668D01*
X99949885Y-61636494D01*
X99681761Y-61732258D01*
X99416948Y-61818960D01*
X99158470Y-61895762D01*
X98909348Y-61961827D01*
X98672605Y-62016319D01*
X98451263Y-62058401D01*
X98391623Y-62067975D01*
X98324234Y-62077343D01*
X98257368Y-62084387D01*
X98188384Y-62089060D01*
X98114647Y-62091316D01*
X98033516Y-62091108D01*
X97942356Y-62088389D01*
X97838526Y-62083112D01*
X97719391Y-62075230D01*
X97582310Y-62064697D01*
X97424647Y-62051466D01*
X97415152Y-62050644D01*
X97280397Y-62038959D01*
X97130734Y-62025977D01*
X96972659Y-62012262D01*
X96812669Y-61998378D01*
X96657260Y-61984889D01*
X96512929Y-61972358D01*
X96397505Y-61962333D01*
X96201340Y-61945026D01*
X96026216Y-61928956D01*
X95869696Y-61913819D01*
X95729342Y-61899312D01*
X95602718Y-61885134D01*
X95487385Y-61870982D01*
X95380906Y-61856552D01*
X95280844Y-61841544D01*
X95184761Y-61825653D01*
X95090220Y-61808578D01*
X94994782Y-61790015D01*
X94971727Y-61785357D01*
X94844230Y-61758239D01*
X94737645Y-61732853D01*
X94649483Y-61708484D01*
X94577256Y-61684414D01*
X94518474Y-61659927D01*
X94494466Y-61647901D01*
X94425511Y-61603854D01*
X94379971Y-61557591D01*
X94357821Y-61508939D01*
X94358686Y-61472528D01*
X94442406Y-61472528D01*
X94446316Y-61503438D01*
X94472807Y-61534683D01*
X94520936Y-61565998D01*
X94589762Y-61597117D01*
X94678343Y-61627776D01*
X94785738Y-61657708D01*
X94911005Y-61686649D01*
X95053202Y-61714332D01*
X95211389Y-61740494D01*
X95384622Y-61764867D01*
X95550447Y-61784814D01*
X95704703Y-61801638D01*
X95876964Y-61819784D01*
X96062984Y-61838843D01*
X96258518Y-61858407D01*
X96459322Y-61878069D01*
X96661153Y-61897419D01*
X96859764Y-61916051D01*
X97050912Y-61933556D01*
X97230351Y-61949527D01*
X97393839Y-61963554D01*
X97503388Y-61972551D01*
X97606760Y-61979398D01*
X97721786Y-61984553D01*
X97843235Y-61987973D01*
X97965880Y-61989615D01*
X98084491Y-61989435D01*
X98193839Y-61987392D01*
X98288697Y-61983442D01*
X98344564Y-61979441D01*
X98465202Y-61966225D01*
X98588757Y-61947669D01*
X98717841Y-61923133D01*
X98855065Y-61891977D01*
X99003043Y-61853561D01*
X99164387Y-61807246D01*
X99341708Y-61752392D01*
X99537619Y-61688358D01*
X99550447Y-61684068D01*
X99652757Y-61649028D01*
X99764976Y-61609210D01*
X99884630Y-61565593D01*
X100009250Y-61519157D01*
X100136364Y-61470881D01*
X100263502Y-61421745D01*
X100388192Y-61372728D01*
X100507963Y-61324811D01*
X100620345Y-61278972D01*
X100722866Y-61236192D01*
X100813056Y-61197449D01*
X100888443Y-61163724D01*
X100946556Y-61135996D01*
X100984210Y-61115680D01*
X101044093Y-61075315D01*
X101082498Y-61039328D01*
X101100680Y-61006025D01*
X101099895Y-60973713D01*
X101096348Y-60964393D01*
X101072370Y-60935900D01*
X101027040Y-60906316D01*
X100962457Y-60876497D01*
X100880717Y-60847301D01*
X100783918Y-60819584D01*
X100685741Y-60796629D01*
X100630096Y-60784815D01*
X100581206Y-60774388D01*
X100544669Y-60766546D01*
X100526917Y-60762673D01*
X100516320Y-60761653D01*
X100509496Y-60767021D01*
X100505619Y-60782806D01*
X100503862Y-60813041D01*
X100503398Y-60861754D01*
X100503388Y-60877455D01*
X100502587Y-60936312D01*
X100499460Y-60978548D01*
X100492920Y-61011036D01*
X100481881Y-61040651D01*
X100475432Y-61054312D01*
X100433209Y-61115857D01*
X100371325Y-61168298D01*
X100289179Y-61211936D01*
X100186173Y-61247077D01*
X100061705Y-61274024D01*
X100032075Y-61278778D01*
X99793263Y-61313427D01*
X99557058Y-61344633D01*
X99327415Y-61371954D01*
X99108294Y-61394951D01*
X98903650Y-61413182D01*
X98717441Y-61426207D01*
X98698165Y-61427308D01*
X98619237Y-61431966D01*
X98539441Y-61437131D01*
X98465326Y-61442348D01*
X98403442Y-61447162D01*
X98370127Y-61450123D01*
X98316872Y-61455945D01*
X98279783Y-61462656D01*
X98251548Y-61472699D01*
X98224854Y-61488514D01*
X98199538Y-61507082D01*
X98125792Y-61553195D01*
X98040188Y-61587507D01*
X97940486Y-61610492D01*
X97824446Y-61622626D01*
X97689827Y-61624381D01*
X97651486Y-61623196D01*
X97544009Y-61617377D01*
X97456011Y-61608409D01*
X97383532Y-61595207D01*
X97322610Y-61576682D01*
X97269286Y-61551750D01*
X97219599Y-61519322D01*
X97191203Y-61496916D01*
X97137842Y-61452501D01*
X96923840Y-61451020D01*
X96847140Y-61450689D01*
X96790551Y-61451107D01*
X96750658Y-61452562D01*
X96724047Y-61455343D01*
X96707301Y-61459740D01*
X96697008Y-61466042D01*
X96692723Y-61470593D01*
X96673769Y-61493871D01*
X96649755Y-61523316D01*
X96646378Y-61527453D01*
X96600985Y-61567993D01*
X96536140Y-61601762D01*
X96451109Y-61628969D01*
X96345156Y-61649818D01*
X96217543Y-61664518D01*
X96138664Y-61670011D01*
X96054346Y-61671803D01*
X95960323Y-61668926D01*
X95864014Y-61661987D01*
X95772843Y-61651588D01*
X95694229Y-61638335D01*
X95663890Y-61631333D01*
X95587491Y-61604394D01*
X95530140Y-61566767D01*
X95489914Y-61515989D01*
X95464892Y-61449597D01*
X95453151Y-61365126D01*
X95452905Y-61360865D01*
X95447661Y-61265377D01*
X95374626Y-61258557D01*
X95274077Y-61238293D01*
X95176763Y-61198095D01*
X95125237Y-61166961D01*
X95105709Y-61153583D01*
X95089153Y-61144357D01*
X95072099Y-61139886D01*
X95051078Y-61140770D01*
X95022620Y-61147611D01*
X94983254Y-61161010D01*
X94929512Y-61181571D01*
X94857923Y-61209892D01*
X94842634Y-61215956D01*
X94727173Y-61263877D01*
X94633321Y-61307762D01*
X94559682Y-61348505D01*
X94504858Y-61387002D01*
X94467452Y-61424150D01*
X94446067Y-61460844D01*
X94442406Y-61472528D01*
X94358686Y-61472528D01*
X94359037Y-61457724D01*
X94383592Y-61403771D01*
X94431462Y-61346907D01*
X94448573Y-61330860D01*
X94486132Y-61302289D01*
X94540569Y-61267679D01*
X94606877Y-61229636D01*
X94680049Y-61190766D01*
X94755079Y-61153677D01*
X94826962Y-61120974D01*
X94890691Y-61095264D01*
X94921035Y-61084867D01*
X94962976Y-61071651D01*
X94995154Y-61061270D01*
X95011892Y-61055562D01*
X95012982Y-61055092D01*
X95010026Y-61044357D01*
X94998693Y-61018427D01*
X94981979Y-60984014D01*
X94951833Y-60920006D01*
X94928931Y-60859861D01*
X94912085Y-60798154D01*
X94900108Y-60729460D01*
X94891814Y-60648357D01*
X94886015Y-60549419D01*
X94885799Y-60544588D01*
X94881695Y-60462987D01*
X94877147Y-60400036D01*
X94871529Y-60350858D01*
X94864215Y-60310573D01*
X94854579Y-60274304D01*
X94848868Y-60256658D01*
X94834094Y-60214540D01*
X94822270Y-60189465D01*
X94808822Y-60176182D01*
X94789176Y-60169438D01*
X94769820Y-60165888D01*
X94758213Y-60162235D01*
X94920243Y-60162235D01*
X94945138Y-60256352D01*
X94957623Y-60311666D01*
X94965371Y-60368508D01*
X94969195Y-60434761D01*
X94969975Y-60497529D01*
X94975375Y-60631956D01*
X94992252Y-60748007D01*
X95021452Y-60848296D01*
X95063820Y-60935438D01*
X95120200Y-61012047D01*
X95144792Y-61038257D01*
X95210710Y-61093077D01*
X95282255Y-61129788D01*
X95361161Y-61148461D01*
X95449159Y-61149165D01*
X95547984Y-61131969D01*
X95659368Y-61096943D01*
X95744564Y-61062366D01*
X95805859Y-61037116D01*
X95875202Y-61010991D01*
X95945287Y-60986536D01*
X96008809Y-60966294D01*
X96058462Y-60952809D01*
X96060533Y-60952339D01*
X96098768Y-60951370D01*
X96128606Y-60964371D01*
X96143789Y-60988107D01*
X96144564Y-60995797D01*
X96141342Y-61018050D01*
X96128836Y-61034695D01*
X96102790Y-61048784D01*
X96058945Y-61063370D01*
X96044564Y-61067490D01*
X96009103Y-61078710D01*
X95958165Y-61096427D01*
X95896972Y-61118658D01*
X95830750Y-61143420D01*
X95764720Y-61168730D01*
X95704108Y-61192606D01*
X95654136Y-61213064D01*
X95620028Y-61228121D01*
X95615323Y-61230436D01*
X95580352Y-61260988D01*
X95560846Y-61308992D01*
X95556502Y-61354574D01*
X95561561Y-61408161D01*
X95578521Y-61451660D01*
X95609463Y-61486473D01*
X95656462Y-61514002D01*
X95721597Y-61535647D01*
X95806946Y-61552809D01*
X95862211Y-61560712D01*
X95899935Y-61563183D01*
X95955646Y-61563840D01*
X96023893Y-61562908D01*
X96099224Y-61560615D01*
X96176184Y-61557189D01*
X96249322Y-61552855D01*
X96313186Y-61547841D01*
X96362323Y-61542374D01*
X96381969Y-61539076D01*
X96466271Y-61515460D01*
X96530249Y-61483674D01*
X96576038Y-61442577D01*
X96585340Y-61430057D01*
X96601295Y-61402983D01*
X96610376Y-61375223D01*
X96614385Y-61338702D01*
X96615152Y-61296538D01*
X96613794Y-61245640D01*
X96608651Y-61210433D01*
X96598125Y-61183181D01*
X96588402Y-61167196D01*
X96546014Y-61119705D01*
X96489731Y-61084768D01*
X96415549Y-61059972D01*
X96407016Y-61057963D01*
X96352616Y-61042182D01*
X96320450Y-61023922D01*
X96309246Y-61001688D01*
X96317730Y-60973980D01*
X96325519Y-60962157D01*
X96335410Y-60951253D01*
X96348640Y-60945921D01*
X96370883Y-60945741D01*
X96407816Y-60950290D01*
X96433228Y-60954153D01*
X96516788Y-60973605D01*
X96578743Y-61001286D01*
X96633429Y-61045550D01*
X96677882Y-61102715D01*
X96707175Y-61165576D01*
X96715150Y-61200793D01*
X96723220Y-61259044D01*
X96730804Y-61298202D01*
X96739972Y-61322564D01*
X96752792Y-61336427D01*
X96771333Y-61344089D01*
X96785754Y-61347432D01*
X96816967Y-61351148D01*
X96864404Y-61353530D01*
X96920786Y-61354317D01*
X96961891Y-61353772D01*
X97091623Y-61350470D01*
X97098115Y-61250470D01*
X97113549Y-61154711D01*
X97147056Y-61073431D01*
X97199592Y-61005247D01*
X97272116Y-60948776D01*
X97327579Y-60919022D01*
X97385422Y-60897452D01*
X97445087Y-60884547D01*
X97501900Y-60880271D01*
X97551187Y-60884590D01*
X97588275Y-60897469D01*
X97608489Y-60918876D01*
X97609279Y-60921086D01*
X97615024Y-60949445D01*
X97609132Y-60969470D01*
X97588569Y-60983305D01*
X97550297Y-60993095D01*
X97497055Y-61000348D01*
X97400524Y-61018301D01*
X97323812Y-61048577D01*
X97266497Y-61091500D01*
X97228158Y-61147395D01*
X97208373Y-61216586D01*
X97207544Y-61222999D01*
X97204849Y-61294064D01*
X97216438Y-61349796D01*
X97243361Y-61394319D01*
X97254014Y-61405555D01*
X97313146Y-61449421D01*
X97389503Y-61482569D01*
X97484213Y-61505292D01*
X97598405Y-61517882D01*
X97699412Y-61520854D01*
X97820676Y-61517439D01*
X97922624Y-61506129D01*
X98008454Y-61485873D01*
X98081361Y-61455617D01*
X98144544Y-61414310D01*
X98201198Y-61360900D01*
X98207833Y-61353488D01*
X98246771Y-61313068D01*
X98277057Y-61291950D01*
X98301981Y-61289163D01*
X98324830Y-61303736D01*
X98335383Y-61315788D01*
X98347215Y-61329568D01*
X98359865Y-61337966D01*
X98378629Y-61341864D01*
X98408806Y-61342147D01*
X98455691Y-61339700D01*
X98472370Y-61338656D01*
X98741352Y-61320178D01*
X98991938Y-61299882D01*
X99222811Y-61277893D01*
X99432657Y-61254336D01*
X99597505Y-61232602D01*
X99653486Y-61224816D01*
X99724609Y-61215216D01*
X99802669Y-61204893D01*
X99879459Y-61194942D01*
X99897505Y-61192639D01*
X100027808Y-61173065D01*
X100136150Y-61149825D01*
X100223931Y-61122077D01*
X100292549Y-61088981D01*
X100343405Y-61049694D01*
X100377896Y-61003373D01*
X100397422Y-60949179D01*
X100403388Y-60888238D01*
X100392225Y-60804481D01*
X100359871Y-60728082D01*
X100308030Y-60660968D01*
X100238406Y-60605066D01*
X100152703Y-60562301D01*
X100100218Y-60545318D01*
X100067440Y-60533316D01*
X100043477Y-60514815D01*
X100024975Y-60485134D01*
X100008577Y-60439590D01*
X99998539Y-60403411D01*
X99982171Y-60350310D01*
X99961225Y-60294607D01*
X99946841Y-60262235D01*
X99931175Y-60230642D01*
X99918096Y-60211631D01*
X99901728Y-60202959D01*
X99876196Y-60202387D01*
X99835625Y-60207672D01*
X99812747Y-60211091D01*
X99779170Y-60212412D01*
X99755238Y-60201208D01*
X99742159Y-60188738D01*
X99711324Y-60159578D01*
X99681794Y-60142990D01*
X99646706Y-60137231D01*
X99599198Y-60140558D01*
X99569621Y-60144927D01*
X99505582Y-60151933D01*
X99441978Y-60151208D01*
X99373338Y-60142047D01*
X99294189Y-60123741D01*
X99206693Y-60097997D01*
X99141393Y-60079241D01*
X99093525Y-60070709D01*
X99059116Y-60072849D01*
X99034195Y-60086108D01*
X99014792Y-60110935D01*
X99009712Y-60120204D01*
X98982377Y-60158157D01*
X98951780Y-60173346D01*
X98918660Y-60165439D01*
X98914364Y-60162800D01*
X98894085Y-60145449D01*
X98887852Y-60125811D01*
X98896203Y-60099195D01*
X98919678Y-60060912D01*
X98927341Y-60049867D01*
X99001078Y-59925651D01*
X99052301Y-59794809D01*
X99081018Y-59657282D01*
X99087233Y-59513012D01*
X99070953Y-59361940D01*
X99032182Y-59204008D01*
X99013492Y-59147643D01*
X98991641Y-59089249D01*
X98967149Y-59029479D01*
X98941919Y-58972361D01*
X98917856Y-58921920D01*
X98896864Y-58882181D01*
X98880849Y-58857170D01*
X98872896Y-58850470D01*
X98858675Y-58857158D01*
X98831077Y-58874960D01*
X98795248Y-58900486D01*
X98782611Y-58909940D01*
X98673133Y-58982916D01*
X98564326Y-59036194D01*
X98457929Y-59069382D01*
X98355678Y-59082090D01*
X98259311Y-59073924D01*
X98175714Y-59046897D01*
X98099845Y-59001929D01*
X98044434Y-58945501D01*
X98008979Y-58876845D01*
X97992977Y-58795192D01*
X97992812Y-58790761D01*
X98093928Y-58790761D01*
X98110439Y-58851579D01*
X98145297Y-58903535D01*
X98196045Y-58943969D01*
X98260224Y-58970220D01*
X98334501Y-58979623D01*
X98421472Y-58969965D01*
X98514743Y-58942011D01*
X98609592Y-58898253D01*
X98701294Y-58841183D01*
X98785127Y-58773291D01*
X98845857Y-58709903D01*
X98870026Y-58686817D01*
X98892079Y-58674587D01*
X98896198Y-58674000D01*
X98925064Y-58684139D01*
X98942610Y-58708974D01*
X98944564Y-58721765D01*
X98949440Y-58738896D01*
X98962853Y-58772861D01*
X98982983Y-58819368D01*
X99008008Y-58874125D01*
X99019671Y-58898824D01*
X99078065Y-59027991D01*
X99122905Y-59143473D01*
X99155416Y-59249888D01*
X99176829Y-59351855D01*
X99188370Y-59453995D01*
X99191336Y-59544588D01*
X99187665Y-59637337D01*
X99177191Y-59728084D01*
X99160977Y-59810819D01*
X99140082Y-59879534D01*
X99126989Y-59909155D01*
X99112080Y-59943612D01*
X99111987Y-59962398D01*
X99126701Y-59968117D01*
X99126813Y-59968117D01*
X99145920Y-59971762D01*
X99180272Y-59981390D01*
X99222966Y-59995041D01*
X99229754Y-59997346D01*
X99298536Y-60019935D01*
X99352733Y-60034820D01*
X99399522Y-60043250D01*
X99446078Y-60046470D01*
X99499578Y-60045729D01*
X99506513Y-60045446D01*
X99567804Y-60040630D01*
X99615288Y-60030906D01*
X99658515Y-60014195D01*
X99665337Y-60010901D01*
X99705933Y-59986163D01*
X99740232Y-59957106D01*
X99752884Y-59941963D01*
X99778901Y-59886877D01*
X99795236Y-59818040D01*
X99801415Y-59743349D01*
X99796966Y-59670702D01*
X99781414Y-59607996D01*
X99773911Y-59591115D01*
X99756617Y-59564655D01*
X99727638Y-59527672D01*
X99691911Y-59486294D01*
X99673011Y-59465822D01*
X99616313Y-59397967D01*
X99579487Y-59333676D01*
X99560357Y-59268291D01*
X99556314Y-59215982D01*
X99553525Y-59186497D01*
X99546041Y-59141534D01*
X99535164Y-59088366D01*
X99527745Y-59056352D01*
X99469407Y-58860034D01*
X99393337Y-58678134D01*
X99299911Y-58511262D01*
X99189502Y-58360028D01*
X99062485Y-58225042D01*
X98967231Y-58143168D01*
X98920393Y-58108057D01*
X98866575Y-58070565D01*
X98809808Y-58033178D01*
X98754119Y-57998379D01*
X98703539Y-57968654D01*
X98662094Y-57946485D01*
X98633815Y-57934359D01*
X98626124Y-57932834D01*
X98610478Y-57944457D01*
X98593814Y-57978898D01*
X98586460Y-58000470D01*
X98557235Y-58081170D01*
X98520753Y-58157251D01*
X98474489Y-58232494D01*
X98415918Y-58310679D01*
X98342514Y-58395586D01*
X98273769Y-58468466D01*
X98217375Y-58527549D01*
X98175483Y-58574372D01*
X98145447Y-58612785D01*
X98124618Y-58646638D01*
X98110348Y-58679782D01*
X98099991Y-58716065D01*
X98098222Y-58723744D01*
X98093928Y-58790761D01*
X97992812Y-58790761D01*
X97991881Y-58765703D01*
X97991623Y-58686819D01*
X97917826Y-58714596D01*
X97841642Y-58738785D01*
X97745101Y-58762072D01*
X97631372Y-58783874D01*
X97503624Y-58803608D01*
X97365029Y-58820691D01*
X97309270Y-58826455D01*
X97164573Y-58840927D01*
X97040282Y-58854055D01*
X96933341Y-58866225D01*
X96840689Y-58877826D01*
X96759269Y-58889244D01*
X96686022Y-58900868D01*
X96617890Y-58913083D01*
X96603388Y-58915868D01*
X96422223Y-58957222D01*
X96245533Y-59009479D01*
X96078444Y-59070826D01*
X95926081Y-59139449D01*
X95838682Y-59186340D01*
X95716984Y-59255377D01*
X95610931Y-59312601D01*
X95516841Y-59359623D01*
X95431034Y-59398054D01*
X95349830Y-59429505D01*
X95269546Y-59455586D01*
X95186503Y-59477908D01*
X95155672Y-59485230D01*
X95043251Y-59511138D01*
X95077258Y-59577863D01*
X95091153Y-59606097D01*
X95100489Y-59630015D01*
X95106006Y-59655106D01*
X95108444Y-59686857D01*
X95108545Y-59730755D01*
X95107048Y-59792287D01*
X95106899Y-59797529D01*
X95104521Y-59863425D01*
X95101192Y-59911272D01*
X95096051Y-59946553D01*
X95088234Y-59974749D01*
X95076879Y-60001342D01*
X95073860Y-60007443D01*
X95028495Y-60074747D01*
X94963897Y-60132764D01*
X94946831Y-60144588D01*
X94920243Y-60162235D01*
X94758213Y-60162235D01*
X94694979Y-60142334D01*
X94633731Y-60100001D01*
X94587551Y-60039922D01*
X94586354Y-60037746D01*
X94569055Y-60002100D01*
X94557993Y-59967078D01*
X94551304Y-59924584D01*
X94547185Y-59867748D01*
X94547131Y-59863861D01*
X94629748Y-59863861D01*
X94640394Y-59939261D01*
X94662782Y-59999915D01*
X94696087Y-60043341D01*
X94726917Y-60062776D01*
X94772815Y-60072169D01*
X94828118Y-60069627D01*
X94882396Y-60055874D01*
X94893647Y-60051198D01*
X94928991Y-60031589D01*
X94954642Y-60006833D01*
X94973692Y-59971880D01*
X94989230Y-59921687D01*
X94998646Y-59879786D01*
X95011479Y-59783149D01*
X95007631Y-59699773D01*
X94987407Y-59630826D01*
X94951112Y-59577478D01*
X94911824Y-59547437D01*
X94858595Y-59525478D01*
X94808655Y-59523803D01*
X94764775Y-59537189D01*
X94711811Y-59571031D01*
X94672288Y-59622219D01*
X94645632Y-59691781D01*
X94631671Y-59776202D01*
X94629748Y-59863861D01*
X94547131Y-59863861D01*
X94546158Y-59794291D01*
X94550632Y-59729778D01*
X94556414Y-59696058D01*
X94572311Y-59643344D01*
X94594720Y-59587406D01*
X94619893Y-59536514D01*
X94644085Y-59498939D01*
X94647630Y-59494697D01*
X94657682Y-59479678D01*
X94653370Y-59466791D01*
X94632105Y-59448517D01*
X94631583Y-59448116D01*
X94555654Y-59377759D01*
X94490746Y-59293717D01*
X94456403Y-59232823D01*
X94428575Y-59167839D01*
X94409365Y-59104479D01*
X94397859Y-59036906D01*
X94393146Y-58959283D01*
X94394313Y-58865774D01*
X94395297Y-58841849D01*
X94397918Y-58774976D01*
X94398480Y-58726035D01*
X94396571Y-58689490D01*
X94391776Y-58659801D01*
X94383682Y-58631431D01*
X94378466Y-58616552D01*
X94318218Y-58443906D01*
X94269356Y-58287607D01*
X94231087Y-58143870D01*
X94202620Y-58008907D01*
X94183162Y-57878935D01*
X94171921Y-57750166D01*
X94168104Y-57618816D01*
X94168094Y-57611342D01*
X94168197Y-57606012D01*
X94262211Y-57606012D01*
X94272692Y-57821452D01*
X94304303Y-58041036D01*
X94357296Y-58265935D01*
X94431923Y-58497324D01*
X94480842Y-58624245D01*
X94489543Y-58648202D01*
X94494417Y-58671392D01*
X94495615Y-58699497D01*
X94493287Y-58738194D01*
X94487582Y-58793164D01*
X94485732Y-58809368D01*
X94479073Y-58872820D01*
X94476160Y-58920779D01*
X94477093Y-58960994D01*
X94481974Y-59001216D01*
X94488698Y-59038157D01*
X94517389Y-59147885D01*
X94556897Y-59237802D01*
X94608200Y-59308515D01*
X94672276Y-59360628D01*
X94750104Y-59394748D01*
X94842663Y-59411478D01*
X94950930Y-59411426D01*
X95067959Y-59396604D01*
X95206993Y-59364774D01*
X95349938Y-59316822D01*
X95499639Y-59251625D01*
X95658943Y-59168058D01*
X95685741Y-59152776D01*
X95842591Y-59067021D01*
X95991302Y-58996017D01*
X96139185Y-58936770D01*
X96293553Y-58886283D01*
X96421035Y-58851595D01*
X96490240Y-58834655D01*
X96555027Y-58820085D01*
X96619133Y-58807312D01*
X96686293Y-58795762D01*
X96760242Y-58784862D01*
X96844715Y-58774037D01*
X96943449Y-58762714D01*
X97060178Y-58750320D01*
X97121035Y-58744092D01*
X97286360Y-58726515D01*
X97430475Y-58709189D01*
X97555683Y-58691434D01*
X97664286Y-58672572D01*
X97758584Y-58651923D01*
X97840879Y-58628806D01*
X97913474Y-58602543D01*
X97978670Y-58572454D01*
X98038769Y-58537859D01*
X98096071Y-58498079D01*
X98152880Y-58452433D01*
X98175586Y-58432730D01*
X98280182Y-58326200D01*
X98368728Y-58206817D01*
X98439735Y-58077743D01*
X98491713Y-57942135D01*
X98523172Y-57803154D01*
X98532711Y-57675432D01*
X98523532Y-57526507D01*
X98497208Y-57366920D01*
X98455226Y-57200384D01*
X98399070Y-57030609D01*
X98330225Y-56861308D01*
X98250176Y-56696191D01*
X98160409Y-56538971D01*
X98062409Y-56393358D01*
X97975932Y-56284034D01*
X97931203Y-56234671D01*
X97880895Y-56183809D01*
X97828708Y-56134712D01*
X97778340Y-56090641D01*
X97733490Y-56054861D01*
X97697857Y-56030634D01*
X97678636Y-56021803D01*
X97640099Y-56023927D01*
X97609976Y-56038269D01*
X97559839Y-56057151D01*
X97494650Y-56063325D01*
X97418750Y-56057407D01*
X97336481Y-56040011D01*
X97252185Y-56011753D01*
X97177084Y-55976961D01*
X97088076Y-55922798D01*
X97014141Y-55863909D01*
X96958149Y-55802894D01*
X96925752Y-55748964D01*
X96898686Y-55687763D01*
X96818684Y-55677940D01*
X96782922Y-55675059D01*
X96728432Y-55672587D01*
X96660012Y-55670651D01*
X96582460Y-55669377D01*
X96500577Y-55668889D01*
X96473976Y-55668920D01*
X96376749Y-55669650D01*
X96297997Y-55671399D01*
X96232676Y-55674488D01*
X96175743Y-55679239D01*
X96122154Y-55685973D01*
X96068094Y-55694794D01*
X95850906Y-55742671D01*
X95644889Y-55807766D01*
X95446451Y-55891598D01*
X95251999Y-55995686D01*
X95057942Y-56121550D01*
X95056329Y-56122686D01*
X94989473Y-56173984D01*
X94914534Y-56238508D01*
X94835690Y-56312036D01*
X94757115Y-56390344D01*
X94682985Y-56469209D01*
X94617476Y-56544409D01*
X94564764Y-56611721D01*
X94546072Y-56638705D01*
X94448529Y-56803967D01*
X94372505Y-56970783D01*
X94317055Y-57142379D01*
X94281231Y-57321981D01*
X94264086Y-57512816D01*
X94262211Y-57606012D01*
X94168197Y-57606012D01*
X94169587Y-57534250D01*
X94173648Y-57449781D01*
X94179648Y-57368378D01*
X94186636Y-57302923D01*
X94196817Y-57209123D01*
X94199221Y-57132251D01*
X94192817Y-57066695D01*
X94176574Y-57006839D01*
X94149462Y-56947071D01*
X94110448Y-56881778D01*
X94108822Y-56879273D01*
X94065915Y-56795126D01*
X94046534Y-56710716D01*
X94050680Y-56626078D01*
X94078354Y-56541246D01*
X94100657Y-56499363D01*
X94155587Y-56425629D01*
X94225080Y-56365298D01*
X94309270Y-56316655D01*
X94348482Y-56298923D01*
X94381482Y-56287998D01*
X94416521Y-56282268D01*
X94461854Y-56280121D01*
X94497505Y-56279882D01*
X94551851Y-56280905D01*
X94602056Y-56283641D01*
X94640145Y-56287587D01*
X94650821Y-56289533D01*
X94668360Y-56292702D01*
X94684324Y-56291671D01*
X94702535Y-56284299D01*
X94726820Y-56268441D01*
X94761002Y-56241953D01*
X94808905Y-56202692D01*
X94815527Y-56197211D01*
X95022341Y-56039361D01*
X95233857Y-55904522D01*
X95450418Y-55792582D01*
X95672371Y-55703431D01*
X95900061Y-55636955D01*
X96133832Y-55593044D01*
X96374030Y-55571587D01*
X96621001Y-55572470D01*
X96726082Y-55579413D01*
X96797142Y-55585247D01*
X96848842Y-55588061D01*
X96885293Y-55586500D01*
X96910606Y-55579209D01*
X96928892Y-55564835D01*
X96944261Y-55542023D01*
X96960825Y-55509418D01*
X96965104Y-55500661D01*
X97001061Y-55441930D01*
X97049033Y-55383850D01*
X97102726Y-55332960D01*
X97155847Y-55295797D01*
X97168648Y-55289255D01*
X97211309Y-55272779D01*
X97262969Y-55257402D01*
X97294285Y-55250165D01*
X97377345Y-55244581D01*
X97466539Y-55257571D01*
G37*
%TO.C,R6*%
X105952936Y-90149000D02*
X107407064Y-90149000D01*
X105952936Y-91969000D02*
X107407064Y-91969000D01*
%TO.C,J1*%
X125382000Y-85384000D02*
X125382000Y-72064000D01*
X125162000Y-83124000D02*
X125162000Y-81324000D01*
%TO.C,C6*%
X99208000Y-79990836D02*
X99208000Y-79775164D01*
X99928000Y-79990836D02*
X99928000Y-79775164D01*
%TO.C,R5*%
X97501064Y-91969000D02*
X96046936Y-91969000D01*
X97501064Y-90149000D02*
X96046936Y-90149000D01*
%TO.C,C4*%
X103625164Y-71801400D02*
X103840836Y-71801400D01*
X103625164Y-72521400D02*
X103840836Y-72521400D01*
%TO.C,C3*%
X99309000Y-75545836D02*
X99309000Y-75330164D01*
X100029000Y-75545836D02*
X100029000Y-75330164D01*
%TO.C,U3*%
X125116000Y-91383000D02*
X124846000Y-91383000D01*
X124846000Y-91383000D02*
X124846000Y-88553000D01*
X118486000Y-91383000D02*
X118486000Y-90283000D01*
X118216000Y-91383000D02*
X118486000Y-91383000D01*
X125116000Y-97803000D02*
X125116000Y-91383000D01*
X118216000Y-97803000D02*
X118216000Y-91383000D01*
%TO.C,R4*%
X74903064Y-78459000D02*
X74448936Y-78459000D01*
X74903064Y-76989000D02*
X74448936Y-76989000D01*
%TO.C,D1*%
X114146000Y-88812000D02*
X112676000Y-88812000D01*
X112676000Y-88812000D02*
X112676000Y-91097000D01*
X114146000Y-91097000D02*
X114146000Y-88812000D01*
%TO.C,J2*%
X118190000Y-61655000D02*
X112440000Y-61655000D01*
X118190000Y-55655000D02*
X118190000Y-61655000D01*
X116840000Y-56765000D02*
X111760000Y-56765000D01*
X116840000Y-55755000D02*
X116840000Y-56765000D01*
X111760000Y-56765000D02*
X111760000Y-55755000D01*
X111090000Y-61605000D02*
X107890000Y-61605000D01*
X107890000Y-61605000D02*
X107890000Y-55655000D01*
X107890000Y-55655000D02*
X118190000Y-55655000D01*
%TO.C,C12*%
X126392000Y-94114252D02*
X126392000Y-93591748D01*
X127862000Y-94114252D02*
X127862000Y-93591748D01*
%TO.C,C11*%
X94721000Y-79902164D02*
X94721000Y-80117836D01*
X94001000Y-79902164D02*
X94001000Y-80117836D01*
%TO.C,C10*%
X94001000Y-76942836D02*
X94001000Y-76727164D01*
X94721000Y-76942836D02*
X94721000Y-76727164D01*
%TO.C,D2*%
X77690000Y-97719000D02*
X77690000Y-99639000D01*
X77690000Y-99639000D02*
X80375000Y-99639000D01*
X80375000Y-97719000D02*
X77690000Y-97719000D01*
%TO.C,C14*%
X74556252Y-87857000D02*
X74033748Y-87857000D01*
X74556252Y-86387000D02*
X74033748Y-86387000D01*
%TO.C,C2*%
X113618000Y-75838164D02*
X113618000Y-76053836D01*
X112898000Y-75838164D02*
X112898000Y-76053836D01*
%TO.C,D3*%
X108170000Y-97592000D02*
X108170000Y-99512000D01*
X108170000Y-99512000D02*
X110855000Y-99512000D01*
X110855000Y-97592000D02*
X108170000Y-97592000D01*
%TO.C,R3*%
X115852641Y-87248000D02*
X115545359Y-87248000D01*
X115852641Y-86488000D02*
X115545359Y-86488000D01*
%TO.C,R2*%
X121792000Y-76808359D02*
X121792000Y-77115641D01*
X121032000Y-76808359D02*
X121032000Y-77115641D01*
%TO.C,R1*%
X103605359Y-66041000D02*
X103912641Y-66041000D01*
X103605359Y-66801000D02*
X103912641Y-66801000D01*
%TO.C,X1*%
X92963000Y-75851000D02*
X89663000Y-75851000D01*
X89663000Y-75851000D02*
X89663000Y-79851000D01*
%TO.C,C7*%
X97930580Y-84584000D02*
X97649420Y-84584000D01*
X97930580Y-83564000D02*
X97649420Y-83564000D01*
D12*
%TO.C,IC1*%
X75164000Y-81558000D02*
X75164000Y-81558000D01*
X75164000Y-81658000D02*
X75164000Y-81658000D01*
X75164000Y-81658000D02*
G75*
G03*
X75164000Y-81558000I0J50000D01*
G01*
X75164000Y-81558000D02*
G75*
G03*
X75164000Y-81658000I0J-50000D01*
G01*
D11*
%TO.C,C9*%
X93959000Y-83839164D02*
X93959000Y-84054836D01*
X93239000Y-83839164D02*
X93239000Y-84054836D01*
%TO.C,C5*%
X98651000Y-70244580D02*
X98651000Y-69963420D01*
X99671000Y-70244580D02*
X99671000Y-69963420D01*
%TO.C,U2*%
X102689000Y-75257000D02*
X102689000Y-75707000D01*
X102689000Y-75707000D02*
X101399000Y-75707000D01*
X102689000Y-82477000D02*
X102689000Y-82027000D01*
X103139000Y-75257000D02*
X102689000Y-75257000D01*
X103139000Y-82477000D02*
X102689000Y-82477000D01*
X109459000Y-75257000D02*
X109909000Y-75257000D01*
X109459000Y-82477000D02*
X109909000Y-82477000D01*
X109909000Y-75257000D02*
X109909000Y-75707000D01*
X109909000Y-82477000D02*
X109909000Y-82027000D01*
%TO.C,FB1*%
X101729000Y-84927221D02*
X101729000Y-85252779D01*
X100709000Y-84927221D02*
X100709000Y-85252779D01*
%TD*%
%LPC*%
D13*
%TO.C,C1*%
X109319000Y-85725000D03*
X108359000Y-85725000D03*
%TD*%
D14*
%TO.C,C13*%
X119954000Y-85979000D03*
X121854000Y-85979000D03*
%TD*%
D15*
%TO.C,C8*%
X98946000Y-86487000D03*
X97396000Y-86487000D03*
%TD*%
D16*
%TO.C,SW1*%
X85375000Y-62075000D03*
X85375000Y-56075000D03*
X73375000Y-62075000D03*
X73375000Y-56075000D03*
D17*
X83375000Y-60325000D03*
X79375000Y-60325000D03*
X75375000Y-60325000D03*
%TD*%
D18*
%TO.C,R6*%
X105217500Y-91059000D03*
X108142500Y-91059000D03*
%TD*%
D19*
%TO.C,J1*%
X127762000Y-82224000D03*
D20*
X127762000Y-79724000D03*
X127762000Y-77724000D03*
X127762000Y-75224000D03*
D21*
X130472000Y-85294000D03*
X130472000Y-72154000D03*
%TD*%
D22*
%TO.C,C6*%
X99568000Y-80363000D03*
X99568000Y-79403000D03*
%TD*%
D23*
%TO.C,R5*%
X98236500Y-91059000D03*
X95311500Y-91059000D03*
%TD*%
D24*
%TO.C,H3*%
X129540000Y-106680000D03*
%TD*%
D25*
%TO.C,C4*%
X103253000Y-72161400D03*
X104213000Y-72161400D03*
%TD*%
D22*
%TO.C,C3*%
X99669000Y-75918000D03*
X99669000Y-74958000D03*
%TD*%
D26*
%TO.C,U3*%
X123946000Y-89653000D03*
X121666000Y-89653000D03*
D27*
X121666000Y-95953000D03*
D26*
X119386000Y-89653000D03*
%TD*%
D28*
%TO.C,R4*%
X75588500Y-77724000D03*
X73763500Y-77724000D03*
%TD*%
D29*
%TO.C,D1*%
X113411000Y-89509500D03*
X113411000Y-91084500D03*
%TD*%
D30*
%TO.C,J2*%
X111760000Y-61215000D03*
D31*
X116840000Y-59055000D03*
D32*
X114300000Y-59055000D03*
X111760000Y-59055000D03*
X109220000Y-59055000D03*
%TD*%
D24*
%TO.C,H1*%
X63500000Y-57150000D03*
%TD*%
D33*
%TO.C,C12*%
X127127000Y-94803000D03*
X127127000Y-92903000D03*
%TD*%
D34*
%TO.C,C11*%
X94361000Y-79530000D03*
X94361000Y-80490000D03*
%TD*%
D24*
%TO.C,H2*%
X129540000Y-57150000D03*
%TD*%
D22*
%TO.C,C10*%
X94361000Y-77315000D03*
X94361000Y-76355000D03*
%TD*%
D35*
%TO.C,D2*%
X78437500Y-98679000D03*
X80312500Y-98679000D03*
%TD*%
D36*
%TO.C,C14*%
X75245000Y-87122000D03*
X73345000Y-87122000D03*
%TD*%
D34*
%TO.C,C2*%
X113258000Y-75466000D03*
X113258000Y-76426000D03*
%TD*%
D24*
%TO.C,H4*%
X63500000Y-106680000D03*
%TD*%
D35*
%TO.C,D3*%
X108917500Y-98552000D03*
X110792500Y-98552000D03*
%TD*%
D37*
%TO.C,R3*%
X116209000Y-86868000D03*
X115189000Y-86868000D03*
%TD*%
D38*
%TO.C,R2*%
X121412000Y-76452000D03*
X121412000Y-77472000D03*
%TD*%
D39*
%TO.C,R1*%
X103249000Y-66421000D03*
X104269000Y-66421000D03*
%TD*%
D40*
%TO.C,X1*%
X90463000Y-76751000D03*
X90463000Y-78951000D03*
X92163000Y-78951000D03*
X92163000Y-76751000D03*
%TD*%
D15*
%TO.C,C7*%
X98565000Y-84074000D03*
X97015000Y-84074000D03*
%TD*%
D41*
%TO.C,IC1*%
X75164000Y-82508000D03*
X75164000Y-83608000D03*
X72664000Y-82508000D03*
X72664000Y-83608000D03*
%TD*%
D34*
%TO.C,C9*%
X93599000Y-83467000D03*
X93599000Y-84427000D03*
%TD*%
D42*
%TO.C,C5*%
X99161000Y-70879000D03*
X99161000Y-69329000D03*
%TD*%
D43*
%TO.C,U2*%
X102136500Y-76117000D03*
X102136500Y-76617000D03*
X102136500Y-77117000D03*
X102136500Y-77617000D03*
X102136500Y-78117000D03*
X102136500Y-78617000D03*
X102136500Y-79117000D03*
X102136500Y-79617000D03*
X102136500Y-80117000D03*
X102136500Y-80617000D03*
X102136500Y-81117000D03*
X102136500Y-81617000D03*
D44*
X103549000Y-83029500D03*
X104049000Y-83029500D03*
X104549000Y-83029500D03*
X105049000Y-83029500D03*
X105549000Y-83029500D03*
X106049000Y-83029500D03*
X106549000Y-83029500D03*
X107049000Y-83029500D03*
X107549000Y-83029500D03*
X108049000Y-83029500D03*
X108549000Y-83029500D03*
X109049000Y-83029500D03*
D43*
X110461500Y-81617000D03*
X110461500Y-81117000D03*
X110461500Y-80617000D03*
X110461500Y-80117000D03*
X110461500Y-79617000D03*
X110461500Y-79117000D03*
X110461500Y-78617000D03*
X110461500Y-78117000D03*
X110461500Y-77617000D03*
X110461500Y-77117000D03*
X110461500Y-76617000D03*
X110461500Y-76117000D03*
D44*
X109049000Y-74704500D03*
X108549000Y-74704500D03*
X108049000Y-74704500D03*
X107549000Y-74704500D03*
X107049000Y-74704500D03*
X106549000Y-74704500D03*
X106049000Y-74704500D03*
X105549000Y-74704500D03*
X105049000Y-74704500D03*
X104549000Y-74704500D03*
X104049000Y-74704500D03*
X103549000Y-74704500D03*
%TD*%
D29*
%TO.C,FB1*%
X101219000Y-84302500D03*
X101219000Y-85877500D03*
%TD*%
%LPD*%
M02*
