%TF.GenerationSoftware,KiCad,Pcbnew,7.0.10*%
%TF.CreationDate,2024-01-12T17:51:54+01:00*%
%TF.ProjectId,LightDudu4Lila,4c696768-7444-4756-9475-344c696c612e,rev?*%
%TF.SameCoordinates,Original*%
%TF.FileFunction,Legend,Bot*%
%TF.FilePolarity,Positive*%
%FSLAX46Y46*%
G04 Gerber Fmt 4.6, Leading zero omitted, Abs format (unit mm)*
G04 Created by KiCad (PCBNEW 7.0.10) date 2024-01-12 17:51:54*
%MOMM*%
%LPD*%
G01*
G04 APERTURE LIST*
%ADD10C,0.150000*%
%ADD11C,2.000000*%
%ADD12C,1.700000*%
%ADD13R,1.500000X1.600000*%
%ADD14C,1.600000*%
%ADD15C,3.000000*%
%ADD16C,2.200000*%
%ADD17C,1.100000*%
%ADD18R,1.730000X2.030000*%
%ADD19O,1.730000X2.030000*%
G04 APERTURE END LIST*
D10*
X121376839Y-102809704D02*
X120900649Y-102809704D01*
X121472077Y-103095419D02*
X121138744Y-102095419D01*
X121138744Y-102095419D02*
X120805411Y-103095419D01*
X120472077Y-103000180D02*
X120424458Y-103047800D01*
X120424458Y-103047800D02*
X120472077Y-103095419D01*
X120472077Y-103095419D02*
X120519696Y-103047800D01*
X120519696Y-103047800D02*
X120472077Y-103000180D01*
X120472077Y-103000180D02*
X120472077Y-103095419D01*
X119662554Y-102571609D02*
X119519697Y-102619228D01*
X119519697Y-102619228D02*
X119472078Y-102666847D01*
X119472078Y-102666847D02*
X119424459Y-102762085D01*
X119424459Y-102762085D02*
X119424459Y-102904942D01*
X119424459Y-102904942D02*
X119472078Y-103000180D01*
X119472078Y-103000180D02*
X119519697Y-103047800D01*
X119519697Y-103047800D02*
X119614935Y-103095419D01*
X119614935Y-103095419D02*
X119995887Y-103095419D01*
X119995887Y-103095419D02*
X119995887Y-102095419D01*
X119995887Y-102095419D02*
X119662554Y-102095419D01*
X119662554Y-102095419D02*
X119567316Y-102143038D01*
X119567316Y-102143038D02*
X119519697Y-102190657D01*
X119519697Y-102190657D02*
X119472078Y-102285895D01*
X119472078Y-102285895D02*
X119472078Y-102381133D01*
X119472078Y-102381133D02*
X119519697Y-102476371D01*
X119519697Y-102476371D02*
X119567316Y-102523990D01*
X119567316Y-102523990D02*
X119662554Y-102571609D01*
X119662554Y-102571609D02*
X119995887Y-102571609D01*
X118995887Y-103000180D02*
X118948268Y-103047800D01*
X118948268Y-103047800D02*
X118995887Y-103095419D01*
X118995887Y-103095419D02*
X119043506Y-103047800D01*
X119043506Y-103047800D02*
X118995887Y-103000180D01*
X118995887Y-103000180D02*
X118995887Y-103095419D01*
G36*
X127110601Y-64862069D02*
G01*
X127121019Y-64864542D01*
X127129441Y-64870553D01*
X127132201Y-64875218D01*
X127134967Y-64884720D01*
X127136185Y-64894727D01*
X127136524Y-64905235D01*
X127136502Y-64910540D01*
X127136285Y-64921431D01*
X127135663Y-64932376D01*
X127134081Y-64942116D01*
X127133525Y-64943479D01*
X127126640Y-64950798D01*
X127117961Y-64955549D01*
X127111466Y-64958682D01*
X127101752Y-64963670D01*
X127093226Y-64968596D01*
X127085233Y-64974844D01*
X127083044Y-64978042D01*
X127080279Y-64987592D01*
X127079615Y-64998048D01*
X127079615Y-65823833D01*
X127079959Y-65830325D01*
X127082058Y-65840487D01*
X127086065Y-65849826D01*
X127091980Y-65858342D01*
X127099803Y-65866036D01*
X127109535Y-65872906D01*
X127118694Y-65877810D01*
X127122011Y-65879543D01*
X127130005Y-65885744D01*
X127135444Y-65894403D01*
X127137256Y-65904921D01*
X127137256Y-65948885D01*
X127137076Y-65952944D01*
X127134371Y-65962727D01*
X127126658Y-65969803D01*
X127116740Y-65971600D01*
X126780662Y-65971600D01*
X126769337Y-65971516D01*
X126758198Y-65971267D01*
X126747246Y-65970850D01*
X126736481Y-65970268D01*
X126725902Y-65969518D01*
X126715509Y-65968603D01*
X126705303Y-65967521D01*
X126695284Y-65966272D01*
X126685451Y-65964857D01*
X126675804Y-65963275D01*
X126657071Y-65959613D01*
X126639084Y-65955284D01*
X126621843Y-65950289D01*
X126605348Y-65944629D01*
X126589599Y-65938302D01*
X126574596Y-65931310D01*
X126560340Y-65923652D01*
X126546829Y-65915327D01*
X126534064Y-65906337D01*
X126522046Y-65896681D01*
X126510774Y-65886359D01*
X126505409Y-65880945D01*
X126495191Y-65869597D01*
X126485654Y-65857556D01*
X126476798Y-65844823D01*
X126468624Y-65831398D01*
X126461130Y-65817279D01*
X126454318Y-65802468D01*
X126448188Y-65786965D01*
X126442738Y-65770768D01*
X126437969Y-65753879D01*
X126433882Y-65736298D01*
X126430476Y-65718023D01*
X126427751Y-65699056D01*
X126426644Y-65689313D01*
X126425708Y-65679397D01*
X126424941Y-65669307D01*
X126424345Y-65659044D01*
X126423919Y-65648608D01*
X126423664Y-65637999D01*
X126423643Y-65635277D01*
X126710076Y-65635277D01*
X126710091Y-65650177D01*
X126710137Y-65664529D01*
X126710213Y-65678333D01*
X126710320Y-65691590D01*
X126710457Y-65704300D01*
X126710625Y-65716461D01*
X126710824Y-65728075D01*
X126711053Y-65739141D01*
X126711312Y-65749660D01*
X126711602Y-65759631D01*
X126712095Y-65773561D01*
X126712656Y-65786258D01*
X126713285Y-65797724D01*
X126713984Y-65807957D01*
X126714829Y-65817232D01*
X126716451Y-65828677D01*
X126718638Y-65839069D01*
X126722166Y-65850577D01*
X126726576Y-65860440D01*
X126731869Y-65868657D01*
X126739385Y-65876345D01*
X126748913Y-65882155D01*
X126759097Y-65886079D01*
X126768712Y-65888617D01*
X126779632Y-65890620D01*
X126791858Y-65892089D01*
X126801883Y-65892841D01*
X126812643Y-65893292D01*
X126824137Y-65893442D01*
X126824137Y-65377601D01*
X126787745Y-65377601D01*
X126782197Y-65377693D01*
X126771888Y-65378432D01*
X126761184Y-65380227D01*
X126750696Y-65383509D01*
X126742072Y-65388103D01*
X126737490Y-65391500D01*
X126730384Y-65398575D01*
X126724747Y-65406887D01*
X126720578Y-65416436D01*
X126719802Y-65418939D01*
X126717678Y-65429747D01*
X126716434Y-65439700D01*
X126715327Y-65451851D01*
X126714587Y-65462407D01*
X126713924Y-65474199D01*
X126713339Y-65487228D01*
X126712831Y-65501493D01*
X126712535Y-65511690D01*
X126712274Y-65522437D01*
X126712139Y-65527871D01*
X126711881Y-65538369D01*
X126711527Y-65553194D01*
X126711211Y-65566912D01*
X126710934Y-65579521D01*
X126710696Y-65591023D01*
X126710496Y-65601417D01*
X126710290Y-65613553D01*
X126710153Y-65623719D01*
X126710076Y-65635277D01*
X126423643Y-65635277D01*
X126423579Y-65627217D01*
X126423764Y-65613122D01*
X126424319Y-65599412D01*
X126425245Y-65586087D01*
X126426540Y-65573148D01*
X126428206Y-65560594D01*
X126430242Y-65548426D01*
X126432648Y-65536643D01*
X126435425Y-65525246D01*
X126438571Y-65514234D01*
X126442088Y-65503607D01*
X126445975Y-65493366D01*
X126450232Y-65483511D01*
X126454859Y-65474041D01*
X126459857Y-65464956D01*
X126465224Y-65456257D01*
X126470962Y-65447943D01*
X126477191Y-65439904D01*
X126484033Y-65432029D01*
X126491487Y-65424318D01*
X126499554Y-65416771D01*
X126508233Y-65409389D01*
X126517525Y-65402170D01*
X126527429Y-65395116D01*
X126537946Y-65388225D01*
X126549075Y-65381499D01*
X126560817Y-65374937D01*
X126573171Y-65368539D01*
X126586138Y-65362305D01*
X126599717Y-65356235D01*
X126613909Y-65350330D01*
X126628713Y-65344588D01*
X126644130Y-65339011D01*
X126633821Y-65336261D01*
X126623717Y-65333202D01*
X126613816Y-65329834D01*
X126604120Y-65326157D01*
X126594628Y-65322171D01*
X126585340Y-65317876D01*
X126576256Y-65313272D01*
X126567377Y-65308358D01*
X126558701Y-65303135D01*
X126550230Y-65297604D01*
X126541963Y-65291763D01*
X126533900Y-65285613D01*
X126526042Y-65279154D01*
X126518387Y-65272386D01*
X126510937Y-65265308D01*
X126503690Y-65257922D01*
X126496740Y-65250238D01*
X126490238Y-65242329D01*
X126484184Y-65234194D01*
X126478579Y-65225834D01*
X126473423Y-65217250D01*
X126468714Y-65208440D01*
X126464454Y-65199405D01*
X126460643Y-65190145D01*
X126457280Y-65180659D01*
X126454365Y-65170949D01*
X126451899Y-65161013D01*
X126449881Y-65150852D01*
X126448311Y-65140466D01*
X126447190Y-65129855D01*
X126446518Y-65119018D01*
X126446293Y-65107957D01*
X126446535Y-65096722D01*
X126707878Y-65096722D01*
X126707905Y-65109742D01*
X126707989Y-65122333D01*
X126708129Y-65134494D01*
X126708324Y-65146227D01*
X126708575Y-65157530D01*
X126708882Y-65168403D01*
X126709245Y-65178847D01*
X126709664Y-65188862D01*
X126710308Y-65201548D01*
X126711053Y-65213470D01*
X126711485Y-65219138D01*
X126712744Y-65229862D01*
X126714530Y-65239769D01*
X126717503Y-65251004D01*
X126721299Y-65260963D01*
X126726941Y-65271230D01*
X126733767Y-65279660D01*
X126738885Y-65284296D01*
X126747434Y-65290092D01*
X126757031Y-65294497D01*
X126767676Y-65297511D01*
X126777347Y-65298960D01*
X126787745Y-65299443D01*
X126824137Y-65299443D01*
X126824137Y-64939918D01*
X126787745Y-64939918D01*
X126782584Y-64940031D01*
X126770476Y-64941309D01*
X126759501Y-64944005D01*
X126749658Y-64948121D01*
X126740949Y-64953655D01*
X126733372Y-64960609D01*
X126726928Y-64968983D01*
X126724622Y-64972888D01*
X126720454Y-64982329D01*
X126716882Y-64993946D01*
X126714594Y-65004086D01*
X126712640Y-65015450D01*
X126711022Y-65028037D01*
X126709738Y-65041848D01*
X126709068Y-65051735D01*
X126708547Y-65062166D01*
X126708175Y-65073141D01*
X126707952Y-65084659D01*
X126707878Y-65096722D01*
X126446535Y-65096722D01*
X126446578Y-65094702D01*
X126447431Y-65081743D01*
X126448852Y-65069079D01*
X126450842Y-65056712D01*
X126453401Y-65044640D01*
X126456529Y-65032864D01*
X126460225Y-65021383D01*
X126464490Y-65010199D01*
X126469323Y-64999310D01*
X126474725Y-64988717D01*
X126480695Y-64978419D01*
X126487235Y-64968418D01*
X126494342Y-64958712D01*
X126502019Y-64949302D01*
X126510264Y-64940188D01*
X126519078Y-64931369D01*
X126528423Y-64922940D01*
X126538262Y-64915055D01*
X126548596Y-64907713D01*
X126559424Y-64900915D01*
X126570746Y-64894661D01*
X126582562Y-64888951D01*
X126594872Y-64883785D01*
X126607677Y-64879162D01*
X126620976Y-64875084D01*
X126634769Y-64871549D01*
X126649056Y-64868558D01*
X126663837Y-64866111D01*
X126679113Y-64864207D01*
X126694883Y-64862848D01*
X126711147Y-64862032D01*
X126727905Y-64861760D01*
X127104284Y-64861760D01*
X127110601Y-64862069D01*
G37*
G36*
X125925079Y-65476763D02*
G01*
X125925079Y-65838243D01*
X125923851Y-65848060D01*
X125919315Y-65858168D01*
X125912766Y-65865679D01*
X125903762Y-65872124D01*
X125894382Y-65876683D01*
X125890152Y-65878299D01*
X125880838Y-65882022D01*
X125872156Y-65886844D01*
X125869148Y-65889290D01*
X125865576Y-65898483D01*
X125864253Y-65908446D01*
X125863566Y-65919683D01*
X125863309Y-65930949D01*
X125863286Y-65935940D01*
X125863555Y-65946000D01*
X125864690Y-65956151D01*
X125868223Y-65965721D01*
X125868903Y-65966470D01*
X125878426Y-65970618D01*
X125888638Y-65971579D01*
X125890641Y-65971600D01*
X126216461Y-65971600D01*
X126226933Y-65970317D01*
X126235815Y-65965108D01*
X126240023Y-65955892D01*
X126240397Y-65951083D01*
X126240397Y-65912248D01*
X126238889Y-65902252D01*
X126233474Y-65892517D01*
X126225505Y-65885476D01*
X126216274Y-65880539D01*
X126208889Y-65877810D01*
X126199606Y-65874085D01*
X126190819Y-65868599D01*
X126186908Y-65864377D01*
X126183067Y-65854660D01*
X126181641Y-65844456D01*
X126181290Y-65834335D01*
X126181290Y-65494593D01*
X126319287Y-65003909D01*
X126322934Y-64993069D01*
X126327464Y-64983444D01*
X126332876Y-64975037D01*
X126340535Y-64966553D01*
X126349465Y-64959821D01*
X126357878Y-64955549D01*
X126366499Y-64949780D01*
X126371823Y-64941050D01*
X126373021Y-64932835D01*
X126373021Y-64880322D01*
X126371065Y-64870534D01*
X126363554Y-64863573D01*
X126352993Y-64861760D01*
X126061611Y-64861760D01*
X126051933Y-64863316D01*
X126045247Y-64868843D01*
X126042408Y-64879175D01*
X126041500Y-64888983D01*
X126041131Y-64899894D01*
X126041095Y-64905235D01*
X126041180Y-64915645D01*
X126041498Y-64925858D01*
X126042249Y-64935933D01*
X126043537Y-64943093D01*
X126048990Y-64951345D01*
X126056970Y-64957015D01*
X126064645Y-64963347D01*
X126070226Y-64971381D01*
X126072784Y-64981429D01*
X126072846Y-64983393D01*
X126071991Y-64993285D01*
X126069841Y-65002942D01*
X126069427Y-65004398D01*
X125979301Y-65302374D01*
X125886733Y-65002688D01*
X125886026Y-64992877D01*
X125886000Y-64989743D01*
X125887664Y-64978905D01*
X125891850Y-64969271D01*
X125897466Y-64960902D01*
X125904953Y-64952430D01*
X125912623Y-64945291D01*
X125919715Y-64937966D01*
X125924483Y-64929310D01*
X125925079Y-64925263D01*
X125925079Y-64884475D01*
X125923827Y-64874537D01*
X125918742Y-64866108D01*
X125909745Y-64862115D01*
X125905051Y-64861760D01*
X125754598Y-64861760D01*
X125744680Y-64863557D01*
X125736966Y-64870633D01*
X125734262Y-64880415D01*
X125734081Y-64884475D01*
X125734081Y-64927950D01*
X125736980Y-64938068D01*
X125743324Y-64945821D01*
X125749224Y-64950664D01*
X125757004Y-64956859D01*
X125764008Y-64963840D01*
X125770237Y-64971609D01*
X125775690Y-64980164D01*
X125780369Y-64989507D01*
X125784272Y-64999637D01*
X125785617Y-65003909D01*
X125925079Y-65476763D01*
G37*
G36*
X125313874Y-64861790D02*
G01*
X125324241Y-64862122D01*
X125334871Y-64863010D01*
X125345973Y-64865021D01*
X125355505Y-64869332D01*
X125356570Y-64870309D01*
X125361516Y-64878735D01*
X125363748Y-64889115D01*
X125364298Y-64899618D01*
X125364083Y-64910752D01*
X125363290Y-64921788D01*
X125361668Y-64931825D01*
X125358192Y-64941139D01*
X125353102Y-64946639D01*
X125344034Y-64952043D01*
X125334012Y-64955549D01*
X125331253Y-64956432D01*
X125321842Y-64960515D01*
X125313728Y-64966865D01*
X125309343Y-64976310D01*
X125309343Y-65817971D01*
X125309942Y-65827561D01*
X125312376Y-65838701D01*
X125316683Y-65848899D01*
X125322861Y-65858155D01*
X125330913Y-65866468D01*
X125338702Y-65872441D01*
X125347689Y-65877810D01*
X125352879Y-65880810D01*
X125361611Y-65887030D01*
X125367717Y-65895151D01*
X125368747Y-65902030D01*
X125369348Y-65911892D01*
X125369602Y-65921967D01*
X125369671Y-65932276D01*
X125369665Y-65933816D01*
X125369207Y-65944899D01*
X125367816Y-65954739D01*
X125363809Y-65964516D01*
X125361751Y-65966557D01*
X125352856Y-65970603D01*
X125342804Y-65971600D01*
X124980348Y-65971600D01*
X124971215Y-65971466D01*
X124953288Y-65970400D01*
X124935813Y-65968266D01*
X124918790Y-65965066D01*
X124902220Y-65960800D01*
X124886102Y-65955466D01*
X124870436Y-65949066D01*
X124855222Y-65941600D01*
X124840461Y-65933067D01*
X124826152Y-65923467D01*
X124812295Y-65912800D01*
X124798890Y-65901067D01*
X124785937Y-65888267D01*
X124773437Y-65874401D01*
X124761389Y-65859467D01*
X124755535Y-65851601D01*
X124749793Y-65843468D01*
X124744165Y-65835068D01*
X124738665Y-65826399D01*
X124733340Y-65817460D01*
X124728190Y-65808251D01*
X124723214Y-65798771D01*
X124718412Y-65789021D01*
X124713785Y-65779000D01*
X124709333Y-65768708D01*
X124705056Y-65758147D01*
X124700980Y-65747385D01*
X124943223Y-65747385D01*
X124943240Y-65752465D01*
X124943502Y-65767119D01*
X124944076Y-65780892D01*
X124944964Y-65793786D01*
X124946166Y-65805799D01*
X124947680Y-65816933D01*
X124949509Y-65827186D01*
X124952434Y-65839488D01*
X124955916Y-65850225D01*
X124961053Y-65861446D01*
X124963362Y-65865320D01*
X124969847Y-65873913D01*
X124977344Y-65880943D01*
X124985856Y-65886411D01*
X124995381Y-65890317D01*
X125005920Y-65892661D01*
X125017473Y-65893442D01*
X125053865Y-65893442D01*
X125053865Y-64939918D01*
X125027731Y-64939918D01*
X125022735Y-64940031D01*
X125010881Y-64941309D01*
X124999933Y-64944005D01*
X124989891Y-64948121D01*
X124980756Y-64953655D01*
X124972527Y-64960609D01*
X124965205Y-64968983D01*
X124963852Y-64970801D01*
X124957734Y-64980400D01*
X124952690Y-64990846D01*
X124948718Y-65002139D01*
X124946314Y-65011782D01*
X124944597Y-65021968D01*
X124943566Y-65032696D01*
X124943223Y-65043965D01*
X124943223Y-65747385D01*
X124700980Y-65747385D01*
X124700953Y-65747314D01*
X124697024Y-65736211D01*
X124693270Y-65724838D01*
X124689691Y-65713194D01*
X124686287Y-65701280D01*
X124683057Y-65689095D01*
X124680001Y-65676640D01*
X124677120Y-65663915D01*
X124674414Y-65650918D01*
X124671883Y-65637652D01*
X124669525Y-65624115D01*
X124667343Y-65610307D01*
X124665335Y-65596229D01*
X124663502Y-65581880D01*
X124661843Y-65567261D01*
X124660359Y-65552372D01*
X124659050Y-65537212D01*
X124657915Y-65521781D01*
X124656955Y-65506081D01*
X124656169Y-65490109D01*
X124655558Y-65473867D01*
X124655121Y-65457355D01*
X124654859Y-65440572D01*
X124654772Y-65423519D01*
X124654862Y-65404819D01*
X124655133Y-65386455D01*
X124655584Y-65368427D01*
X124656215Y-65350734D01*
X124657026Y-65333378D01*
X124658018Y-65316357D01*
X124659190Y-65299672D01*
X124660542Y-65283323D01*
X124662075Y-65267310D01*
X124663788Y-65251633D01*
X124665681Y-65236291D01*
X124667755Y-65221285D01*
X124670009Y-65206616D01*
X124672443Y-65192282D01*
X124675058Y-65178283D01*
X124677853Y-65164621D01*
X124680828Y-65151295D01*
X124683984Y-65138304D01*
X124687320Y-65125649D01*
X124690836Y-65113330D01*
X124694533Y-65101347D01*
X124698410Y-65089700D01*
X124702467Y-65078388D01*
X124706704Y-65067412D01*
X124711122Y-65056773D01*
X124715720Y-65046469D01*
X124720499Y-65036500D01*
X124725458Y-65026868D01*
X124730597Y-65017572D01*
X124735916Y-65008611D01*
X124741416Y-64999986D01*
X124747096Y-64991697D01*
X124758826Y-64975963D01*
X124770936Y-64961243D01*
X124783426Y-64947539D01*
X124796296Y-64934850D01*
X124809545Y-64923176D01*
X124823174Y-64912517D01*
X124837182Y-64902873D01*
X124851571Y-64894244D01*
X124866339Y-64886631D01*
X124881487Y-64880032D01*
X124897014Y-64874449D01*
X124912922Y-64869881D01*
X124929209Y-64866328D01*
X124945875Y-64863790D01*
X124962922Y-64862268D01*
X124980348Y-64861760D01*
X125309343Y-64861760D01*
X125313874Y-64861790D01*
G37*
G36*
X124575149Y-64861760D02*
G01*
X124277905Y-64861760D01*
X124268094Y-64862722D01*
X124259485Y-64867377D01*
X124258610Y-64868599D01*
X124255922Y-64878552D01*
X124254949Y-64889245D01*
X124254559Y-64899549D01*
X124254458Y-64909632D01*
X124254941Y-64919897D01*
X124256796Y-64930705D01*
X124260718Y-64941231D01*
X124266533Y-64949512D01*
X124274242Y-64955549D01*
X124282728Y-64960811D01*
X124290330Y-64967314D01*
X124294514Y-64972890D01*
X124297835Y-64982776D01*
X124299142Y-64992831D01*
X124299623Y-65003974D01*
X124299643Y-65007084D01*
X124299643Y-65775961D01*
X124299016Y-65787355D01*
X124297136Y-65797908D01*
X124294002Y-65807620D01*
X124289614Y-65816490D01*
X124283972Y-65824519D01*
X124281813Y-65827008D01*
X124273545Y-65834621D01*
X124264342Y-65840365D01*
X124254204Y-65844238D01*
X124243131Y-65846242D01*
X124236384Y-65846547D01*
X124225633Y-65845495D01*
X124215607Y-65842340D01*
X124206306Y-65837080D01*
X124197729Y-65829717D01*
X124193153Y-65824565D01*
X124187094Y-65816067D01*
X124182288Y-65807243D01*
X124178736Y-65798093D01*
X124176177Y-65787005D01*
X124175341Y-65777147D01*
X124175323Y-65775472D01*
X124175323Y-65003177D01*
X124175633Y-64992877D01*
X124176850Y-64982912D01*
X124179231Y-64975333D01*
X124185188Y-64966972D01*
X124192763Y-64959817D01*
X124198038Y-64955549D01*
X124206006Y-64948294D01*
X124212326Y-64939715D01*
X124216997Y-64929815D01*
X124220020Y-64918592D01*
X124221279Y-64908230D01*
X124221485Y-64901572D01*
X124221262Y-64891746D01*
X124220270Y-64881129D01*
X124217609Y-64871166D01*
X124215135Y-64867622D01*
X124206474Y-64863048D01*
X124196084Y-64861760D01*
X124047584Y-64861760D01*
X124036792Y-64863271D01*
X124028336Y-64868584D01*
X124023783Y-64877723D01*
X124022916Y-64885940D01*
X124022916Y-64917936D01*
X124023084Y-64927706D01*
X124023863Y-64937949D01*
X124025603Y-64945291D01*
X124033063Y-64951931D01*
X124041478Y-64955549D01*
X124050766Y-64959544D01*
X124059834Y-64965818D01*
X124066634Y-64973707D01*
X124071168Y-64983209D01*
X124073435Y-64994326D01*
X124073718Y-65000490D01*
X124073718Y-65754956D01*
X124073958Y-65768184D01*
X124074676Y-65781063D01*
X124075874Y-65793593D01*
X124077550Y-65805774D01*
X124079705Y-65817605D01*
X124082339Y-65829088D01*
X124085453Y-65840221D01*
X124089045Y-65851005D01*
X124093116Y-65861439D01*
X124097666Y-65871525D01*
X124102695Y-65881261D01*
X124108202Y-65890648D01*
X124114189Y-65899686D01*
X124120655Y-65908375D01*
X124127600Y-65916715D01*
X124135023Y-65924705D01*
X124142844Y-65932276D01*
X124151040Y-65939359D01*
X124159613Y-65945954D01*
X124168561Y-65952060D01*
X124177885Y-65957678D01*
X124187585Y-65962807D01*
X124197661Y-65967447D01*
X124208113Y-65971600D01*
X124218941Y-65975263D01*
X124230145Y-65978438D01*
X124241724Y-65981125D01*
X124253680Y-65983323D01*
X124266011Y-65985033D01*
X124278718Y-65986254D01*
X124291802Y-65986987D01*
X124305261Y-65987231D01*
X124320329Y-65986972D01*
X124334944Y-65986193D01*
X124349104Y-65984895D01*
X124362810Y-65983079D01*
X124376062Y-65980743D01*
X124388860Y-65977889D01*
X124401204Y-65974515D01*
X124413094Y-65970623D01*
X124424529Y-65966211D01*
X124435511Y-65961280D01*
X124446038Y-65955831D01*
X124456111Y-65949862D01*
X124465730Y-65943374D01*
X124474895Y-65936367D01*
X124483606Y-65928842D01*
X124491862Y-65920797D01*
X124499641Y-65912233D01*
X124506917Y-65903212D01*
X124513692Y-65893732D01*
X124519965Y-65883794D01*
X124525737Y-65873399D01*
X124531006Y-65862545D01*
X124535773Y-65851234D01*
X124540039Y-65839464D01*
X124543803Y-65827237D01*
X124547065Y-65814551D01*
X124549825Y-65801408D01*
X124552083Y-65787807D01*
X124553840Y-65773748D01*
X124555094Y-65759230D01*
X124555847Y-65744255D01*
X124556098Y-65728822D01*
X124556098Y-64998536D01*
X124557154Y-64988169D01*
X124560323Y-64978867D01*
X124565603Y-64970629D01*
X124572997Y-64963457D01*
X124582502Y-64957349D01*
X124586140Y-64955549D01*
X124595137Y-64951131D01*
X124603174Y-64945116D01*
X124604458Y-64943337D01*
X124606745Y-64933784D01*
X124607343Y-64923782D01*
X124607389Y-64919401D01*
X124607276Y-64908257D01*
X124606936Y-64898483D01*
X124606229Y-64888566D01*
X124604779Y-64878414D01*
X124602748Y-64871774D01*
X124595061Y-64864928D01*
X124585392Y-64862386D01*
X124575149Y-64861760D01*
G37*
G36*
X123943183Y-64861790D02*
G01*
X123953550Y-64862122D01*
X123964181Y-64863010D01*
X123975282Y-64865021D01*
X123984814Y-64869332D01*
X123985879Y-64870309D01*
X123990825Y-64878735D01*
X123993057Y-64889115D01*
X123993607Y-64899618D01*
X123993392Y-64910752D01*
X123992599Y-64921788D01*
X123990977Y-64931825D01*
X123987501Y-64941139D01*
X123982411Y-64946639D01*
X123973343Y-64952043D01*
X123963321Y-64955549D01*
X123960562Y-64956432D01*
X123951151Y-64960515D01*
X123943037Y-64966865D01*
X123938652Y-64976310D01*
X123938652Y-65817971D01*
X123939251Y-65827561D01*
X123941685Y-65838701D01*
X123945992Y-65848899D01*
X123952171Y-65858155D01*
X123960222Y-65866468D01*
X123968011Y-65872441D01*
X123976998Y-65877810D01*
X123982188Y-65880810D01*
X123990920Y-65887030D01*
X123997026Y-65895151D01*
X123998057Y-65902030D01*
X123998658Y-65911892D01*
X123998911Y-65921967D01*
X123998980Y-65932276D01*
X123998974Y-65933816D01*
X123998516Y-65944899D01*
X123997125Y-65954739D01*
X123993118Y-65964516D01*
X123991060Y-65966557D01*
X123982166Y-65970603D01*
X123972113Y-65971600D01*
X123609657Y-65971600D01*
X123600524Y-65971466D01*
X123582597Y-65970400D01*
X123565122Y-65968266D01*
X123548099Y-65965066D01*
X123531529Y-65960800D01*
X123515411Y-65955466D01*
X123499745Y-65949066D01*
X123484531Y-65941600D01*
X123469770Y-65933067D01*
X123455461Y-65923467D01*
X123441604Y-65912800D01*
X123428199Y-65901067D01*
X123415247Y-65888267D01*
X123402746Y-65874401D01*
X123390698Y-65859467D01*
X123384844Y-65851601D01*
X123379102Y-65843468D01*
X123373474Y-65835068D01*
X123367974Y-65826399D01*
X123362649Y-65817460D01*
X123357499Y-65808251D01*
X123352523Y-65798771D01*
X123347721Y-65789021D01*
X123343095Y-65779000D01*
X123338642Y-65768708D01*
X123334365Y-65758147D01*
X123330289Y-65747385D01*
X123572532Y-65747385D01*
X123572550Y-65752465D01*
X123572811Y-65767119D01*
X123573385Y-65780892D01*
X123574273Y-65793786D01*
X123575475Y-65805799D01*
X123576990Y-65816933D01*
X123578818Y-65827186D01*
X123581743Y-65839488D01*
X123585225Y-65850225D01*
X123590362Y-65861446D01*
X123592672Y-65865320D01*
X123599156Y-65873913D01*
X123606654Y-65880943D01*
X123615165Y-65886411D01*
X123624690Y-65890317D01*
X123635229Y-65892661D01*
X123646782Y-65893442D01*
X123683174Y-65893442D01*
X123683174Y-64939918D01*
X123657040Y-64939918D01*
X123652045Y-64940031D01*
X123640190Y-64941309D01*
X123629242Y-64944005D01*
X123619201Y-64948121D01*
X123610065Y-64953655D01*
X123601836Y-64960609D01*
X123594514Y-64968983D01*
X123593162Y-64970801D01*
X123587044Y-64980400D01*
X123581999Y-64990846D01*
X123578028Y-65002139D01*
X123575623Y-65011782D01*
X123573906Y-65021968D01*
X123572876Y-65032696D01*
X123572532Y-65043965D01*
X123572532Y-65747385D01*
X123330289Y-65747385D01*
X123330262Y-65747314D01*
X123326333Y-65736211D01*
X123322580Y-65724838D01*
X123319000Y-65713194D01*
X123315596Y-65701280D01*
X123312366Y-65689095D01*
X123309310Y-65676640D01*
X123306430Y-65663915D01*
X123303723Y-65650918D01*
X123301192Y-65637652D01*
X123298835Y-65624115D01*
X123296652Y-65610307D01*
X123294644Y-65596229D01*
X123292811Y-65581880D01*
X123291152Y-65567261D01*
X123289668Y-65552372D01*
X123288359Y-65537212D01*
X123287224Y-65521781D01*
X123286264Y-65506081D01*
X123285478Y-65490109D01*
X123284867Y-65473867D01*
X123284430Y-65457355D01*
X123284169Y-65440572D01*
X123284081Y-65423519D01*
X123284171Y-65404819D01*
X123284442Y-65386455D01*
X123284893Y-65368427D01*
X123285524Y-65350734D01*
X123286335Y-65333378D01*
X123287327Y-65316357D01*
X123288499Y-65299672D01*
X123289852Y-65283323D01*
X123291384Y-65267310D01*
X123293097Y-65251633D01*
X123294991Y-65236291D01*
X123297064Y-65221285D01*
X123299318Y-65206616D01*
X123301753Y-65192282D01*
X123304367Y-65178283D01*
X123307162Y-65164621D01*
X123310138Y-65151295D01*
X123313293Y-65138304D01*
X123316629Y-65125649D01*
X123320145Y-65113330D01*
X123323842Y-65101347D01*
X123327719Y-65089700D01*
X123331776Y-65078388D01*
X123336013Y-65067412D01*
X123340431Y-65056773D01*
X123345029Y-65046469D01*
X123349808Y-65036500D01*
X123354767Y-65026868D01*
X123359906Y-65017572D01*
X123365225Y-65008611D01*
X123370725Y-64999986D01*
X123376405Y-64991697D01*
X123388135Y-64975963D01*
X123400245Y-64961243D01*
X123412735Y-64947539D01*
X123425605Y-64934850D01*
X123438854Y-64923176D01*
X123452483Y-64912517D01*
X123466492Y-64902873D01*
X123480880Y-64894244D01*
X123495648Y-64886631D01*
X123510796Y-64880032D01*
X123526323Y-64874449D01*
X123542231Y-64869881D01*
X123558518Y-64866328D01*
X123575184Y-64863790D01*
X123592231Y-64862268D01*
X123609657Y-64861760D01*
X123938652Y-64861760D01*
X123943183Y-64861790D01*
G37*
G36*
X123204458Y-64861760D02*
G01*
X122907215Y-64861760D01*
X122897403Y-64862722D01*
X122888795Y-64867377D01*
X122887919Y-64868599D01*
X122885231Y-64878552D01*
X122884258Y-64889245D01*
X122883869Y-64899549D01*
X122883767Y-64909632D01*
X122884250Y-64919897D01*
X122886105Y-64930705D01*
X122890027Y-64941231D01*
X122895842Y-64949512D01*
X122903551Y-64955549D01*
X122912037Y-64960811D01*
X122919639Y-64967314D01*
X122923823Y-64972890D01*
X122927144Y-64982776D01*
X122928451Y-64992831D01*
X122928932Y-65003974D01*
X122928952Y-65007084D01*
X122928952Y-65775961D01*
X122928325Y-65787355D01*
X122926445Y-65797908D01*
X122923311Y-65807620D01*
X122918923Y-65816490D01*
X122913282Y-65824519D01*
X122911122Y-65827008D01*
X122902854Y-65834621D01*
X122893651Y-65840365D01*
X122883513Y-65844238D01*
X122872440Y-65846242D01*
X122865693Y-65846547D01*
X122854943Y-65845495D01*
X122844916Y-65842340D01*
X122835615Y-65837080D01*
X122827038Y-65829717D01*
X122822462Y-65824565D01*
X122816403Y-65816067D01*
X122811597Y-65807243D01*
X122808045Y-65798093D01*
X122805486Y-65787005D01*
X122804650Y-65777147D01*
X122804633Y-65775472D01*
X122804633Y-65003177D01*
X122804942Y-64992877D01*
X122806159Y-64982912D01*
X122808540Y-64975333D01*
X122814497Y-64966972D01*
X122822072Y-64959817D01*
X122827347Y-64955549D01*
X122835316Y-64948294D01*
X122841635Y-64939715D01*
X122846307Y-64929815D01*
X122849329Y-64918592D01*
X122850588Y-64908230D01*
X122850794Y-64901572D01*
X122850571Y-64891746D01*
X122849579Y-64881129D01*
X122846919Y-64871166D01*
X122844444Y-64867622D01*
X122835783Y-64863048D01*
X122825393Y-64861760D01*
X122676894Y-64861760D01*
X122666101Y-64863271D01*
X122657645Y-64868584D01*
X122653092Y-64877723D01*
X122652225Y-64885940D01*
X122652225Y-64917936D01*
X122652393Y-64927706D01*
X122653172Y-64937949D01*
X122654912Y-64945291D01*
X122662373Y-64951931D01*
X122670787Y-64955549D01*
X122680075Y-64959544D01*
X122689143Y-64965818D01*
X122695944Y-64973707D01*
X122700477Y-64983209D01*
X122702744Y-64994326D01*
X122703028Y-65000490D01*
X122703028Y-65754956D01*
X122703267Y-65768184D01*
X122703985Y-65781063D01*
X122705183Y-65793593D01*
X122706859Y-65805774D01*
X122709014Y-65817605D01*
X122711649Y-65829088D01*
X122714762Y-65840221D01*
X122718354Y-65851005D01*
X122722425Y-65861439D01*
X122726975Y-65871525D01*
X122732004Y-65881261D01*
X122737512Y-65890648D01*
X122743498Y-65899686D01*
X122749964Y-65908375D01*
X122756909Y-65916715D01*
X122764333Y-65924705D01*
X122772153Y-65932276D01*
X122780349Y-65939359D01*
X122788922Y-65945954D01*
X122797870Y-65952060D01*
X122807194Y-65957678D01*
X122816894Y-65962807D01*
X122826970Y-65967447D01*
X122837422Y-65971600D01*
X122848250Y-65975263D01*
X122859454Y-65978438D01*
X122871033Y-65981125D01*
X122882989Y-65983323D01*
X122895320Y-65985033D01*
X122908027Y-65986254D01*
X122921111Y-65986987D01*
X122934570Y-65987231D01*
X122949638Y-65986972D01*
X122964253Y-65986193D01*
X122978413Y-65984895D01*
X122992119Y-65983079D01*
X123005372Y-65980743D01*
X123018170Y-65977889D01*
X123030513Y-65974515D01*
X123042403Y-65970623D01*
X123053839Y-65966211D01*
X123064820Y-65961280D01*
X123075347Y-65955831D01*
X123085420Y-65949862D01*
X123095039Y-65943374D01*
X123104204Y-65936367D01*
X123112915Y-65928842D01*
X123121171Y-65920797D01*
X123128950Y-65912233D01*
X123136227Y-65903212D01*
X123143001Y-65893732D01*
X123149275Y-65883794D01*
X123155046Y-65873399D01*
X123160315Y-65862545D01*
X123165083Y-65851234D01*
X123169348Y-65839464D01*
X123173112Y-65827237D01*
X123176374Y-65814551D01*
X123179134Y-65801408D01*
X123181392Y-65787807D01*
X123183149Y-65773748D01*
X123184403Y-65759230D01*
X123185156Y-65744255D01*
X123185407Y-65728822D01*
X123185407Y-64998536D01*
X123186463Y-64988169D01*
X123189632Y-64978867D01*
X123194913Y-64970629D01*
X123202306Y-64963457D01*
X123211811Y-64957349D01*
X123215449Y-64955549D01*
X123224446Y-64951131D01*
X123232483Y-64945116D01*
X123233767Y-64943337D01*
X123236054Y-64933784D01*
X123236652Y-64923782D01*
X123236698Y-64919401D01*
X123236585Y-64908257D01*
X123236245Y-64898483D01*
X123235538Y-64888566D01*
X123234088Y-64878414D01*
X123232058Y-64871774D01*
X123224371Y-64864928D01*
X123214701Y-64862386D01*
X123204458Y-64861760D01*
G37*
G36*
X121969078Y-65408864D02*
G01*
X121969078Y-65833114D01*
X121967678Y-65844657D01*
X121963479Y-65854741D01*
X121956481Y-65863365D01*
X121948511Y-65869436D01*
X121938597Y-65874494D01*
X121929266Y-65877810D01*
X121919179Y-65880968D01*
X121910051Y-65885195D01*
X121904109Y-65890267D01*
X121900603Y-65899523D01*
X121899301Y-65910142D01*
X121898980Y-65921041D01*
X121899123Y-65931968D01*
X121899673Y-65943096D01*
X121900835Y-65953344D01*
X121903468Y-65962875D01*
X121904842Y-65965005D01*
X121914040Y-65969738D01*
X121924287Y-65971284D01*
X121933418Y-65971600D01*
X122247270Y-65971600D01*
X122257839Y-65971109D01*
X122267800Y-65969346D01*
X122277073Y-65965338D01*
X122281464Y-65961341D01*
X122285914Y-65951552D01*
X122287990Y-65941206D01*
X122289005Y-65929925D01*
X122289280Y-65918599D01*
X122288990Y-65907883D01*
X122287849Y-65898143D01*
X122285617Y-65891732D01*
X122278045Y-65885321D01*
X122268589Y-65880275D01*
X122263146Y-65877810D01*
X122252956Y-65873154D01*
X122243572Y-65868204D01*
X122235234Y-65862575D01*
X122231639Y-65859004D01*
X122227081Y-65849730D01*
X122225444Y-65839838D01*
X122225289Y-65835068D01*
X122225289Y-65003177D01*
X122226004Y-64992715D01*
X122228444Y-64983136D01*
X122232616Y-64975577D01*
X122240332Y-64968181D01*
X122249275Y-64962544D01*
X122258101Y-64958106D01*
X122263879Y-64955549D01*
X122272144Y-64949803D01*
X122277703Y-64941081D01*
X122280375Y-64930830D01*
X122280976Y-64921600D01*
X122280769Y-64911454D01*
X122280492Y-64900390D01*
X122280243Y-64890825D01*
X122277819Y-64880947D01*
X122272798Y-64872007D01*
X122264170Y-64865194D01*
X122254090Y-64862214D01*
X122247270Y-64861760D01*
X121818624Y-64861760D01*
X121808698Y-64862262D01*
X121799085Y-64864241D01*
X121791757Y-64868110D01*
X121785787Y-64876959D01*
X121782640Y-64886351D01*
X121780297Y-64897132D01*
X121780034Y-64898641D01*
X121778378Y-64908525D01*
X121778080Y-64910364D01*
X121747061Y-65064726D01*
X121745424Y-65074984D01*
X121744503Y-65084857D01*
X121744374Y-65089639D01*
X121746435Y-65099362D01*
X121753680Y-65106981D01*
X121762922Y-65110476D01*
X121773354Y-65111778D01*
X121777347Y-65111865D01*
X121787823Y-65111594D01*
X121799469Y-65110493D01*
X121809504Y-65108545D01*
X121819422Y-65105091D01*
X121828062Y-65099519D01*
X121832302Y-65094523D01*
X121837706Y-65084482D01*
X121842297Y-65074305D01*
X121846407Y-65064359D01*
X121850906Y-65052811D01*
X121854536Y-65043098D01*
X121858385Y-65032484D01*
X121862453Y-65020968D01*
X121866740Y-65008550D01*
X121870339Y-64998479D01*
X121873930Y-64989270D01*
X121878408Y-64978972D01*
X121882874Y-64970022D01*
X121888218Y-64961060D01*
X121894431Y-64953057D01*
X121895316Y-64952130D01*
X121903254Y-64945825D01*
X121913146Y-64941322D01*
X121923404Y-64938859D01*
X121933388Y-64937846D01*
X121938792Y-64937720D01*
X121948676Y-64938140D01*
X121958942Y-64938956D01*
X121969078Y-64939918D01*
X121969078Y-65330706D01*
X121933907Y-65330706D01*
X121922745Y-65330110D01*
X121911964Y-65327969D01*
X121902354Y-65323700D01*
X121896049Y-65318250D01*
X121890468Y-65309813D01*
X121886285Y-65299914D01*
X121883226Y-65289399D01*
X121881051Y-65279009D01*
X121880418Y-65275263D01*
X121878527Y-65265103D01*
X121876306Y-65254502D01*
X121873780Y-65244325D01*
X121870635Y-65234710D01*
X121868938Y-65231055D01*
X121859882Y-65225102D01*
X121850127Y-65222898D01*
X121839141Y-65221753D01*
X121828137Y-65221324D01*
X121823265Y-65221285D01*
X121812325Y-65221543D01*
X121802342Y-65222466D01*
X121792404Y-65225111D01*
X121790048Y-65226659D01*
X121785308Y-65235950D01*
X121784209Y-65245750D01*
X121784186Y-65247664D01*
X121784186Y-65493128D01*
X121784976Y-65503340D01*
X121788800Y-65512634D01*
X121789804Y-65513644D01*
X121799133Y-65516816D01*
X121810019Y-65517918D01*
X121821131Y-65518267D01*
X121824730Y-65518285D01*
X121835230Y-65518016D01*
X121846129Y-65516986D01*
X121856501Y-65514807D01*
X121866127Y-65510460D01*
X121869671Y-65507294D01*
X121874544Y-65498443D01*
X121877853Y-65488060D01*
X121880355Y-65476722D01*
X121882203Y-65465556D01*
X121883527Y-65455498D01*
X121883837Y-65452828D01*
X121885848Y-65442524D01*
X121890069Y-65431576D01*
X121896186Y-65422774D01*
X121904199Y-65416120D01*
X121914108Y-65411612D01*
X121925913Y-65409250D01*
X121933907Y-65408864D01*
X121969078Y-65408864D01*
G37*
G36*
X121358026Y-64846284D02*
G01*
X121377271Y-64847526D01*
X121396009Y-64850010D01*
X121414240Y-64853737D01*
X121431962Y-64858706D01*
X121449178Y-64864917D01*
X121465886Y-64872370D01*
X121482086Y-64881065D01*
X121497778Y-64891003D01*
X121512963Y-64902183D01*
X121527641Y-64914605D01*
X121534789Y-64921282D01*
X121541811Y-64928269D01*
X121548705Y-64935567D01*
X121555473Y-64943176D01*
X121562114Y-64951095D01*
X121568628Y-64959324D01*
X121575015Y-64967864D01*
X121581275Y-64976715D01*
X121587408Y-64985876D01*
X121593415Y-64995348D01*
X121599294Y-65005131D01*
X121605019Y-65015148D01*
X121610563Y-65025357D01*
X121615924Y-65035756D01*
X121621104Y-65046347D01*
X121626102Y-65057128D01*
X121630919Y-65068099D01*
X121635553Y-65079262D01*
X121640006Y-65090616D01*
X121644278Y-65102160D01*
X121648367Y-65113895D01*
X121652275Y-65125821D01*
X121656000Y-65137938D01*
X121659545Y-65150245D01*
X121662907Y-65162744D01*
X121666088Y-65175433D01*
X121669087Y-65188313D01*
X121671904Y-65201383D01*
X121674539Y-65214645D01*
X121676993Y-65228098D01*
X121679265Y-65241741D01*
X121681355Y-65255575D01*
X121683263Y-65269600D01*
X121684990Y-65283815D01*
X121686535Y-65298222D01*
X121687898Y-65312819D01*
X121689079Y-65327607D01*
X121690079Y-65342586D01*
X121690897Y-65357756D01*
X121691533Y-65373117D01*
X121691987Y-65388668D01*
X121692260Y-65404410D01*
X121692351Y-65420343D01*
X121692262Y-65435915D01*
X121691997Y-65451307D01*
X121691554Y-65466518D01*
X121690935Y-65481549D01*
X121690138Y-65496400D01*
X121689165Y-65511070D01*
X121688015Y-65525560D01*
X121686687Y-65539870D01*
X121685183Y-65553999D01*
X121683502Y-65567948D01*
X121681643Y-65581717D01*
X121679608Y-65595305D01*
X121677396Y-65608713D01*
X121675007Y-65621941D01*
X121672440Y-65634988D01*
X121669697Y-65647856D01*
X121666777Y-65660542D01*
X121663680Y-65673049D01*
X121660406Y-65685375D01*
X121656955Y-65697521D01*
X121653326Y-65709486D01*
X121649521Y-65721272D01*
X121645539Y-65732876D01*
X121641380Y-65744301D01*
X121637044Y-65755545D01*
X121632531Y-65766609D01*
X121627841Y-65777493D01*
X121622974Y-65788196D01*
X121617930Y-65798719D01*
X121612709Y-65809062D01*
X121607311Y-65819224D01*
X121601737Y-65829206D01*
X121596008Y-65838928D01*
X121590149Y-65848342D01*
X121584160Y-65857447D01*
X121578041Y-65866243D01*
X121571792Y-65874731D01*
X121565412Y-65882910D01*
X121558902Y-65890780D01*
X121552262Y-65898342D01*
X121545492Y-65905595D01*
X121538591Y-65912539D01*
X121524399Y-65925502D01*
X121509687Y-65937231D01*
X121494453Y-65947725D01*
X121478698Y-65956984D01*
X121462423Y-65965009D01*
X121445626Y-65971799D01*
X121428309Y-65977354D01*
X121410471Y-65981675D01*
X121392111Y-65984762D01*
X121373231Y-65986614D01*
X121353830Y-65987231D01*
X121343553Y-65987073D01*
X121333422Y-65986598D01*
X121323438Y-65985808D01*
X121313599Y-65984701D01*
X121294359Y-65981538D01*
X121275703Y-65977110D01*
X121257631Y-65971417D01*
X121240143Y-65964459D01*
X121223238Y-65956236D01*
X121206918Y-65946748D01*
X121191182Y-65935994D01*
X121176029Y-65923976D01*
X121168672Y-65917492D01*
X121161460Y-65910692D01*
X121154395Y-65903576D01*
X121147475Y-65896144D01*
X121140702Y-65888395D01*
X121134074Y-65880330D01*
X121127593Y-65871949D01*
X121121257Y-65863251D01*
X121115068Y-65854237D01*
X121109024Y-65844907D01*
X121103127Y-65835261D01*
X121101041Y-65831648D01*
X121293991Y-65831648D01*
X121294051Y-65835321D01*
X121294952Y-65846074D01*
X121296936Y-65856432D01*
X121300001Y-65866396D01*
X121304149Y-65875964D01*
X121309378Y-65885138D01*
X121313381Y-65890747D01*
X121321140Y-65898765D01*
X121329857Y-65904492D01*
X121339533Y-65907928D01*
X121350166Y-65909073D01*
X121352982Y-65908989D01*
X121363767Y-65906974D01*
X121373788Y-65902273D01*
X121381931Y-65895955D01*
X121389490Y-65887580D01*
X121390496Y-65886202D01*
X121395866Y-65877111D01*
X121400085Y-65866613D01*
X121402722Y-65856788D01*
X121404559Y-65845986D01*
X121405598Y-65834205D01*
X121405854Y-65824077D01*
X121405854Y-64997559D01*
X121405790Y-64993749D01*
X121404831Y-64982767D01*
X121402722Y-64972454D01*
X121399461Y-64962812D01*
X121395051Y-64953839D01*
X121389490Y-64945535D01*
X121386317Y-64941738D01*
X121378465Y-64934330D01*
X121369982Y-64928955D01*
X121359514Y-64925303D01*
X121349678Y-64924286D01*
X121342935Y-64924620D01*
X121330753Y-64927292D01*
X121320312Y-64932634D01*
X121311610Y-64940649D01*
X121304649Y-64951334D01*
X121300571Y-64961101D01*
X121297471Y-64972371D01*
X121295350Y-64985144D01*
X121294208Y-64999419D01*
X121293991Y-65009771D01*
X121293991Y-65831648D01*
X121101041Y-65831648D01*
X121097375Y-65825298D01*
X121091770Y-65815105D01*
X121086343Y-65804769D01*
X121081094Y-65794289D01*
X121076023Y-65783666D01*
X121071130Y-65772899D01*
X121066414Y-65761989D01*
X121061877Y-65750934D01*
X121057518Y-65739737D01*
X121053336Y-65728395D01*
X121049333Y-65716911D01*
X121045507Y-65705282D01*
X121041859Y-65693510D01*
X121038390Y-65681594D01*
X121035098Y-65669535D01*
X121031984Y-65657332D01*
X121029048Y-65644986D01*
X121026290Y-65632496D01*
X121023710Y-65619862D01*
X121021308Y-65607085D01*
X121019084Y-65594164D01*
X121017038Y-65581100D01*
X121015169Y-65567892D01*
X121013479Y-65554540D01*
X121011966Y-65541045D01*
X121010632Y-65527406D01*
X121009475Y-65513624D01*
X121008497Y-65499698D01*
X121007696Y-65485629D01*
X121007073Y-65471416D01*
X121006628Y-65457059D01*
X121006361Y-65442559D01*
X121006272Y-65427915D01*
X121006318Y-65415741D01*
X121006455Y-65403706D01*
X121006683Y-65391809D01*
X121007001Y-65380051D01*
X121007411Y-65368431D01*
X121007913Y-65356949D01*
X121008505Y-65345606D01*
X121009188Y-65334400D01*
X121009963Y-65323334D01*
X121010828Y-65312405D01*
X121011785Y-65301615D01*
X121012833Y-65290963D01*
X121013972Y-65280450D01*
X121015202Y-65270075D01*
X121016523Y-65259838D01*
X121017935Y-65249740D01*
X121019438Y-65239780D01*
X121021033Y-65229958D01*
X121024495Y-65210730D01*
X121028322Y-65192055D01*
X121032513Y-65173933D01*
X121037069Y-65156365D01*
X121041989Y-65139350D01*
X121047274Y-65122888D01*
X121052923Y-65106980D01*
X121058861Y-65091543D01*
X121065013Y-65076556D01*
X121071378Y-65062020D01*
X121077958Y-65047934D01*
X121084751Y-65034298D01*
X121091757Y-65021113D01*
X121098978Y-65008378D01*
X121106412Y-64996094D01*
X121114060Y-64984259D01*
X121121921Y-64972875D01*
X121129997Y-64961942D01*
X121138286Y-64951458D01*
X121146788Y-64941425D01*
X121155505Y-64931842D01*
X121164435Y-64922710D01*
X121173579Y-64914028D01*
X121182905Y-64905806D01*
X121192443Y-64898114D01*
X121202192Y-64890953D01*
X121212154Y-64884322D01*
X121222327Y-64878222D01*
X121232712Y-64872652D01*
X121243309Y-64867612D01*
X121254118Y-64863103D01*
X121265138Y-64859125D01*
X121276371Y-64855677D01*
X121287815Y-64852759D01*
X121299471Y-64850372D01*
X121311338Y-64848516D01*
X121323418Y-64847189D01*
X121335709Y-64846394D01*
X121348212Y-64846128D01*
X121358026Y-64846284D01*
G37*
G36*
X120929117Y-64863580D02*
G01*
X120937982Y-64870306D01*
X120943386Y-64880014D01*
X120946341Y-64890886D01*
X120947692Y-64901404D01*
X120948143Y-64913539D01*
X120948139Y-64915153D01*
X120947883Y-64925309D01*
X120946971Y-64935448D01*
X120943991Y-64945047D01*
X120941996Y-64946979D01*
X120933176Y-64951884D01*
X120923230Y-64955549D01*
X120919237Y-64956907D01*
X120910382Y-64961495D01*
X120901881Y-64969251D01*
X120896568Y-64977591D01*
X120892865Y-64987636D01*
X120890772Y-64999387D01*
X120890257Y-65010015D01*
X120890257Y-65818459D01*
X120890849Y-65829057D01*
X120892623Y-65838747D01*
X120896505Y-65849581D01*
X120902236Y-65858997D01*
X120909814Y-65866993D01*
X120919242Y-65873570D01*
X120928115Y-65877810D01*
X120937013Y-65882991D01*
X120942037Y-65891976D01*
X120942495Y-65894800D01*
X120943372Y-65905200D01*
X120943760Y-65915318D01*
X120943943Y-65925851D01*
X120943991Y-65935940D01*
X120943774Y-65942313D01*
X120942039Y-65953178D01*
X120937823Y-65962685D01*
X120930115Y-65969371D01*
X120919322Y-65971600D01*
X120628673Y-65971600D01*
X120619789Y-65971019D01*
X120610065Y-65968328D01*
X120602295Y-65962318D01*
X120599089Y-65955785D01*
X120596799Y-65945466D01*
X120595683Y-65935242D01*
X120595146Y-65925095D01*
X120594968Y-65913470D01*
X120595040Y-65910111D01*
X120596436Y-65899319D01*
X120599608Y-65890022D01*
X120605409Y-65881230D01*
X120613530Y-65874391D01*
X120616957Y-65872204D01*
X120625132Y-65865781D01*
X120631115Y-65857538D01*
X120631470Y-65856439D01*
X120633219Y-65846318D01*
X120633863Y-65836289D01*
X120634046Y-65825298D01*
X120634046Y-65487022D01*
X120603272Y-65487022D01*
X120593364Y-65487337D01*
X120579700Y-65488989D01*
X120567475Y-65492059D01*
X120556688Y-65496546D01*
X120547339Y-65502449D01*
X120539429Y-65509769D01*
X120532957Y-65518506D01*
X120527923Y-65528660D01*
X120524327Y-65540230D01*
X120522170Y-65553218D01*
X120521450Y-65567622D01*
X120521450Y-65842639D01*
X120521430Y-65846027D01*
X120521118Y-65855989D01*
X120520122Y-65868804D01*
X120518462Y-65881085D01*
X120516138Y-65892831D01*
X120513150Y-65904043D01*
X120509498Y-65914721D01*
X120505182Y-65924865D01*
X120500201Y-65934475D01*
X120497499Y-65938970D01*
X120490344Y-65948940D01*
X120482616Y-65957098D01*
X120474315Y-65963442D01*
X120465443Y-65967974D01*
X120455997Y-65970693D01*
X120445979Y-65971600D01*
X120261820Y-65971600D01*
X120255726Y-65971415D01*
X120245090Y-65969707D01*
X120236419Y-65964028D01*
X120234282Y-65958227D01*
X120232755Y-65948396D01*
X120232011Y-65938379D01*
X120231653Y-65928299D01*
X120231534Y-65916645D01*
X120231552Y-65915085D01*
X120232694Y-65904860D01*
X120236175Y-65894663D01*
X120241976Y-65886053D01*
X120250097Y-65879031D01*
X120254670Y-65875569D01*
X120261492Y-65867107D01*
X120264980Y-65857737D01*
X120265972Y-65848013D01*
X120265972Y-65684370D01*
X120266158Y-65672052D01*
X120266716Y-65660043D01*
X120267645Y-65648342D01*
X120268945Y-65636949D01*
X120270618Y-65625864D01*
X120272661Y-65615087D01*
X120275077Y-65604618D01*
X120277864Y-65594458D01*
X120281023Y-65584606D01*
X120284553Y-65575062D01*
X120288455Y-65565826D01*
X120292728Y-65556898D01*
X120302390Y-65539967D01*
X120313539Y-65524269D01*
X120326174Y-65509803D01*
X120340295Y-65496570D01*
X120347913Y-65490416D01*
X120355902Y-65484570D01*
X120364264Y-65479032D01*
X120372997Y-65473802D01*
X120382101Y-65468880D01*
X120391577Y-65464267D01*
X120401425Y-65459962D01*
X120411644Y-65455965D01*
X120422235Y-65452276D01*
X120433198Y-65448895D01*
X120444532Y-65445822D01*
X120456238Y-65443058D01*
X120443435Y-65438997D01*
X120431039Y-65434659D01*
X120419049Y-65430046D01*
X120407465Y-65425156D01*
X120396288Y-65419990D01*
X120385518Y-65414547D01*
X120375154Y-65408829D01*
X120365196Y-65402834D01*
X120355645Y-65396563D01*
X120346500Y-65390016D01*
X120337762Y-65383193D01*
X120329430Y-65376093D01*
X120321504Y-65368718D01*
X120313985Y-65361066D01*
X120306873Y-65353138D01*
X120300166Y-65344933D01*
X120293867Y-65336453D01*
X120287973Y-65327696D01*
X120282486Y-65318663D01*
X120277406Y-65309354D01*
X120272732Y-65299769D01*
X120268464Y-65289907D01*
X120264603Y-65279769D01*
X120261488Y-65270378D01*
X120521450Y-65270378D01*
X120521716Y-65287148D01*
X120522511Y-65302836D01*
X120523838Y-65317442D01*
X120525694Y-65330966D01*
X120528081Y-65343408D01*
X120530999Y-65354768D01*
X120534447Y-65365046D01*
X120540613Y-65378435D01*
X120547974Y-65389389D01*
X120556527Y-65397910D01*
X120566275Y-65403995D01*
X120577216Y-65407647D01*
X120589350Y-65408864D01*
X120634046Y-65408864D01*
X120634046Y-64939918D01*
X120610599Y-64939918D01*
X120602204Y-64940130D01*
X120591679Y-64941075D01*
X120579596Y-64943318D01*
X120568705Y-64946742D01*
X120559007Y-64951347D01*
X120550501Y-64957132D01*
X120543188Y-64964098D01*
X120536926Y-64972418D01*
X120531725Y-64982421D01*
X120528328Y-64991633D01*
X120525611Y-65001922D01*
X120523573Y-65013287D01*
X120522215Y-65025728D01*
X120521641Y-65035765D01*
X120521450Y-65046408D01*
X120521450Y-65270378D01*
X120261488Y-65270378D01*
X120261149Y-65269356D01*
X120258100Y-65258665D01*
X120255459Y-65247699D01*
X120253223Y-65236456D01*
X120251394Y-65224938D01*
X120249972Y-65213143D01*
X120248956Y-65201072D01*
X120248346Y-65188724D01*
X120248143Y-65176101D01*
X120248490Y-65158347D01*
X120249532Y-65141052D01*
X120251268Y-65124214D01*
X120253699Y-65107835D01*
X120256825Y-65091913D01*
X120260645Y-65076449D01*
X120265160Y-65061444D01*
X120270369Y-65046896D01*
X120276273Y-65032806D01*
X120282871Y-65019175D01*
X120290164Y-65006001D01*
X120298151Y-64993285D01*
X120306833Y-64981027D01*
X120316210Y-64969227D01*
X120326281Y-64957885D01*
X120337047Y-64947001D01*
X120348257Y-64936679D01*
X120359659Y-64927022D01*
X120371253Y-64918032D01*
X120383041Y-64909708D01*
X120395021Y-64902050D01*
X120407194Y-64895057D01*
X120419560Y-64888731D01*
X120432119Y-64883070D01*
X120444870Y-64878076D01*
X120457814Y-64873747D01*
X120470950Y-64870084D01*
X120484280Y-64867088D01*
X120497802Y-64864757D01*
X120511517Y-64863092D01*
X120525424Y-64862093D01*
X120539524Y-64861760D01*
X120919322Y-64861760D01*
X120929117Y-64863580D01*
G37*
G36*
X119830210Y-64862069D02*
G01*
X119840628Y-64864542D01*
X119849050Y-64870553D01*
X119851810Y-64875218D01*
X119854577Y-64884720D01*
X119855794Y-64894727D01*
X119856133Y-64905235D01*
X119856111Y-64910540D01*
X119855894Y-64921431D01*
X119855272Y-64932376D01*
X119853690Y-64942116D01*
X119853134Y-64943479D01*
X119846249Y-64950798D01*
X119837570Y-64955549D01*
X119831075Y-64958682D01*
X119821361Y-64963670D01*
X119812836Y-64968596D01*
X119804842Y-64974844D01*
X119802653Y-64978042D01*
X119799888Y-64987592D01*
X119799224Y-64998048D01*
X119799224Y-65823833D01*
X119799568Y-65830325D01*
X119801667Y-65840487D01*
X119805674Y-65849826D01*
X119811589Y-65858342D01*
X119819413Y-65866036D01*
X119829144Y-65872906D01*
X119838303Y-65877810D01*
X119841621Y-65879543D01*
X119849615Y-65885744D01*
X119855053Y-65894403D01*
X119856866Y-65904921D01*
X119856866Y-65948885D01*
X119856685Y-65952944D01*
X119853981Y-65962727D01*
X119846267Y-65969803D01*
X119836349Y-65971600D01*
X119500271Y-65971600D01*
X119488946Y-65971516D01*
X119477807Y-65971267D01*
X119466855Y-65970850D01*
X119456090Y-65970268D01*
X119445511Y-65969518D01*
X119435118Y-65968603D01*
X119424912Y-65967521D01*
X119414893Y-65966272D01*
X119405060Y-65964857D01*
X119395414Y-65963275D01*
X119376680Y-65959613D01*
X119358693Y-65955284D01*
X119341452Y-65950289D01*
X119324957Y-65944629D01*
X119309208Y-65938302D01*
X119294206Y-65931310D01*
X119279949Y-65923652D01*
X119266438Y-65915327D01*
X119253674Y-65906337D01*
X119241655Y-65896681D01*
X119230383Y-65886359D01*
X119225018Y-65880945D01*
X119214800Y-65869597D01*
X119205263Y-65857556D01*
X119196407Y-65844823D01*
X119188233Y-65831398D01*
X119180740Y-65817279D01*
X119173928Y-65802468D01*
X119167797Y-65786965D01*
X119162347Y-65770768D01*
X119157579Y-65753879D01*
X119153491Y-65736298D01*
X119150085Y-65718023D01*
X119147360Y-65699056D01*
X119146253Y-65689313D01*
X119145317Y-65679397D01*
X119144550Y-65669307D01*
X119143954Y-65659044D01*
X119143529Y-65648608D01*
X119143273Y-65637999D01*
X119143252Y-65635277D01*
X119429685Y-65635277D01*
X119429700Y-65650177D01*
X119429746Y-65664529D01*
X119429822Y-65678333D01*
X119429929Y-65691590D01*
X119430067Y-65704300D01*
X119430234Y-65716461D01*
X119430433Y-65728075D01*
X119430662Y-65739141D01*
X119430921Y-65749660D01*
X119431211Y-65759631D01*
X119431704Y-65773561D01*
X119432265Y-65786258D01*
X119432894Y-65797724D01*
X119433593Y-65807957D01*
X119434439Y-65817232D01*
X119436061Y-65828677D01*
X119438247Y-65839069D01*
X119441775Y-65850577D01*
X119446185Y-65860440D01*
X119451478Y-65868657D01*
X119458994Y-65876345D01*
X119468522Y-65882155D01*
X119478706Y-65886079D01*
X119488321Y-65888617D01*
X119499241Y-65890620D01*
X119511467Y-65892089D01*
X119521493Y-65892841D01*
X119532252Y-65893292D01*
X119543746Y-65893442D01*
X119543746Y-65377601D01*
X119507354Y-65377601D01*
X119501806Y-65377693D01*
X119491497Y-65378432D01*
X119480793Y-65380227D01*
X119470306Y-65383509D01*
X119461681Y-65388103D01*
X119457099Y-65391500D01*
X119449993Y-65398575D01*
X119444356Y-65406887D01*
X119440187Y-65416436D01*
X119439411Y-65418939D01*
X119437287Y-65429747D01*
X119436043Y-65439700D01*
X119434936Y-65451851D01*
X119434196Y-65462407D01*
X119433534Y-65474199D01*
X119432948Y-65487228D01*
X119432440Y-65501493D01*
X119432145Y-65511690D01*
X119431883Y-65522437D01*
X119431748Y-65527871D01*
X119431490Y-65538369D01*
X119431136Y-65553194D01*
X119430821Y-65566912D01*
X119430544Y-65579521D01*
X119430305Y-65591023D01*
X119430106Y-65601417D01*
X119429900Y-65613553D01*
X119429762Y-65623719D01*
X119429685Y-65635277D01*
X119143252Y-65635277D01*
X119143188Y-65627217D01*
X119143373Y-65613122D01*
X119143928Y-65599412D01*
X119144854Y-65586087D01*
X119146150Y-65573148D01*
X119147815Y-65560594D01*
X119149851Y-65548426D01*
X119152257Y-65536643D01*
X119155034Y-65525246D01*
X119158180Y-65514234D01*
X119161697Y-65503607D01*
X119165584Y-65493366D01*
X119169841Y-65483511D01*
X119174468Y-65474041D01*
X119179466Y-65464956D01*
X119184833Y-65456257D01*
X119190571Y-65447943D01*
X119196800Y-65439904D01*
X119203642Y-65432029D01*
X119211096Y-65424318D01*
X119219163Y-65416771D01*
X119227842Y-65409389D01*
X119237134Y-65402170D01*
X119247038Y-65395116D01*
X119257555Y-65388225D01*
X119268684Y-65381499D01*
X119280426Y-65374937D01*
X119292780Y-65368539D01*
X119305747Y-65362305D01*
X119319326Y-65356235D01*
X119333518Y-65350330D01*
X119348322Y-65344588D01*
X119363739Y-65339011D01*
X119353431Y-65336261D01*
X119343326Y-65333202D01*
X119333426Y-65329834D01*
X119323729Y-65326157D01*
X119314237Y-65322171D01*
X119304949Y-65317876D01*
X119295866Y-65313272D01*
X119286986Y-65308358D01*
X119278311Y-65303135D01*
X119269839Y-65297604D01*
X119261572Y-65291763D01*
X119253509Y-65285613D01*
X119245651Y-65279154D01*
X119237996Y-65272386D01*
X119230546Y-65265308D01*
X119223300Y-65257922D01*
X119216349Y-65250238D01*
X119209847Y-65242329D01*
X119203794Y-65234194D01*
X119198188Y-65225834D01*
X119193032Y-65217250D01*
X119188323Y-65208440D01*
X119184063Y-65199405D01*
X119180252Y-65190145D01*
X119176889Y-65180659D01*
X119173974Y-65170949D01*
X119171508Y-65161013D01*
X119169490Y-65150852D01*
X119167921Y-65140466D01*
X119166799Y-65129855D01*
X119166127Y-65119018D01*
X119165903Y-65107957D01*
X119166144Y-65096722D01*
X119427487Y-65096722D01*
X119427515Y-65109742D01*
X119427598Y-65122333D01*
X119427738Y-65134494D01*
X119427933Y-65146227D01*
X119428184Y-65157530D01*
X119428491Y-65168403D01*
X119428854Y-65178847D01*
X119429273Y-65188862D01*
X119429918Y-65201548D01*
X119430662Y-65213470D01*
X119431094Y-65219138D01*
X119432353Y-65229862D01*
X119434139Y-65239769D01*
X119437113Y-65251004D01*
X119440909Y-65260963D01*
X119446550Y-65271230D01*
X119453376Y-65279660D01*
X119458494Y-65284296D01*
X119467044Y-65290092D01*
X119476641Y-65294497D01*
X119487285Y-65297511D01*
X119496956Y-65298960D01*
X119507354Y-65299443D01*
X119543746Y-65299443D01*
X119543746Y-64939918D01*
X119507354Y-64939918D01*
X119502194Y-64940031D01*
X119490085Y-64941309D01*
X119479110Y-64944005D01*
X119469267Y-64948121D01*
X119460558Y-64953655D01*
X119452981Y-64960609D01*
X119446538Y-64968983D01*
X119444231Y-64972888D01*
X119440063Y-64982329D01*
X119436491Y-64993946D01*
X119434203Y-65004086D01*
X119432249Y-65015450D01*
X119430631Y-65028037D01*
X119429347Y-65041848D01*
X119428677Y-65051735D01*
X119428156Y-65062166D01*
X119427784Y-65073141D01*
X119427561Y-65084659D01*
X119427487Y-65096722D01*
X119166144Y-65096722D01*
X119166187Y-65094702D01*
X119167040Y-65081743D01*
X119168461Y-65069079D01*
X119170452Y-65056712D01*
X119173010Y-65044640D01*
X119176138Y-65032864D01*
X119179834Y-65021383D01*
X119184099Y-65010199D01*
X119188932Y-64999310D01*
X119194334Y-64988717D01*
X119200305Y-64978419D01*
X119206844Y-64968418D01*
X119213952Y-64958712D01*
X119221628Y-64949302D01*
X119229873Y-64940188D01*
X119238687Y-64931369D01*
X119248032Y-64922940D01*
X119257872Y-64915055D01*
X119268205Y-64907713D01*
X119279033Y-64900915D01*
X119290355Y-64894661D01*
X119302171Y-64888951D01*
X119314481Y-64883785D01*
X119327286Y-64879162D01*
X119340585Y-64875084D01*
X119354378Y-64871549D01*
X119368665Y-64868558D01*
X119383447Y-64866111D01*
X119398722Y-64864207D01*
X119414492Y-64862848D01*
X119430756Y-64862032D01*
X119447515Y-64861760D01*
X119823893Y-64861760D01*
X119830210Y-64862069D01*
G37*
G36*
X119065030Y-64861760D02*
G01*
X118767787Y-64861760D01*
X118757975Y-64862722D01*
X118749367Y-64867377D01*
X118748492Y-64868599D01*
X118745803Y-64878552D01*
X118744830Y-64889245D01*
X118744441Y-64899549D01*
X118744339Y-64909632D01*
X118744822Y-64919897D01*
X118746677Y-64930705D01*
X118750599Y-64941231D01*
X118756414Y-64949512D01*
X118764123Y-64955549D01*
X118772610Y-64960811D01*
X118780212Y-64967314D01*
X118784395Y-64972890D01*
X118787716Y-64982776D01*
X118789024Y-64992831D01*
X118789504Y-65003974D01*
X118789524Y-65007084D01*
X118789524Y-65775961D01*
X118788898Y-65787355D01*
X118787017Y-65797908D01*
X118783883Y-65807620D01*
X118779495Y-65816490D01*
X118773854Y-65824519D01*
X118771695Y-65827008D01*
X118763427Y-65834621D01*
X118754224Y-65840365D01*
X118744086Y-65844238D01*
X118733013Y-65846242D01*
X118726266Y-65846547D01*
X118715515Y-65845495D01*
X118705489Y-65842340D01*
X118696187Y-65837080D01*
X118687610Y-65829717D01*
X118683035Y-65824565D01*
X118676975Y-65816067D01*
X118672170Y-65807243D01*
X118668618Y-65798093D01*
X118666058Y-65787005D01*
X118665222Y-65777147D01*
X118665205Y-65775472D01*
X118665205Y-65003177D01*
X118665514Y-64992877D01*
X118666731Y-64982912D01*
X118669113Y-64975333D01*
X118675070Y-64966972D01*
X118682644Y-64959817D01*
X118687919Y-64955549D01*
X118695888Y-64948294D01*
X118702208Y-64939715D01*
X118706879Y-64929815D01*
X118709901Y-64918592D01*
X118711161Y-64908230D01*
X118711367Y-64901572D01*
X118711143Y-64891746D01*
X118710151Y-64881129D01*
X118707491Y-64871166D01*
X118705016Y-64867622D01*
X118696355Y-64863048D01*
X118685965Y-64861760D01*
X118537466Y-64861760D01*
X118526673Y-64863271D01*
X118518218Y-64868584D01*
X118513665Y-64877723D01*
X118512797Y-64885940D01*
X118512797Y-64917936D01*
X118512965Y-64927706D01*
X118513744Y-64937949D01*
X118515484Y-64945291D01*
X118522945Y-64951931D01*
X118531360Y-64955549D01*
X118540648Y-64959544D01*
X118549715Y-64965818D01*
X118556516Y-64973707D01*
X118561050Y-64983209D01*
X118563316Y-64994326D01*
X118563600Y-65000490D01*
X118563600Y-65754956D01*
X118563839Y-65768184D01*
X118564558Y-65781063D01*
X118565755Y-65793593D01*
X118567431Y-65805774D01*
X118569587Y-65817605D01*
X118572221Y-65829088D01*
X118575334Y-65840221D01*
X118578926Y-65851005D01*
X118582997Y-65861439D01*
X118587547Y-65871525D01*
X118592576Y-65881261D01*
X118598084Y-65890648D01*
X118604071Y-65899686D01*
X118610536Y-65908375D01*
X118617481Y-65916715D01*
X118624905Y-65924705D01*
X118632725Y-65932276D01*
X118640922Y-65939359D01*
X118649494Y-65945954D01*
X118658442Y-65952060D01*
X118667766Y-65957678D01*
X118677467Y-65962807D01*
X118687543Y-65967447D01*
X118697994Y-65971600D01*
X118708822Y-65975263D01*
X118720026Y-65978438D01*
X118731605Y-65981125D01*
X118743561Y-65983323D01*
X118755892Y-65985033D01*
X118768600Y-65986254D01*
X118781683Y-65986987D01*
X118795142Y-65987231D01*
X118810211Y-65986972D01*
X118824825Y-65986193D01*
X118838985Y-65984895D01*
X118852692Y-65983079D01*
X118865944Y-65980743D01*
X118878742Y-65977889D01*
X118891086Y-65974515D01*
X118902975Y-65970623D01*
X118914411Y-65966211D01*
X118925392Y-65961280D01*
X118935919Y-65955831D01*
X118945992Y-65949862D01*
X118955611Y-65943374D01*
X118964776Y-65936367D01*
X118973487Y-65928842D01*
X118981744Y-65920797D01*
X118989522Y-65912233D01*
X118996799Y-65903212D01*
X119003574Y-65893732D01*
X119009847Y-65883794D01*
X119015618Y-65873399D01*
X119020887Y-65862545D01*
X119025655Y-65851234D01*
X119029920Y-65839464D01*
X119033684Y-65827237D01*
X119036946Y-65814551D01*
X119039706Y-65801408D01*
X119041965Y-65787807D01*
X119043721Y-65773748D01*
X119044976Y-65759230D01*
X119045728Y-65744255D01*
X119045979Y-65728822D01*
X119045979Y-64998536D01*
X119047036Y-64988169D01*
X119050204Y-64978867D01*
X119055485Y-64970629D01*
X119062878Y-64963457D01*
X119072383Y-64957349D01*
X119076021Y-64955549D01*
X119085018Y-64951131D01*
X119093055Y-64945116D01*
X119094339Y-64943337D01*
X119096626Y-64933784D01*
X119097225Y-64923782D01*
X119097270Y-64919401D01*
X119097157Y-64908257D01*
X119096817Y-64898483D01*
X119096110Y-64888566D01*
X119094660Y-64878414D01*
X119092630Y-64871774D01*
X119084943Y-64864928D01*
X119075273Y-64862386D01*
X119065030Y-64861760D01*
G37*
G36*
X118459519Y-64862069D02*
G01*
X118469937Y-64864542D01*
X118478359Y-64870553D01*
X118481119Y-64875218D01*
X118483886Y-64884720D01*
X118485103Y-64894727D01*
X118485442Y-64905235D01*
X118485421Y-64910540D01*
X118485204Y-64921431D01*
X118484581Y-64932376D01*
X118483000Y-64942116D01*
X118482443Y-64943479D01*
X118475558Y-64950798D01*
X118466880Y-64955549D01*
X118460384Y-64958682D01*
X118450670Y-64963670D01*
X118442145Y-64968596D01*
X118434151Y-64974844D01*
X118431962Y-64978042D01*
X118429197Y-64987592D01*
X118428533Y-64998048D01*
X118428533Y-65823833D01*
X118428877Y-65830325D01*
X118430976Y-65840487D01*
X118434983Y-65849826D01*
X118440898Y-65858342D01*
X118448722Y-65866036D01*
X118458453Y-65872906D01*
X118467612Y-65877810D01*
X118470930Y-65879543D01*
X118478924Y-65885744D01*
X118484362Y-65894403D01*
X118486175Y-65904921D01*
X118486175Y-65948885D01*
X118485994Y-65952944D01*
X118483290Y-65962727D01*
X118475576Y-65969803D01*
X118465658Y-65971600D01*
X118129580Y-65971600D01*
X118118255Y-65971516D01*
X118107117Y-65971267D01*
X118096165Y-65970850D01*
X118085399Y-65970268D01*
X118074820Y-65969518D01*
X118064428Y-65968603D01*
X118054222Y-65967521D01*
X118044202Y-65966272D01*
X118034369Y-65964857D01*
X118024723Y-65963275D01*
X118005990Y-65959613D01*
X117988002Y-65955284D01*
X117970761Y-65950289D01*
X117954266Y-65944629D01*
X117938517Y-65938302D01*
X117923515Y-65931310D01*
X117909258Y-65923652D01*
X117895747Y-65915327D01*
X117882983Y-65906337D01*
X117870964Y-65896681D01*
X117859692Y-65886359D01*
X117854327Y-65880945D01*
X117844109Y-65869597D01*
X117834572Y-65857556D01*
X117825717Y-65844823D01*
X117817542Y-65831398D01*
X117810049Y-65817279D01*
X117803237Y-65802468D01*
X117797106Y-65786965D01*
X117791656Y-65770768D01*
X117786888Y-65753879D01*
X117782800Y-65736298D01*
X117779394Y-65718023D01*
X117776670Y-65699056D01*
X117775563Y-65689313D01*
X117774626Y-65679397D01*
X117773860Y-65669307D01*
X117773264Y-65659044D01*
X117772838Y-65648608D01*
X117772582Y-65637999D01*
X117772561Y-65635277D01*
X118058994Y-65635277D01*
X118059009Y-65650177D01*
X118059055Y-65664529D01*
X118059131Y-65678333D01*
X118059238Y-65691590D01*
X118059376Y-65704300D01*
X118059544Y-65716461D01*
X118059742Y-65728075D01*
X118059971Y-65739141D01*
X118060231Y-65749660D01*
X118060521Y-65759631D01*
X118061013Y-65773561D01*
X118061574Y-65786258D01*
X118062204Y-65797724D01*
X118062902Y-65807957D01*
X118063748Y-65817232D01*
X118065370Y-65828677D01*
X118067556Y-65839069D01*
X118071084Y-65850577D01*
X118075494Y-65860440D01*
X118080787Y-65868657D01*
X118088303Y-65876345D01*
X118097832Y-65882155D01*
X118108015Y-65886079D01*
X118117630Y-65888617D01*
X118128551Y-65890620D01*
X118140776Y-65892089D01*
X118150802Y-65892841D01*
X118161562Y-65893292D01*
X118173055Y-65893442D01*
X118173055Y-65377601D01*
X118136663Y-65377601D01*
X118131116Y-65377693D01*
X118120806Y-65378432D01*
X118110102Y-65380227D01*
X118099615Y-65383509D01*
X118090990Y-65388103D01*
X118086408Y-65391500D01*
X118079302Y-65398575D01*
X118073665Y-65406887D01*
X118069496Y-65416436D01*
X118068720Y-65418939D01*
X118066596Y-65429747D01*
X118065352Y-65439700D01*
X118064245Y-65451851D01*
X118063505Y-65462407D01*
X118062843Y-65474199D01*
X118062257Y-65487228D01*
X118061749Y-65501493D01*
X118061454Y-65511690D01*
X118061192Y-65522437D01*
X118061057Y-65527871D01*
X118060799Y-65538369D01*
X118060445Y-65553194D01*
X118060130Y-65566912D01*
X118059853Y-65579521D01*
X118059614Y-65591023D01*
X118059415Y-65601417D01*
X118059209Y-65613553D01*
X118059071Y-65623719D01*
X118058994Y-65635277D01*
X117772561Y-65635277D01*
X117772497Y-65627217D01*
X117772682Y-65613122D01*
X117773238Y-65599412D01*
X117774163Y-65586087D01*
X117775459Y-65573148D01*
X117777124Y-65560594D01*
X117779160Y-65548426D01*
X117781567Y-65536643D01*
X117784343Y-65525246D01*
X117787490Y-65514234D01*
X117791006Y-65503607D01*
X117794893Y-65493366D01*
X117799150Y-65483511D01*
X117803777Y-65474041D01*
X117808775Y-65464956D01*
X117814143Y-65456257D01*
X117819880Y-65447943D01*
X117826109Y-65439904D01*
X117832951Y-65432029D01*
X117840405Y-65424318D01*
X117848472Y-65416771D01*
X117857151Y-65409389D01*
X117866443Y-65402170D01*
X117876347Y-65395116D01*
X117886864Y-65388225D01*
X117897993Y-65381499D01*
X117909735Y-65374937D01*
X117922089Y-65368539D01*
X117935056Y-65362305D01*
X117948635Y-65356235D01*
X117962827Y-65350330D01*
X117977632Y-65344588D01*
X117993048Y-65339011D01*
X117982740Y-65336261D01*
X117972635Y-65333202D01*
X117962735Y-65329834D01*
X117953038Y-65326157D01*
X117943546Y-65322171D01*
X117934258Y-65317876D01*
X117925175Y-65313272D01*
X117916295Y-65308358D01*
X117907620Y-65303135D01*
X117899149Y-65297604D01*
X117890882Y-65291763D01*
X117882819Y-65285613D01*
X117874960Y-65279154D01*
X117867305Y-65272386D01*
X117859855Y-65265308D01*
X117852609Y-65257922D01*
X117845658Y-65250238D01*
X117839156Y-65242329D01*
X117833103Y-65234194D01*
X117827498Y-65225834D01*
X117822341Y-65217250D01*
X117817633Y-65208440D01*
X117813373Y-65199405D01*
X117809561Y-65190145D01*
X117806198Y-65180659D01*
X117803283Y-65170949D01*
X117800817Y-65161013D01*
X117798799Y-65150852D01*
X117797230Y-65140466D01*
X117796109Y-65129855D01*
X117795436Y-65119018D01*
X117795212Y-65107957D01*
X117795453Y-65096722D01*
X118056796Y-65096722D01*
X118056824Y-65109742D01*
X118056907Y-65122333D01*
X118057047Y-65134494D01*
X118057242Y-65146227D01*
X118057494Y-65157530D01*
X118057801Y-65168403D01*
X118058163Y-65178847D01*
X118058582Y-65188862D01*
X118059227Y-65201548D01*
X118059971Y-65213470D01*
X118060403Y-65219138D01*
X118061663Y-65229862D01*
X118063449Y-65239769D01*
X118066422Y-65251004D01*
X118070218Y-65260963D01*
X118075859Y-65271230D01*
X118082686Y-65279660D01*
X118087803Y-65284296D01*
X118096353Y-65290092D01*
X118105950Y-65294497D01*
X118116594Y-65297511D01*
X118126265Y-65298960D01*
X118136663Y-65299443D01*
X118173055Y-65299443D01*
X118173055Y-64939918D01*
X118136663Y-64939918D01*
X118131503Y-64940031D01*
X118119394Y-64941309D01*
X118108419Y-64944005D01*
X118098576Y-64948121D01*
X118089867Y-64953655D01*
X118082290Y-64960609D01*
X118075847Y-64968983D01*
X118073540Y-64972888D01*
X118069372Y-64982329D01*
X118065800Y-64993946D01*
X118063512Y-65004086D01*
X118061559Y-65015450D01*
X118059940Y-65028037D01*
X118058656Y-65041848D01*
X118057987Y-65051735D01*
X118057466Y-65062166D01*
X118057094Y-65073141D01*
X118056870Y-65084659D01*
X118056796Y-65096722D01*
X117795453Y-65096722D01*
X117795496Y-65094702D01*
X117796349Y-65081743D01*
X117797771Y-65069079D01*
X117799761Y-65056712D01*
X117802320Y-65044640D01*
X117805447Y-65032864D01*
X117809143Y-65021383D01*
X117813408Y-65010199D01*
X117818241Y-64999310D01*
X117823643Y-64988717D01*
X117829614Y-64978419D01*
X117836153Y-64968418D01*
X117843261Y-64958712D01*
X117850937Y-64949302D01*
X117859182Y-64940188D01*
X117867996Y-64931369D01*
X117877341Y-64922940D01*
X117887181Y-64915055D01*
X117897514Y-64907713D01*
X117908342Y-64900915D01*
X117919664Y-64894661D01*
X117931480Y-64888951D01*
X117943791Y-64883785D01*
X117956595Y-64879162D01*
X117969894Y-64875084D01*
X117983687Y-64871549D01*
X117997974Y-64868558D01*
X118012756Y-64866111D01*
X118028032Y-64864207D01*
X118043801Y-64862848D01*
X118060065Y-64862032D01*
X118076824Y-64861760D01*
X118453202Y-64861760D01*
X118459519Y-64862069D01*
G37*
G36*
X117694339Y-64861760D02*
G01*
X117397096Y-64861760D01*
X117387284Y-64862722D01*
X117378676Y-64867377D01*
X117377801Y-64868599D01*
X117375112Y-64878552D01*
X117374139Y-64889245D01*
X117373750Y-64899549D01*
X117373649Y-64909632D01*
X117374132Y-64919897D01*
X117375986Y-64930705D01*
X117379908Y-64941231D01*
X117385724Y-64949512D01*
X117393432Y-64955549D01*
X117401919Y-64960811D01*
X117409521Y-64967314D01*
X117413704Y-64972890D01*
X117417025Y-64982776D01*
X117418333Y-64992831D01*
X117418814Y-65003974D01*
X117418834Y-65007084D01*
X117418834Y-65775961D01*
X117418207Y-65787355D01*
X117416326Y-65797908D01*
X117413192Y-65807620D01*
X117408804Y-65816490D01*
X117403163Y-65824519D01*
X117401004Y-65827008D01*
X117392736Y-65834621D01*
X117383533Y-65840365D01*
X117373395Y-65844238D01*
X117362322Y-65846242D01*
X117355575Y-65846547D01*
X117344824Y-65845495D01*
X117334798Y-65842340D01*
X117325496Y-65837080D01*
X117316919Y-65829717D01*
X117312344Y-65824565D01*
X117306284Y-65816067D01*
X117301479Y-65807243D01*
X117297927Y-65798093D01*
X117295367Y-65787005D01*
X117294531Y-65777147D01*
X117294514Y-65775472D01*
X117294514Y-65003177D01*
X117294823Y-64992877D01*
X117296040Y-64982912D01*
X117298422Y-64975333D01*
X117304379Y-64966972D01*
X117311953Y-64959817D01*
X117317229Y-64955549D01*
X117325197Y-64948294D01*
X117331517Y-64939715D01*
X117336188Y-64929815D01*
X117339210Y-64918592D01*
X117340470Y-64908230D01*
X117340676Y-64901572D01*
X117340453Y-64891746D01*
X117339460Y-64881129D01*
X117336800Y-64871166D01*
X117334326Y-64867622D01*
X117325664Y-64863048D01*
X117315275Y-64861760D01*
X117166775Y-64861760D01*
X117155982Y-64863271D01*
X117147527Y-64868584D01*
X117142974Y-64877723D01*
X117142106Y-64885940D01*
X117142106Y-64917936D01*
X117142274Y-64927706D01*
X117143054Y-64937949D01*
X117144793Y-64945291D01*
X117152254Y-64951931D01*
X117160669Y-64955549D01*
X117169957Y-64959544D01*
X117179024Y-64965818D01*
X117185825Y-64973707D01*
X117190359Y-64983209D01*
X117192626Y-64994326D01*
X117192909Y-65000490D01*
X117192909Y-65754956D01*
X117193148Y-65768184D01*
X117193867Y-65781063D01*
X117195064Y-65793593D01*
X117196740Y-65805774D01*
X117198896Y-65817605D01*
X117201530Y-65829088D01*
X117204643Y-65840221D01*
X117208235Y-65851005D01*
X117212306Y-65861439D01*
X117216856Y-65871525D01*
X117221885Y-65881261D01*
X117227393Y-65890648D01*
X117233380Y-65899686D01*
X117239846Y-65908375D01*
X117246790Y-65916715D01*
X117254214Y-65924705D01*
X117262034Y-65932276D01*
X117270231Y-65939359D01*
X117278803Y-65945954D01*
X117287751Y-65952060D01*
X117297076Y-65957678D01*
X117306776Y-65962807D01*
X117316852Y-65967447D01*
X117327304Y-65971600D01*
X117338131Y-65975263D01*
X117349335Y-65978438D01*
X117360915Y-65981125D01*
X117372870Y-65983323D01*
X117385202Y-65985033D01*
X117397909Y-65986254D01*
X117410992Y-65986987D01*
X117424451Y-65987231D01*
X117439520Y-65986972D01*
X117454134Y-65986193D01*
X117468295Y-65984895D01*
X117482001Y-65983079D01*
X117495253Y-65980743D01*
X117508051Y-65977889D01*
X117520395Y-65974515D01*
X117532284Y-65970623D01*
X117543720Y-65966211D01*
X117554701Y-65961280D01*
X117565229Y-65955831D01*
X117575302Y-65949862D01*
X117584921Y-65943374D01*
X117594085Y-65936367D01*
X117602796Y-65928842D01*
X117611053Y-65920797D01*
X117618831Y-65912233D01*
X117626108Y-65903212D01*
X117632883Y-65893732D01*
X117639156Y-65883794D01*
X117644927Y-65873399D01*
X117650196Y-65862545D01*
X117654964Y-65851234D01*
X117659230Y-65839464D01*
X117662993Y-65827237D01*
X117666255Y-65814551D01*
X117669016Y-65801408D01*
X117671274Y-65787807D01*
X117673030Y-65773748D01*
X117674285Y-65759230D01*
X117675038Y-65744255D01*
X117675289Y-65728822D01*
X117675289Y-64998536D01*
X117676345Y-64988169D01*
X117679513Y-64978867D01*
X117684794Y-64970629D01*
X117692187Y-64963457D01*
X117701693Y-64957349D01*
X117705330Y-64955549D01*
X117714327Y-64951131D01*
X117722364Y-64945116D01*
X117723649Y-64943337D01*
X117725936Y-64933784D01*
X117726534Y-64923782D01*
X117726580Y-64919401D01*
X117726466Y-64908257D01*
X117726126Y-64898483D01*
X117725419Y-64888566D01*
X117723969Y-64878414D01*
X117721939Y-64871774D01*
X117714252Y-64864928D01*
X117704582Y-64862386D01*
X117694339Y-64861760D01*
G37*
G36*
X115938233Y-65799653D02*
G01*
X116702225Y-65483114D01*
X116702225Y-65350978D01*
X115938233Y-65033707D01*
X115938233Y-65192709D01*
X116500969Y-65416436D01*
X115938233Y-65640650D01*
X115938233Y-65799653D01*
G37*
G36*
X115448282Y-65390057D02*
G01*
X115433150Y-65394135D01*
X115418499Y-65398522D01*
X115404328Y-65403218D01*
X115390637Y-65408223D01*
X115377427Y-65413537D01*
X115364697Y-65419160D01*
X115352447Y-65425093D01*
X115340678Y-65431334D01*
X115329389Y-65437885D01*
X115318581Y-65444745D01*
X115308253Y-65451914D01*
X115298405Y-65459392D01*
X115289038Y-65467179D01*
X115280151Y-65475275D01*
X115271744Y-65483681D01*
X115263818Y-65492395D01*
X115256372Y-65501419D01*
X115249407Y-65510751D01*
X115242921Y-65520393D01*
X115236917Y-65530344D01*
X115231392Y-65540604D01*
X115226349Y-65551174D01*
X115221785Y-65562052D01*
X115217702Y-65573239D01*
X115214099Y-65584736D01*
X115210976Y-65596542D01*
X115208334Y-65608657D01*
X115206173Y-65621080D01*
X115204491Y-65633814D01*
X115203290Y-65646856D01*
X115202570Y-65660207D01*
X115202330Y-65673867D01*
X115202507Y-65685502D01*
X115203040Y-65696960D01*
X115203927Y-65708240D01*
X115205169Y-65719342D01*
X115206766Y-65730268D01*
X115208718Y-65741015D01*
X115211025Y-65751585D01*
X115213687Y-65761978D01*
X115216704Y-65772193D01*
X115220075Y-65782231D01*
X115223802Y-65792092D01*
X115227884Y-65801774D01*
X115232320Y-65811280D01*
X115237111Y-65820608D01*
X115242258Y-65829758D01*
X115247759Y-65838731D01*
X115253541Y-65847460D01*
X115259589Y-65855939D01*
X115265905Y-65864168D01*
X115272488Y-65872147D01*
X115279339Y-65879876D01*
X115286456Y-65887355D01*
X115293841Y-65894584D01*
X115301492Y-65901563D01*
X115309411Y-65908292D01*
X115317597Y-65914771D01*
X115326050Y-65921000D01*
X115334770Y-65926979D01*
X115343758Y-65932709D01*
X115353012Y-65938188D01*
X115362534Y-65943417D01*
X115372323Y-65948396D01*
X115382283Y-65953099D01*
X115392320Y-65957498D01*
X115402433Y-65961594D01*
X115412623Y-65965387D01*
X115422889Y-65968876D01*
X115433231Y-65972061D01*
X115443649Y-65974944D01*
X115454144Y-65977522D01*
X115464715Y-65979798D01*
X115475363Y-65981770D01*
X115486086Y-65983439D01*
X115496887Y-65984804D01*
X115507763Y-65985866D01*
X115518716Y-65986624D01*
X115529745Y-65987079D01*
X115540850Y-65987231D01*
X115555715Y-65986948D01*
X115570205Y-65986098D01*
X115584322Y-65984681D01*
X115598064Y-65982697D01*
X115611433Y-65980147D01*
X115624427Y-65977030D01*
X115637048Y-65973346D01*
X115649294Y-65969096D01*
X115661167Y-65964279D01*
X115672665Y-65958895D01*
X115683790Y-65952944D01*
X115694540Y-65946427D01*
X115704917Y-65939343D01*
X115714919Y-65931693D01*
X115724548Y-65923475D01*
X115733802Y-65914691D01*
X115742557Y-65905499D01*
X115750746Y-65896121D01*
X115758371Y-65886555D01*
X115765432Y-65876803D01*
X115771927Y-65866863D01*
X115777857Y-65856737D01*
X115783223Y-65846423D01*
X115788024Y-65835923D01*
X115792260Y-65825235D01*
X115795931Y-65814361D01*
X115799038Y-65803299D01*
X115801580Y-65792050D01*
X115803556Y-65780615D01*
X115804968Y-65768992D01*
X115805816Y-65757183D01*
X115806098Y-65745186D01*
X115805701Y-65733257D01*
X115804510Y-65721770D01*
X115802526Y-65710725D01*
X115799748Y-65700124D01*
X115796176Y-65689965D01*
X115791810Y-65680248D01*
X115786650Y-65670975D01*
X115780697Y-65662144D01*
X115774014Y-65654072D01*
X115766668Y-65647077D01*
X115758658Y-65641158D01*
X115749983Y-65636315D01*
X115740645Y-65632548D01*
X115730642Y-65629858D01*
X115719976Y-65628244D01*
X115708645Y-65627706D01*
X115697612Y-65628171D01*
X115687228Y-65629568D01*
X115677493Y-65631896D01*
X115666236Y-65636115D01*
X115655993Y-65641790D01*
X115646763Y-65648919D01*
X115638547Y-65657503D01*
X115631441Y-65667149D01*
X115625539Y-65677462D01*
X115620841Y-65688444D01*
X115617348Y-65700093D01*
X115615421Y-65709893D01*
X115614264Y-65720121D01*
X115613879Y-65730776D01*
X115614352Y-65741217D01*
X115615328Y-65751052D01*
X115616837Y-65762604D01*
X115618500Y-65773542D01*
X115620534Y-65785673D01*
X115621450Y-65790860D01*
X115623458Y-65801050D01*
X115624808Y-65810738D01*
X115625538Y-65820913D01*
X115625603Y-65824810D01*
X115624950Y-65835151D01*
X115622992Y-65844925D01*
X115619059Y-65855613D01*
X115614273Y-65864159D01*
X115608182Y-65872139D01*
X115607040Y-65873414D01*
X115599573Y-65880220D01*
X115591092Y-65885618D01*
X115581598Y-65889608D01*
X115571091Y-65892190D01*
X115559570Y-65893364D01*
X115555505Y-65893442D01*
X115545044Y-65892900D01*
X115535279Y-65891274D01*
X115524048Y-65887718D01*
X115513902Y-65882468D01*
X115504842Y-65875525D01*
X115496868Y-65866888D01*
X115491269Y-65858759D01*
X115486346Y-65849371D01*
X115482079Y-65838670D01*
X115478469Y-65826657D01*
X115476192Y-65816785D01*
X115474285Y-65806175D01*
X115472746Y-65794826D01*
X115471577Y-65782739D01*
X115470777Y-65769913D01*
X115470346Y-65756349D01*
X115470264Y-65746896D01*
X115470356Y-65737004D01*
X115470630Y-65727112D01*
X115471088Y-65717221D01*
X115471730Y-65707329D01*
X115479790Y-65543442D01*
X115482617Y-65531756D01*
X115485850Y-65520880D01*
X115489487Y-65510812D01*
X115493528Y-65501554D01*
X115499149Y-65491119D01*
X115505402Y-65481948D01*
X115512287Y-65474041D01*
X115513739Y-65472611D01*
X115521056Y-65466019D01*
X115530009Y-65459241D01*
X115539151Y-65453700D01*
X115548482Y-65449395D01*
X115558001Y-65446327D01*
X115562832Y-65445256D01*
X115573523Y-65443513D01*
X115584071Y-65442336D01*
X115596110Y-65441409D01*
X115606815Y-65440848D01*
X115618474Y-65440448D01*
X115631087Y-65440207D01*
X115641172Y-65440132D01*
X115644654Y-65440127D01*
X115664681Y-65440860D01*
X115674715Y-65439218D01*
X115682885Y-65432750D01*
X115686406Y-65422613D01*
X115686663Y-65420099D01*
X115688129Y-65388592D01*
X115688861Y-65378578D01*
X115687771Y-65367621D01*
X115683742Y-65357704D01*
X115676745Y-65350872D01*
X115666779Y-65347125D01*
X115657843Y-65346338D01*
X115643533Y-65346222D01*
X115630005Y-65345874D01*
X115617258Y-65345295D01*
X115605292Y-65344483D01*
X115594108Y-65343440D01*
X115583705Y-65342165D01*
X115571051Y-65340104D01*
X115559785Y-65337631D01*
X115549908Y-65334746D01*
X115545491Y-65333149D01*
X115535424Y-65328611D01*
X115526443Y-65323393D01*
X115518547Y-65317496D01*
X115510504Y-65309522D01*
X115504024Y-65300569D01*
X115499818Y-65292360D01*
X115496440Y-65282220D01*
X115494150Y-65271814D01*
X115492227Y-65259371D01*
X115491025Y-65248702D01*
X115490029Y-65236886D01*
X115489239Y-65223923D01*
X115488655Y-65209815D01*
X115488380Y-65199772D01*
X115488197Y-65189220D01*
X115488105Y-65178159D01*
X115488094Y-65172437D01*
X115488147Y-65156446D01*
X115488308Y-65141139D01*
X115488575Y-65126518D01*
X115488949Y-65112582D01*
X115489430Y-65099331D01*
X115490017Y-65086765D01*
X115490712Y-65074884D01*
X115491513Y-65063688D01*
X115492422Y-65053177D01*
X115493437Y-65043351D01*
X115495160Y-65029896D01*
X115497123Y-65017983D01*
X115499327Y-65007611D01*
X115501771Y-64998780D01*
X115505645Y-64988648D01*
X115510427Y-64979867D01*
X115517681Y-64970790D01*
X115526355Y-64963824D01*
X115536448Y-64958969D01*
X115547960Y-64956225D01*
X115558192Y-64955549D01*
X115569310Y-64956356D01*
X115579797Y-64958775D01*
X115589652Y-64962807D01*
X115598877Y-64968452D01*
X115603865Y-64972402D01*
X115611478Y-64980231D01*
X115617222Y-64988971D01*
X115621096Y-64998624D01*
X115623099Y-65009187D01*
X115623404Y-65015633D01*
X115622921Y-65026742D01*
X115621878Y-65037065D01*
X115620518Y-65047086D01*
X115618729Y-65058188D01*
X115617298Y-65066191D01*
X115615180Y-65077438D01*
X115613345Y-65087975D01*
X115611791Y-65097802D01*
X115610247Y-65109087D01*
X115609144Y-65119264D01*
X115608403Y-65130011D01*
X115608261Y-65136289D01*
X115608917Y-65148108D01*
X115610885Y-65159139D01*
X115614165Y-65169383D01*
X115618756Y-65178841D01*
X115624659Y-65187511D01*
X115631875Y-65195394D01*
X115635128Y-65198327D01*
X115643704Y-65204941D01*
X115652793Y-65210434D01*
X115662394Y-65214806D01*
X115672509Y-65218057D01*
X115683136Y-65220187D01*
X115694276Y-65221196D01*
X115698875Y-65221285D01*
X115710099Y-65220724D01*
X115720689Y-65219041D01*
X115730646Y-65216237D01*
X115739969Y-65212310D01*
X115748659Y-65207261D01*
X115756715Y-65201090D01*
X115764138Y-65193797D01*
X115770927Y-65185382D01*
X115776938Y-65176131D01*
X115782147Y-65166331D01*
X115786555Y-65155981D01*
X115790161Y-65145082D01*
X115792966Y-65133633D01*
X115794970Y-65121634D01*
X115796172Y-65109086D01*
X115796548Y-65099315D01*
X115796573Y-65095989D01*
X115796285Y-65084416D01*
X115795424Y-65073022D01*
X115793988Y-65061808D01*
X115791978Y-65050773D01*
X115789393Y-65039918D01*
X115786234Y-65029242D01*
X115782501Y-65018745D01*
X115778193Y-65008428D01*
X115773311Y-64998290D01*
X115767855Y-64988331D01*
X115761824Y-64978552D01*
X115755219Y-64968952D01*
X115748040Y-64959532D01*
X115740286Y-64950290D01*
X115731958Y-64941229D01*
X115723055Y-64932346D01*
X115713665Y-64923799D01*
X115703871Y-64915803D01*
X115693675Y-64908358D01*
X115683076Y-64901465D01*
X115672075Y-64895123D01*
X115660671Y-64889333D01*
X115648864Y-64884094D01*
X115636655Y-64879407D01*
X115624043Y-64875271D01*
X115611028Y-64871686D01*
X115597611Y-64868653D01*
X115583791Y-64866172D01*
X115569569Y-64864242D01*
X115554944Y-64862863D01*
X115539916Y-64862036D01*
X115524486Y-64861760D01*
X115506741Y-64862103D01*
X115489533Y-64863134D01*
X115472860Y-64864851D01*
X115456724Y-64867255D01*
X115441124Y-64870347D01*
X115426060Y-64874125D01*
X115411532Y-64878590D01*
X115397541Y-64883742D01*
X115384086Y-64889581D01*
X115371166Y-64896107D01*
X115358783Y-64903319D01*
X115346937Y-64911219D01*
X115335626Y-64919806D01*
X115324852Y-64929079D01*
X115314614Y-64939040D01*
X115304912Y-64949687D01*
X115295743Y-64960748D01*
X115287166Y-64971948D01*
X115279180Y-64983287D01*
X115271786Y-64994765D01*
X115264984Y-65006383D01*
X115258773Y-65018140D01*
X115253153Y-65030037D01*
X115248125Y-65042072D01*
X115243689Y-65054247D01*
X115239844Y-65066561D01*
X115236591Y-65079015D01*
X115233929Y-65091608D01*
X115231858Y-65104340D01*
X115230379Y-65117211D01*
X115229492Y-65130222D01*
X115229196Y-65143372D01*
X115229395Y-65153623D01*
X115229990Y-65163736D01*
X115230982Y-65173712D01*
X115232372Y-65183550D01*
X115234158Y-65193251D01*
X115236341Y-65202815D01*
X115238920Y-65212241D01*
X115243534Y-65226123D01*
X115249041Y-65239695D01*
X115253209Y-65248572D01*
X115257773Y-65257311D01*
X115262734Y-65265913D01*
X115268092Y-65274378D01*
X115273847Y-65282705D01*
X115279999Y-65290895D01*
X115286530Y-65298843D01*
X115293421Y-65306507D01*
X115300673Y-65313887D01*
X115308285Y-65320982D01*
X115316259Y-65327793D01*
X115324592Y-65334320D01*
X115333287Y-65340563D01*
X115342342Y-65346521D01*
X115351758Y-65352195D01*
X115361534Y-65357584D01*
X115371671Y-65362690D01*
X115382169Y-65367511D01*
X115393027Y-65372047D01*
X115404246Y-65376300D01*
X115415826Y-65380268D01*
X115427766Y-65383951D01*
X115448282Y-65390057D01*
G37*
X122364306Y-96812219D02*
X122364306Y-97526504D01*
X122364306Y-97526504D02*
X122411925Y-97669361D01*
X122411925Y-97669361D02*
X122507163Y-97764600D01*
X122507163Y-97764600D02*
X122650020Y-97812219D01*
X122650020Y-97812219D02*
X122745258Y-97812219D01*
X121935734Y-97526504D02*
X121459544Y-97526504D01*
X122030972Y-97812219D02*
X121697639Y-96812219D01*
X121697639Y-96812219D02*
X121364306Y-97812219D01*
X121030972Y-97812219D02*
X121030972Y-96812219D01*
X121030972Y-96812219D02*
X120459544Y-97812219D01*
X120459544Y-97812219D02*
X120459544Y-96812219D01*
X119983353Y-97716980D02*
X119935734Y-97764600D01*
X119935734Y-97764600D02*
X119983353Y-97812219D01*
X119983353Y-97812219D02*
X120030972Y-97764600D01*
X120030972Y-97764600D02*
X119983353Y-97716980D01*
X119983353Y-97716980D02*
X119983353Y-97812219D01*
X118792877Y-96907457D02*
X118745258Y-96859838D01*
X118745258Y-96859838D02*
X118650020Y-96812219D01*
X118650020Y-96812219D02*
X118411925Y-96812219D01*
X118411925Y-96812219D02*
X118316687Y-96859838D01*
X118316687Y-96859838D02*
X118269068Y-96907457D01*
X118269068Y-96907457D02*
X118221449Y-97002695D01*
X118221449Y-97002695D02*
X118221449Y-97097933D01*
X118221449Y-97097933D02*
X118269068Y-97240790D01*
X118269068Y-97240790D02*
X118840496Y-97812219D01*
X118840496Y-97812219D02*
X118221449Y-97812219D01*
X117602401Y-96812219D02*
X117507163Y-96812219D01*
X117507163Y-96812219D02*
X117411925Y-96859838D01*
X117411925Y-96859838D02*
X117364306Y-96907457D01*
X117364306Y-96907457D02*
X117316687Y-97002695D01*
X117316687Y-97002695D02*
X117269068Y-97193171D01*
X117269068Y-97193171D02*
X117269068Y-97431266D01*
X117269068Y-97431266D02*
X117316687Y-97621742D01*
X117316687Y-97621742D02*
X117364306Y-97716980D01*
X117364306Y-97716980D02*
X117411925Y-97764600D01*
X117411925Y-97764600D02*
X117507163Y-97812219D01*
X117507163Y-97812219D02*
X117602401Y-97812219D01*
X117602401Y-97812219D02*
X117697639Y-97764600D01*
X117697639Y-97764600D02*
X117745258Y-97716980D01*
X117745258Y-97716980D02*
X117792877Y-97621742D01*
X117792877Y-97621742D02*
X117840496Y-97431266D01*
X117840496Y-97431266D02*
X117840496Y-97193171D01*
X117840496Y-97193171D02*
X117792877Y-97002695D01*
X117792877Y-97002695D02*
X117745258Y-96907457D01*
X117745258Y-96907457D02*
X117697639Y-96859838D01*
X117697639Y-96859838D02*
X117602401Y-96812219D01*
X116888115Y-96907457D02*
X116840496Y-96859838D01*
X116840496Y-96859838D02*
X116745258Y-96812219D01*
X116745258Y-96812219D02*
X116507163Y-96812219D01*
X116507163Y-96812219D02*
X116411925Y-96859838D01*
X116411925Y-96859838D02*
X116364306Y-96907457D01*
X116364306Y-96907457D02*
X116316687Y-97002695D01*
X116316687Y-97002695D02*
X116316687Y-97097933D01*
X116316687Y-97097933D02*
X116364306Y-97240790D01*
X116364306Y-97240790D02*
X116935734Y-97812219D01*
X116935734Y-97812219D02*
X116316687Y-97812219D01*
X115459544Y-97145552D02*
X115459544Y-97812219D01*
X115697639Y-96764600D02*
X115935734Y-97478885D01*
X115935734Y-97478885D02*
X115316687Y-97478885D01*
X123761258Y-98720352D02*
X123523163Y-99387019D01*
X123523163Y-99387019D02*
X123285068Y-98720352D01*
X122904115Y-99291780D02*
X122856496Y-99339400D01*
X122856496Y-99339400D02*
X122904115Y-99387019D01*
X122904115Y-99387019D02*
X122951734Y-99339400D01*
X122951734Y-99339400D02*
X122904115Y-99291780D01*
X122904115Y-99291780D02*
X122904115Y-99387019D01*
X121142211Y-99387019D02*
X121713639Y-99387019D01*
X121427925Y-99387019D02*
X121427925Y-98387019D01*
X121427925Y-98387019D02*
X121523163Y-98529876D01*
X121523163Y-98529876D02*
X121618401Y-98625114D01*
X121618401Y-98625114D02*
X121713639Y-98672733D01*
X120713639Y-99291780D02*
X120666020Y-99339400D01*
X120666020Y-99339400D02*
X120713639Y-99387019D01*
X120713639Y-99387019D02*
X120761258Y-99339400D01*
X120761258Y-99339400D02*
X120713639Y-99291780D01*
X120713639Y-99291780D02*
X120713639Y-99387019D01*
X120046973Y-98387019D02*
X119951735Y-98387019D01*
X119951735Y-98387019D02*
X119856497Y-98434638D01*
X119856497Y-98434638D02*
X119808878Y-98482257D01*
X119808878Y-98482257D02*
X119761259Y-98577495D01*
X119761259Y-98577495D02*
X119713640Y-98767971D01*
X119713640Y-98767971D02*
X119713640Y-99006066D01*
X119713640Y-99006066D02*
X119761259Y-99196542D01*
X119761259Y-99196542D02*
X119808878Y-99291780D01*
X119808878Y-99291780D02*
X119856497Y-99339400D01*
X119856497Y-99339400D02*
X119951735Y-99387019D01*
X119951735Y-99387019D02*
X120046973Y-99387019D01*
X120046973Y-99387019D02*
X120142211Y-99339400D01*
X120142211Y-99339400D02*
X120189830Y-99291780D01*
X120189830Y-99291780D02*
X120237449Y-99196542D01*
X120237449Y-99196542D02*
X120285068Y-99006066D01*
X120285068Y-99006066D02*
X120285068Y-98767971D01*
X120285068Y-98767971D02*
X120237449Y-98577495D01*
X120237449Y-98577495D02*
X120189830Y-98482257D01*
X120189830Y-98482257D02*
X120142211Y-98434638D01*
X120142211Y-98434638D02*
X120046973Y-98387019D01*
%LPC*%
D11*
%TO.C,SW1*%
X85375000Y-62075000D03*
X85375000Y-56075000D03*
X73375000Y-62075000D03*
X73375000Y-56075000D03*
D12*
X83375000Y-60325000D03*
X79375000Y-60325000D03*
X75375000Y-60325000D03*
%TD*%
D13*
%TO.C,J1*%
X127762000Y-82224000D03*
D14*
X127762000Y-79724000D03*
X127762000Y-77724000D03*
X127762000Y-75224000D03*
D15*
X130472000Y-85294000D03*
X130472000Y-72154000D03*
%TD*%
D16*
%TO.C,H3*%
X129540000Y-106680000D03*
%TD*%
D17*
%TO.C,J2*%
X111760000Y-61215000D03*
D18*
X116840000Y-59055000D03*
D19*
X114300000Y-59055000D03*
X111760000Y-59055000D03*
X109220000Y-59055000D03*
%TD*%
D16*
%TO.C,H1*%
X63500000Y-57150000D03*
%TD*%
%TO.C,H2*%
X129540000Y-57150000D03*
%TD*%
%TO.C,H4*%
X63500000Y-106680000D03*
%TD*%
%LPD*%
M02*
