%TF.GenerationSoftware,KiCad,Pcbnew,7.0.10*%
%TF.CreationDate,2024-01-12T17:51:54+01:00*%
%TF.ProjectId,LightDudu4Lila,4c696768-7444-4756-9475-344c696c612e,rev?*%
%TF.SameCoordinates,Original*%
%TF.FileFunction,Copper,L1,Top*%
%TF.FilePolarity,Positive*%
%FSLAX46Y46*%
G04 Gerber Fmt 4.6, Leading zero omitted, Abs format (unit mm)*
G04 Created by KiCad (PCBNEW 7.0.10) date 2024-01-12 17:51:54*
%MOMM*%
%LPD*%
G01*
G04 APERTURE LIST*
G04 Aperture macros list*
%AMRoundRect*
0 Rectangle with rounded corners*
0 $1 Rounding radius*
0 $2 $3 $4 $5 $6 $7 $8 $9 X,Y pos of 4 corners*
0 Add a 4 corners polygon primitive as box body*
4,1,4,$2,$3,$4,$5,$6,$7,$8,$9,$2,$3,0*
0 Add four circle primitives for the rounded corners*
1,1,$1+$1,$2,$3*
1,1,$1+$1,$4,$5*
1,1,$1+$1,$6,$7*
1,1,$1+$1,$8,$9*
0 Add four rect primitives between the rounded corners*
20,1,$1+$1,$2,$3,$4,$5,0*
20,1,$1+$1,$4,$5,$6,$7,0*
20,1,$1+$1,$6,$7,$8,$9,0*
20,1,$1+$1,$8,$9,$2,$3,0*%
G04 Aperture macros list end*
%TA.AperFunction,SMDPad,CuDef*%
%ADD10RoundRect,0.140000X0.140000X0.170000X-0.140000X0.170000X-0.140000X-0.170000X0.140000X-0.170000X0*%
%TD*%
%TA.AperFunction,SMDPad,CuDef*%
%ADD11RoundRect,0.250000X-0.250000X-0.475000X0.250000X-0.475000X0.250000X0.475000X-0.250000X0.475000X0*%
%TD*%
%TA.AperFunction,SMDPad,CuDef*%
%ADD12RoundRect,0.225000X0.225000X0.250000X-0.225000X0.250000X-0.225000X-0.250000X0.225000X-0.250000X0*%
%TD*%
%TA.AperFunction,ComponentPad*%
%ADD13C,2.000000*%
%TD*%
%TA.AperFunction,ComponentPad*%
%ADD14C,1.700000*%
%TD*%
%TA.AperFunction,SMDPad,CuDef*%
%ADD15RoundRect,0.250000X-0.312500X-0.625000X0.312500X-0.625000X0.312500X0.625000X-0.312500X0.625000X0*%
%TD*%
%TA.AperFunction,ComponentPad*%
%ADD16R,1.500000X1.600000*%
%TD*%
%TA.AperFunction,ComponentPad*%
%ADD17C,1.600000*%
%TD*%
%TA.AperFunction,ComponentPad*%
%ADD18C,3.000000*%
%TD*%
%TA.AperFunction,SMDPad,CuDef*%
%ADD19RoundRect,0.140000X0.170000X-0.140000X0.170000X0.140000X-0.170000X0.140000X-0.170000X-0.140000X0*%
%TD*%
%TA.AperFunction,SMDPad,CuDef*%
%ADD20RoundRect,0.250000X0.312500X0.625000X-0.312500X0.625000X-0.312500X-0.625000X0.312500X-0.625000X0*%
%TD*%
%TA.AperFunction,SMDPad,CuDef*%
%ADD21RoundRect,0.140000X-0.140000X-0.170000X0.140000X-0.170000X0.140000X0.170000X-0.140000X0.170000X0*%
%TD*%
%TA.AperFunction,SMDPad,CuDef*%
%ADD22RoundRect,0.250000X-0.350000X0.850000X-0.350000X-0.850000X0.350000X-0.850000X0.350000X0.850000X0*%
%TD*%
%TA.AperFunction,SMDPad,CuDef*%
%ADD23RoundRect,0.250000X-1.125000X1.275000X-1.125000X-1.275000X1.125000X-1.275000X1.125000X1.275000X0*%
%TD*%
%TA.AperFunction,SMDPad,CuDef*%
%ADD24RoundRect,0.249997X-2.650003X2.950003X-2.650003X-2.950003X2.650003X-2.950003X2.650003X2.950003X0*%
%TD*%
%TA.AperFunction,SMDPad,CuDef*%
%ADD25RoundRect,0.250000X0.262500X0.450000X-0.262500X0.450000X-0.262500X-0.450000X0.262500X-0.450000X0*%
%TD*%
%TA.AperFunction,SMDPad,CuDef*%
%ADD26RoundRect,0.218750X-0.256250X0.218750X-0.256250X-0.218750X0.256250X-0.218750X0.256250X0.218750X0*%
%TD*%
%TA.AperFunction,ComponentPad*%
%ADD27R,1.730000X2.030000*%
%TD*%
%TA.AperFunction,ComponentPad*%
%ADD28O,1.730000X2.030000*%
%TD*%
%TA.AperFunction,SMDPad,CuDef*%
%ADD29RoundRect,0.250000X0.475000X-0.250000X0.475000X0.250000X-0.475000X0.250000X-0.475000X-0.250000X0*%
%TD*%
%TA.AperFunction,SMDPad,CuDef*%
%ADD30RoundRect,0.140000X-0.170000X0.140000X-0.170000X-0.140000X0.170000X-0.140000X0.170000X0.140000X0*%
%TD*%
%TA.AperFunction,SMDPad,CuDef*%
%ADD31RoundRect,0.243750X-0.243750X-0.456250X0.243750X-0.456250X0.243750X0.456250X-0.243750X0.456250X0*%
%TD*%
%TA.AperFunction,SMDPad,CuDef*%
%ADD32RoundRect,0.250000X0.250000X0.475000X-0.250000X0.475000X-0.250000X-0.475000X0.250000X-0.475000X0*%
%TD*%
%TA.AperFunction,SMDPad,CuDef*%
%ADD33RoundRect,0.135000X0.135000X0.185000X-0.135000X0.185000X-0.135000X-0.185000X0.135000X-0.185000X0*%
%TD*%
%TA.AperFunction,SMDPad,CuDef*%
%ADD34RoundRect,0.135000X-0.185000X0.135000X-0.185000X-0.135000X0.185000X-0.135000X0.185000X0.135000X0*%
%TD*%
%TA.AperFunction,SMDPad,CuDef*%
%ADD35RoundRect,0.135000X-0.135000X-0.185000X0.135000X-0.185000X0.135000X0.185000X-0.135000X0.185000X0*%
%TD*%
%TA.AperFunction,SMDPad,CuDef*%
%ADD36R,1.200000X1.400000*%
%TD*%
%TA.AperFunction,SMDPad,CuDef*%
%ADD37R,0.900000X0.700000*%
%TD*%
%TA.AperFunction,SMDPad,CuDef*%
%ADD38RoundRect,0.225000X0.250000X-0.225000X0.250000X0.225000X-0.250000X0.225000X-0.250000X-0.225000X0*%
%TD*%
%TA.AperFunction,SMDPad,CuDef*%
%ADD39RoundRect,0.075000X-0.662500X-0.075000X0.662500X-0.075000X0.662500X0.075000X-0.662500X0.075000X0*%
%TD*%
%TA.AperFunction,SMDPad,CuDef*%
%ADD40RoundRect,0.075000X-0.075000X-0.662500X0.075000X-0.662500X0.075000X0.662500X-0.075000X0.662500X0*%
%TD*%
%TA.AperFunction,ViaPad*%
%ADD41C,0.700000*%
%TD*%
%TA.AperFunction,Conductor*%
%ADD42C,0.300000*%
%TD*%
%TA.AperFunction,Conductor*%
%ADD43C,0.500000*%
%TD*%
%TA.AperFunction,Conductor*%
%ADD44C,0.200000*%
%TD*%
G04 APERTURE END LIST*
D10*
%TO.P,C1,1*%
%TO.N,+3.3V*%
X109319000Y-85725000D03*
%TO.P,C1,2*%
%TO.N,GND*%
X108359000Y-85725000D03*
%TD*%
D11*
%TO.P,C13,1*%
%TO.N,VBUS*%
X119954000Y-85979000D03*
%TO.P,C13,2*%
%TO.N,GND*%
X121854000Y-85979000D03*
%TD*%
D12*
%TO.P,C8,1*%
%TO.N,+3.3V*%
X98946000Y-86487000D03*
%TO.P,C8,2*%
%TO.N,GND*%
X97396000Y-86487000D03*
%TD*%
D13*
%TO.P,SW1,*%
%TO.N,*%
X85375000Y-62075000D03*
X85375000Y-56075000D03*
X73375000Y-62075000D03*
X73375000Y-56075000D03*
D14*
%TO.P,SW1,1,A*%
%TO.N,GND*%
X83375000Y-60325000D03*
%TO.P,SW1,2,B*%
%TO.N,/SW_BOOT0*%
X79375000Y-60325000D03*
%TO.P,SW1,3,C*%
%TO.N,+3.3V*%
X75375000Y-60325000D03*
%TD*%
D15*
%TO.P,R6,1*%
%TO.N,/DGT OUT LED2*%
X105217500Y-91059000D03*
%TO.P,R6,2*%
%TO.N,/LED2 ANODE*%
X108142500Y-91059000D03*
%TD*%
D16*
%TO.P,J1,1,VBUS*%
%TO.N,VBUS*%
X127762000Y-82224000D03*
D17*
%TO.P,J1,2,D-*%
%TO.N,/USB-*%
X127762000Y-79724000D03*
%TO.P,J1,3,D+*%
%TO.N,/USB+*%
X127762000Y-77724000D03*
%TO.P,J1,4,GND*%
%TO.N,GND*%
X127762000Y-75224000D03*
D18*
%TO.P,J1,5,Shield*%
%TO.N,unconnected-(J1-Shield-Pad5)*%
X130472000Y-85294000D03*
X130472000Y-72154000D03*
%TD*%
D19*
%TO.P,C6,1*%
%TO.N,+3.3VA*%
X99568000Y-80363000D03*
%TO.P,C6,2*%
%TO.N,GND*%
X99568000Y-79403000D03*
%TD*%
D20*
%TO.P,R5,1*%
%TO.N,/DGT OUT LED1*%
X98236500Y-91059000D03*
%TO.P,R5,2*%
%TO.N,/LED1 ANODE*%
X95311500Y-91059000D03*
%TD*%
D21*
%TO.P,C4,1*%
%TO.N,+3.3V*%
X103253000Y-72161400D03*
%TO.P,C4,2*%
%TO.N,GND*%
X104213000Y-72161400D03*
%TD*%
D19*
%TO.P,C3,1*%
%TO.N,+3.3V*%
X99669000Y-75918000D03*
%TO.P,C3,2*%
%TO.N,GND*%
X99669000Y-74958000D03*
%TD*%
D22*
%TO.P,U3,1,GND*%
%TO.N,GND*%
X123946000Y-89653000D03*
%TO.P,U3,2,VO*%
%TO.N,+3.3V*%
X121666000Y-89653000D03*
D23*
X123191000Y-94278000D03*
X120141000Y-94278000D03*
D24*
X121666000Y-95953000D03*
D23*
X123191000Y-97628000D03*
X120141000Y-97628000D03*
D22*
%TO.P,U3,3,VI*%
%TO.N,VBUS*%
X119386000Y-89653000D03*
%TD*%
D25*
%TO.P,R4,1*%
%TO.N,/SENS_AN_SIGNAL*%
X75588500Y-77724000D03*
%TO.P,R4,2*%
%TO.N,GND*%
X73763500Y-77724000D03*
%TD*%
D26*
%TO.P,D1,1,K*%
%TO.N,/PWR_LED_KATH*%
X113411000Y-89509500D03*
%TO.P,D1,2,A*%
%TO.N,+3.3V*%
X113411000Y-91084500D03*
%TD*%
D27*
%TO.P,J2,1,Pin_1*%
%TO.N,+3.3V*%
X116840000Y-59055000D03*
D28*
%TO.P,J2,2,Pin_2*%
%TO.N,/SWDIO*%
X114300000Y-59055000D03*
%TO.P,J2,3,Pin_3*%
%TO.N,/SWCLK*%
X111760000Y-59055000D03*
%TO.P,J2,4,Pin_4*%
%TO.N,GND*%
X109220000Y-59055000D03*
%TD*%
D29*
%TO.P,C12,1*%
%TO.N,+3.3V*%
X127127000Y-94803000D03*
%TO.P,C12,2*%
%TO.N,GND*%
X127127000Y-92903000D03*
%TD*%
D30*
%TO.P,C11,1*%
%TO.N,/HSE_OUT*%
X94361000Y-79530000D03*
%TO.P,C11,2*%
%TO.N,GND*%
X94361000Y-80490000D03*
%TD*%
D19*
%TO.P,C10,1*%
%TO.N,/HSE_IN*%
X94361000Y-77315000D03*
%TO.P,C10,2*%
%TO.N,GND*%
X94361000Y-76355000D03*
%TD*%
D31*
%TO.P,D2,1,K*%
%TO.N,GND*%
X78437500Y-98679000D03*
%TO.P,D2,2,A*%
%TO.N,/LED1 ANODE*%
X80312500Y-98679000D03*
%TD*%
D32*
%TO.P,C14,1*%
%TO.N,/SENS_AN_SIGNAL*%
X75245000Y-87122000D03*
%TO.P,C14,2*%
%TO.N,GND*%
X73345000Y-87122000D03*
%TD*%
D30*
%TO.P,C2,1*%
%TO.N,+3.3V*%
X113258000Y-75466000D03*
%TO.P,C2,2*%
%TO.N,GND*%
X113258000Y-76426000D03*
%TD*%
D31*
%TO.P,D3,1,K*%
%TO.N,GND*%
X108917500Y-98552000D03*
%TO.P,D3,2,A*%
%TO.N,/LED2 ANODE*%
X110792500Y-98552000D03*
%TD*%
D33*
%TO.P,R3,1*%
%TO.N,GND*%
X116209000Y-86868000D03*
%TO.P,R3,2*%
%TO.N,/PWR_LED_KATH*%
X115189000Y-86868000D03*
%TD*%
D34*
%TO.P,R2,1*%
%TO.N,+3.3V*%
X121412000Y-76452000D03*
%TO.P,R2,2*%
%TO.N,/USB+*%
X121412000Y-77472000D03*
%TD*%
D35*
%TO.P,R1,1*%
%TO.N,/SW_BOOT0*%
X103249000Y-66421000D03*
%TO.P,R1,2*%
%TO.N,/BOOT0*%
X104269000Y-66421000D03*
%TD*%
D36*
%TO.P,X1,1,1*%
%TO.N,/HSE_IN*%
X90463000Y-76751000D03*
%TO.P,X1,2,2*%
%TO.N,GND*%
X90463000Y-78951000D03*
%TO.P,X1,3,3*%
%TO.N,/HSE_OUT*%
X92163000Y-78951000D03*
%TO.P,X1,4,4*%
%TO.N,GND*%
X92163000Y-76751000D03*
%TD*%
D12*
%TO.P,C7,1*%
%TO.N,+3.3VA*%
X98565000Y-84074000D03*
%TO.P,C7,2*%
%TO.N,GND*%
X97015000Y-84074000D03*
%TD*%
D37*
%TO.P,IC1,1,VCC*%
%TO.N,+3.3V*%
X75164000Y-82508000D03*
%TO.P,IC1,2,OUT*%
%TO.N,/SENS_AN_SIGNAL*%
X75164000Y-83608000D03*
%TO.P,IC1,3,GND_1*%
%TO.N,GND*%
X72664000Y-82508000D03*
%TO.P,IC1,4,GND_2*%
X72664000Y-83608000D03*
%TD*%
D30*
%TO.P,C9,1*%
%TO.N,/NRST*%
X93599000Y-83467000D03*
%TO.P,C9,2*%
%TO.N,GND*%
X93599000Y-84427000D03*
%TD*%
D38*
%TO.P,C5,1*%
%TO.N,+3.3V*%
X99161000Y-70879000D03*
%TO.P,C5,2*%
%TO.N,GND*%
X99161000Y-69329000D03*
%TD*%
D39*
%TO.P,U2,1,VBAT*%
%TO.N,+3.3V*%
X102136500Y-76117000D03*
%TO.P,U2,2,PC13*%
%TO.N,unconnected-(U2-PC13-Pad2)*%
X102136500Y-76617000D03*
%TO.P,U2,3,PC14*%
%TO.N,unconnected-(U2-PC14-Pad3)*%
X102136500Y-77117000D03*
%TO.P,U2,4,PC15*%
%TO.N,unconnected-(U2-PC15-Pad4)*%
X102136500Y-77617000D03*
%TO.P,U2,5,PD0*%
%TO.N,/HSE_IN*%
X102136500Y-78117000D03*
%TO.P,U2,6,PD1*%
%TO.N,/HSE_OUT*%
X102136500Y-78617000D03*
%TO.P,U2,7,NRST*%
%TO.N,/NRST*%
X102136500Y-79117000D03*
%TO.P,U2,8,VSSA*%
%TO.N,GND*%
X102136500Y-79617000D03*
%TO.P,U2,9,VDDA*%
%TO.N,+3.3VA*%
X102136500Y-80117000D03*
%TO.P,U2,10,PA0*%
%TO.N,unconnected-(U2-PA0-Pad10)*%
X102136500Y-80617000D03*
%TO.P,U2,11,PA1*%
%TO.N,/SENS_AN_SIGNAL*%
X102136500Y-81117000D03*
%TO.P,U2,12,PA2*%
%TO.N,unconnected-(U2-PA2-Pad12)*%
X102136500Y-81617000D03*
D40*
%TO.P,U2,13,PA3*%
%TO.N,unconnected-(U2-PA3-Pad13)*%
X103549000Y-83029500D03*
%TO.P,U2,14,PA4*%
%TO.N,unconnected-(U2-PA4-Pad14)*%
X104049000Y-83029500D03*
%TO.P,U2,15,PA5*%
%TO.N,unconnected-(U2-PA5-Pad15)*%
X104549000Y-83029500D03*
%TO.P,U2,16,PA6*%
%TO.N,unconnected-(U2-PA6-Pad16)*%
X105049000Y-83029500D03*
%TO.P,U2,17,PA7*%
%TO.N,unconnected-(U2-PA7-Pad17)*%
X105549000Y-83029500D03*
%TO.P,U2,18,PB0*%
%TO.N,/DGT OUT LED1*%
X106049000Y-83029500D03*
%TO.P,U2,19,PB1*%
%TO.N,/DGT OUT LED2*%
X106549000Y-83029500D03*
%TO.P,U2,20,PB2*%
%TO.N,unconnected-(U2-PB2-Pad20)*%
X107049000Y-83029500D03*
%TO.P,U2,21,PB10*%
%TO.N,unconnected-(U2-PB10-Pad21)*%
X107549000Y-83029500D03*
%TO.P,U2,22,PB11*%
%TO.N,unconnected-(U2-PB11-Pad22)*%
X108049000Y-83029500D03*
%TO.P,U2,23,VSS*%
%TO.N,GND*%
X108549000Y-83029500D03*
%TO.P,U2,24,VDD*%
%TO.N,+3.3V*%
X109049000Y-83029500D03*
D39*
%TO.P,U2,25,PB12*%
%TO.N,unconnected-(U2-PB12-Pad25)*%
X110461500Y-81617000D03*
%TO.P,U2,26,PB13*%
%TO.N,unconnected-(U2-PB13-Pad26)*%
X110461500Y-81117000D03*
%TO.P,U2,27,PB14*%
%TO.N,unconnected-(U2-PB14-Pad27)*%
X110461500Y-80617000D03*
%TO.P,U2,28,PB15*%
%TO.N,unconnected-(U2-PB15-Pad28)*%
X110461500Y-80117000D03*
%TO.P,U2,29,PA8*%
%TO.N,unconnected-(U2-PA8-Pad29)*%
X110461500Y-79617000D03*
%TO.P,U2,30,PA9*%
%TO.N,unconnected-(U2-PA9-Pad30)*%
X110461500Y-79117000D03*
%TO.P,U2,31,PA10*%
%TO.N,unconnected-(U2-PA10-Pad31)*%
X110461500Y-78617000D03*
%TO.P,U2,32,PA11*%
%TO.N,/USB-*%
X110461500Y-78117000D03*
%TO.P,U2,33,PA12*%
%TO.N,/USB+*%
X110461500Y-77617000D03*
%TO.P,U2,34,PA13*%
%TO.N,/SWDIO*%
X110461500Y-77117000D03*
%TO.P,U2,35,VSS*%
%TO.N,GND*%
X110461500Y-76617000D03*
%TO.P,U2,36,VDD*%
%TO.N,+3.3V*%
X110461500Y-76117000D03*
D40*
%TO.P,U2,37,PA14*%
%TO.N,/SWCLK*%
X109049000Y-74704500D03*
%TO.P,U2,38,PA15*%
%TO.N,unconnected-(U2-PA15-Pad38)*%
X108549000Y-74704500D03*
%TO.P,U2,39,PB3*%
%TO.N,unconnected-(U2-PB3-Pad39)*%
X108049000Y-74704500D03*
%TO.P,U2,40,PB4*%
%TO.N,unconnected-(U2-PB4-Pad40)*%
X107549000Y-74704500D03*
%TO.P,U2,41,PB5*%
%TO.N,unconnected-(U2-PB5-Pad41)*%
X107049000Y-74704500D03*
%TO.P,U2,42,PB6*%
%TO.N,unconnected-(U2-PB6-Pad42)*%
X106549000Y-74704500D03*
%TO.P,U2,43,PB7*%
%TO.N,unconnected-(U2-PB7-Pad43)*%
X106049000Y-74704500D03*
%TO.P,U2,44,BOOT0*%
%TO.N,/BOOT0*%
X105549000Y-74704500D03*
%TO.P,U2,45,PB8*%
%TO.N,unconnected-(U2-PB8-Pad45)*%
X105049000Y-74704500D03*
%TO.P,U2,46,PB9*%
%TO.N,unconnected-(U2-PB9-Pad46)*%
X104549000Y-74704500D03*
%TO.P,U2,47,VSS*%
%TO.N,GND*%
X104049000Y-74704500D03*
%TO.P,U2,48,VDD*%
%TO.N,+3.3V*%
X103549000Y-74704500D03*
%TD*%
D26*
%TO.P,FB1,1*%
%TO.N,+3.3VA*%
X101219000Y-84302500D03*
%TO.P,FB1,2*%
%TO.N,+3.3V*%
X101219000Y-85877500D03*
%TD*%
D41*
%TO.N,+3.3V*%
X117856000Y-76454000D03*
X117856000Y-79375000D03*
X100965000Y-91821000D03*
X100965000Y-89408000D03*
%TO.N,/NRST*%
X98552280Y-82424957D03*
X100711000Y-82931000D03*
%TO.N,GND*%
X109201630Y-76556438D03*
X123190000Y-86487000D03*
X108331000Y-86868000D03*
X121793000Y-72517000D03*
X123190000Y-85344000D03*
X92329000Y-84455000D03*
X123444000Y-87757000D03*
X95631000Y-80518000D03*
X70739000Y-87122000D03*
X124460000Y-87757000D03*
X76200000Y-98679000D03*
X88900000Y-60325000D03*
X104013000Y-76327000D03*
X103505000Y-59055000D03*
X108585000Y-81407000D03*
X73787000Y-75692000D03*
X99695000Y-73914000D03*
X95631000Y-85090000D03*
X106934000Y-98552000D03*
X95885000Y-86106000D03*
X95758000Y-76327000D03*
X127127000Y-91440000D03*
X103759000Y-79883000D03*
X116967000Y-85725000D03*
%TO.N,/SENS_AN_SIGNAL*%
X100457000Y-81534000D03*
X98425000Y-81534000D03*
%TD*%
D42*
%TO.N,/HSE_IN*%
X94361000Y-77315000D02*
X93474000Y-77315000D01*
X102136500Y-78117000D02*
X100697000Y-78117000D01*
X91287000Y-77851000D02*
X90463000Y-77027000D01*
X100697000Y-78117000D02*
X99895000Y-77315000D01*
X92938000Y-77851000D02*
X91287000Y-77851000D01*
X93474000Y-77315000D02*
X92938000Y-77851000D01*
X99895000Y-77315000D02*
X94361000Y-77315000D01*
X90463000Y-77027000D02*
X90463000Y-76751000D01*
%TO.N,unconnected-(J1-Shield-Pad5)*%
X130472000Y-72154000D02*
X130472000Y-85294000D01*
%TO.N,/HSE_OUT*%
X98784000Y-78617000D02*
X97800000Y-79601000D01*
X102136500Y-78617000D02*
X98784000Y-78617000D01*
X94361000Y-79601000D02*
X92813000Y-79601000D01*
X92813000Y-79601000D02*
X92163000Y-78951000D01*
X97800000Y-79601000D02*
X94361000Y-79601000D01*
D43*
%TO.N,+3.3V*%
X127127000Y-94803000D02*
X129982000Y-94803000D01*
X99568000Y-88392000D02*
X90678000Y-88392000D01*
X70472000Y-70879000D02*
X72390000Y-70879000D01*
X113411000Y-93726000D02*
X113411000Y-91084500D01*
X99669000Y-75918000D02*
X97622000Y-75918000D01*
X87884000Y-85598000D02*
X82296000Y-91186000D01*
X116840000Y-75438000D02*
X116840000Y-59055000D01*
X110236000Y-88519000D02*
X109319000Y-87602000D01*
D42*
X109049000Y-83029500D02*
X109049000Y-84056000D01*
D43*
X100965000Y-86131500D02*
X101219000Y-85877500D01*
X102488400Y-72161400D02*
X101206000Y-70879000D01*
X84794000Y-82508000D02*
X75164000Y-82508000D01*
D42*
X100530000Y-75847000D02*
X99568000Y-75847000D01*
D43*
X113411000Y-93726000D02*
X112268000Y-93726000D01*
X103253000Y-72161400D02*
X102488400Y-72161400D01*
D42*
X103549000Y-73603000D02*
X103253000Y-73307000D01*
X109321000Y-84328000D02*
X109319000Y-84330000D01*
X102136500Y-76117000D02*
X100856000Y-76117000D01*
X103253000Y-73307000D02*
X103253000Y-72161400D01*
D43*
X97622000Y-75918000D02*
X92583000Y-70879000D01*
X82296000Y-91186000D02*
X69977000Y-91186000D01*
X130175000Y-100203000D02*
X129540000Y-100838000D01*
X87884000Y-85598000D02*
X84794000Y-82508000D01*
X116840000Y-100838000D02*
X113411000Y-97409000D01*
X100965000Y-92964000D02*
X100965000Y-91821000D01*
X117856000Y-76454000D02*
X121410000Y-76454000D01*
X114808000Y-83947000D02*
X117856000Y-80899000D01*
X112268000Y-93726000D02*
X110236000Y-91694000D01*
X110236000Y-88519000D02*
X114808000Y-83947000D01*
X117856000Y-76454000D02*
X116868000Y-75466000D01*
X74041000Y-70879000D02*
X74803000Y-70879000D01*
X100965000Y-100457000D02*
X100965000Y-92964000D01*
X72390000Y-70879000D02*
X74041000Y-70879000D01*
D42*
X109319000Y-84330000D02*
X109319000Y-85725000D01*
D43*
X90678000Y-88392000D02*
X87884000Y-85598000D01*
X100965000Y-88392000D02*
X100965000Y-86131500D01*
X117856000Y-80899000D02*
X117856000Y-79375000D01*
X129540000Y-100838000D02*
X116840000Y-100838000D01*
D42*
X100856000Y-76117000D02*
X100558000Y-75819000D01*
D43*
X100965000Y-89408000D02*
X100965000Y-88392000D01*
X130175000Y-94996000D02*
X130175000Y-100203000D01*
X129982000Y-94803000D02*
X130175000Y-94996000D01*
D42*
X100558000Y-75819000D02*
X100530000Y-75847000D01*
D43*
X68326000Y-73025000D02*
X70472000Y-70879000D01*
X68326000Y-89535000D02*
X68326000Y-73025000D01*
D42*
X111563000Y-76117000D02*
X112214000Y-75466000D01*
D43*
X75311000Y-70879000D02*
X92583000Y-70879000D01*
X116868000Y-75466000D02*
X113258000Y-75466000D01*
X116868000Y-75466000D02*
X116840000Y-75438000D01*
D42*
X103549000Y-74704500D02*
X103549000Y-73603000D01*
X110461500Y-76117000D02*
X111563000Y-76117000D01*
D43*
X74803000Y-70879000D02*
X75311000Y-70879000D01*
X109319000Y-87602000D02*
X109319000Y-85725000D01*
X92583000Y-70879000D02*
X99161000Y-70879000D01*
X121410000Y-76454000D02*
X121412000Y-76452000D01*
D42*
X112214000Y-75466000D02*
X113258000Y-75466000D01*
D43*
X99568000Y-88392000D02*
X98946000Y-87770000D01*
D42*
X109049000Y-84056000D02*
X109321000Y-84328000D01*
D43*
X100965000Y-88392000D02*
X99568000Y-88392000D01*
X110236000Y-91694000D02*
X110236000Y-88519000D01*
X101346000Y-100838000D02*
X100965000Y-100457000D01*
X113411000Y-97409000D02*
X113411000Y-93726000D01*
X75375000Y-67894000D02*
X72390000Y-70879000D01*
X116840000Y-100838000D02*
X101346000Y-100838000D01*
X101206000Y-70879000D02*
X99161000Y-70879000D01*
X98946000Y-87770000D02*
X98946000Y-86487000D01*
X69977000Y-91186000D02*
X68326000Y-89535000D01*
X75375000Y-60325000D02*
X75375000Y-67894000D01*
%TO.N,+3.3VA*%
X99568000Y-83071000D02*
X98565000Y-84074000D01*
X99568000Y-80363000D02*
X99568000Y-83071000D01*
X99568000Y-83071000D02*
X100799500Y-84302500D01*
D42*
X100812000Y-80391000D02*
X100784000Y-80363000D01*
X102136500Y-80117000D02*
X101086000Y-80117000D01*
D43*
X100799500Y-84302500D02*
X101219000Y-84302500D01*
D42*
X100784000Y-80363000D02*
X99568000Y-80363000D01*
X101086000Y-80117000D02*
X100812000Y-80391000D01*
%TO.N,/NRST*%
X95024000Y-82042000D02*
X93599000Y-83467000D01*
X95504000Y-82042000D02*
X95885000Y-82423000D01*
X104390000Y-79117000D02*
X102136500Y-79117000D01*
X105029000Y-79756000D02*
X104390000Y-79117000D01*
X98550323Y-82423000D02*
X98552280Y-82424957D01*
X102235000Y-82931000D02*
X105029000Y-80137000D01*
X100711000Y-82931000D02*
X102235000Y-82931000D01*
X95024000Y-82042000D02*
X95504000Y-82042000D01*
X105029000Y-80137000D02*
X105029000Y-79756000D01*
X95885000Y-82423000D02*
X98550323Y-82423000D01*
%TO.N,/PWR_LED_KATH*%
X113411000Y-89509500D02*
X113411000Y-88646000D01*
X113411000Y-88646000D02*
X115189000Y-86868000D01*
D44*
%TO.N,/USB-*%
X111592751Y-78092000D02*
X123444000Y-78092000D01*
X111567751Y-78117000D02*
X111592751Y-78092000D01*
X126212001Y-78174001D02*
X127762000Y-79724000D01*
X123444000Y-78092000D02*
X123526001Y-78174001D01*
X110461500Y-78117000D02*
X111567751Y-78117000D01*
X123526001Y-78174001D02*
X126212001Y-78174001D01*
%TO.N,/USB+*%
X123706000Y-77724000D02*
X127762000Y-77724000D01*
X111592751Y-77642000D02*
X123624000Y-77642000D01*
X111567751Y-77617000D02*
X111592751Y-77642000D01*
X123624000Y-77642000D02*
X123706000Y-77724000D01*
X110461500Y-77617000D02*
X111567751Y-77617000D01*
D42*
%TO.N,GND*%
X94361000Y-76355000D02*
X95730000Y-76355000D01*
D43*
X124500000Y-75224000D02*
X121793000Y-72517000D01*
X92357000Y-84427000D02*
X92329000Y-84455000D01*
X93599000Y-84427000D02*
X92357000Y-84427000D01*
X97396000Y-83693000D02*
X97155000Y-83693000D01*
D42*
X94361000Y-80490000D02*
X95603000Y-80490000D01*
X100784000Y-79403000D02*
X99568000Y-79403000D01*
D43*
X73763500Y-77724000D02*
X73763500Y-78001500D01*
D42*
X102136500Y-79617000D02*
X101054000Y-79617000D01*
X72644000Y-78843500D02*
X72644000Y-80264000D01*
X103493000Y-79617000D02*
X103759000Y-79883000D01*
X102136500Y-79617000D02*
X103493000Y-79617000D01*
X108549000Y-84211000D02*
X108359000Y-84401000D01*
X72664000Y-86441000D02*
X73345000Y-87122000D01*
X108549000Y-83029500D02*
X108549000Y-81443000D01*
X116209000Y-86483000D02*
X116967000Y-85725000D01*
X72664000Y-83608000D02*
X72664000Y-86441000D01*
X83375000Y-60325000D02*
X88900000Y-60325000D01*
X116209000Y-86868000D02*
X116209000Y-86483000D01*
X94361000Y-76355000D02*
X92559000Y-76355000D01*
X100812000Y-79375000D02*
X100784000Y-79403000D01*
D43*
X99669000Y-73940000D02*
X99695000Y-73914000D01*
D42*
X108359000Y-84401000D02*
X108359000Y-85725000D01*
X104049000Y-74704500D02*
X104049000Y-73598000D01*
D43*
X97396000Y-83693000D02*
X96774000Y-83693000D01*
X96266000Y-86487000D02*
X95885000Y-86106000D01*
D42*
X73345000Y-87122000D02*
X70739000Y-87122000D01*
X108549000Y-83029500D02*
X108549000Y-84211000D01*
X72664000Y-80284000D02*
X72664000Y-82508000D01*
X108549000Y-81443000D02*
X108585000Y-81407000D01*
D43*
X127762000Y-75224000D02*
X124500000Y-75224000D01*
D42*
X104213000Y-73434000D02*
X104213000Y-72161400D01*
D43*
X78437500Y-98679000D02*
X76200000Y-98679000D01*
D42*
X104049000Y-76291000D02*
X104013000Y-76327000D01*
X109262192Y-76617000D02*
X109201630Y-76556438D01*
D43*
X103085000Y-69329000D02*
X99161000Y-69329000D01*
D42*
X95603000Y-80490000D02*
X95631000Y-80518000D01*
X73763500Y-75715500D02*
X73787000Y-75692000D01*
X112270000Y-76426000D02*
X113258000Y-76426000D01*
D43*
X108917500Y-98552000D02*
X106934000Y-98552000D01*
D42*
X94361000Y-80490000D02*
X91002000Y-80490000D01*
D43*
X104213000Y-72161400D02*
X104213000Y-70457000D01*
D42*
X91002000Y-80490000D02*
X90463000Y-79951000D01*
D43*
X96583500Y-84137500D02*
X95694500Y-85026500D01*
D42*
X73763500Y-77724000D02*
X73763500Y-75715500D01*
X112079000Y-76617000D02*
X112270000Y-76426000D01*
X92559000Y-76355000D02*
X92163000Y-76751000D01*
D43*
X99669000Y-74958000D02*
X99669000Y-73940000D01*
D42*
X72644000Y-80264000D02*
X72664000Y-80284000D01*
D43*
X97396000Y-86487000D02*
X96266000Y-86487000D01*
D42*
X95730000Y-76355000D02*
X95758000Y-76327000D01*
X73763500Y-77724000D02*
X72644000Y-78843500D01*
X110461500Y-76617000D02*
X109262192Y-76617000D01*
X112079000Y-76617000D02*
X110461500Y-76617000D01*
X90463000Y-79951000D02*
X90463000Y-78951000D01*
D43*
X109220000Y-59055000D02*
X103505000Y-59055000D01*
D42*
X104049000Y-73598000D02*
X104213000Y-73434000D01*
D43*
X104213000Y-70457000D02*
X103085000Y-69329000D01*
D42*
X104049000Y-74704500D02*
X104049000Y-76291000D01*
D43*
X108359000Y-86840000D02*
X108331000Y-86868000D01*
D42*
X101054000Y-79617000D02*
X100812000Y-79375000D01*
D43*
X108359000Y-85725000D02*
X108359000Y-86840000D01*
D42*
%TO.N,/SENS_AN_SIGNAL*%
X90424000Y-81153000D02*
X91059000Y-81788000D01*
X74041000Y-79271500D02*
X74041000Y-83235000D01*
X100457000Y-81407000D02*
X100457000Y-81534000D01*
X100747000Y-81117000D02*
X102136500Y-81117000D01*
X75164000Y-83608000D02*
X75164000Y-87041000D01*
X97028000Y-81534000D02*
X96774000Y-81280000D01*
X96774000Y-81280000D02*
X94361000Y-81280000D01*
X74414000Y-83608000D02*
X75164000Y-83608000D01*
X79629000Y-74803000D02*
X85979000Y-81153000D01*
X75692000Y-74803000D02*
X79629000Y-74803000D01*
X75588500Y-77724000D02*
X74041000Y-79271500D01*
X75164000Y-87041000D02*
X75245000Y-87122000D01*
X75588500Y-74953500D02*
X75565000Y-74930000D01*
X100747000Y-81117000D02*
X100457000Y-81407000D01*
X75565000Y-74930000D02*
X75692000Y-74803000D01*
X74041000Y-83235000D02*
X74414000Y-83608000D01*
X91059000Y-81788000D02*
X93853000Y-81788000D01*
X94361000Y-81280000D02*
X93853000Y-81788000D01*
X75588500Y-77724000D02*
X75588500Y-74953500D01*
X98425000Y-81534000D02*
X97028000Y-81534000D01*
X85979000Y-81153000D02*
X90424000Y-81153000D01*
%TO.N,/SWDIO*%
X111633000Y-74041000D02*
X114300000Y-71374000D01*
X109394880Y-77343000D02*
X108077000Y-77343000D01*
X111196880Y-74041000D02*
X111633000Y-74041000D01*
X114300000Y-71374000D02*
X114300000Y-59055000D01*
X108077000Y-76691118D02*
X108911680Y-75856438D01*
X108911680Y-75856438D02*
X109381442Y-75856438D01*
X110461500Y-77117000D02*
X109620880Y-77117000D01*
X109620880Y-77117000D02*
X109394880Y-77343000D01*
X109381442Y-75856438D02*
X111196880Y-74041000D01*
X108077000Y-77343000D02*
X108077000Y-76691118D01*
%TO.N,/SWCLK*%
X109049000Y-61766000D02*
X111760000Y-59055000D01*
X109049000Y-74704500D02*
X109049000Y-61766000D01*
%TO.N,/SW_BOOT0*%
X103249000Y-66421000D02*
X85471000Y-66421000D01*
X85471000Y-66421000D02*
X79375000Y-60325000D01*
%TO.N,/BOOT0*%
X105549000Y-74704500D02*
X105549000Y-72505000D01*
X106299000Y-71755000D02*
X106299000Y-68451000D01*
X105549000Y-72505000D02*
X106299000Y-71755000D01*
X106299000Y-68451000D02*
X104269000Y-66421000D01*
%TO.N,/LED1 ANODE*%
X95311500Y-91059000D02*
X93533500Y-91059000D01*
D43*
X85913500Y-98679000D02*
X80312500Y-98679000D01*
X93533500Y-91059000D02*
X85913500Y-98679000D01*
%TO.N,/LED2 ANODE*%
X110792500Y-95298500D02*
X110792500Y-98552000D01*
X108142500Y-91059000D02*
X108142500Y-92648500D01*
X108142500Y-92648500D02*
X110792500Y-95298500D01*
D42*
%TO.N,/DGT OUT LED1*%
X106049000Y-83029500D02*
X106049000Y-84197000D01*
X98871500Y-90424000D02*
X98236500Y-91059000D01*
X104267000Y-88646000D02*
X102489000Y-90424000D01*
X106049000Y-84197000D02*
X104267000Y-85979000D01*
X102489000Y-90424000D02*
X98871500Y-90424000D01*
X104267000Y-85979000D02*
X104267000Y-88646000D01*
D43*
%TO.N,/DGT OUT LED2*%
X106553000Y-89723500D02*
X105217500Y-91059000D01*
D42*
X106549000Y-83029500D02*
X106549000Y-85594000D01*
D43*
X106553000Y-85598000D02*
X106553000Y-89723500D01*
D42*
X106549000Y-85594000D02*
X106553000Y-85598000D01*
%TD*%
%TA.AperFunction,Conductor*%
%TO.N,VBUS*%
G36*
X128721039Y-81299685D02*
G01*
X128766794Y-81352489D01*
X128778000Y-81404000D01*
X128778000Y-82955698D01*
X128758315Y-83022737D01*
X128705511Y-83068492D01*
X128677563Y-83077439D01*
X120903999Y-84582000D01*
X120491428Y-88157619D01*
X120475140Y-88206251D01*
X120451176Y-88247010D01*
X120425396Y-88309960D01*
X120424823Y-88311301D01*
X120424700Y-88311659D01*
X120389674Y-88451228D01*
X120114774Y-91108585D01*
X120088295Y-91173243D01*
X120031064Y-91213321D01*
X120021507Y-91216123D01*
X119687216Y-91299696D01*
X119617403Y-91296858D01*
X119588358Y-91282572D01*
X118555047Y-90593698D01*
X118510186Y-90540133D01*
X118500850Y-90474659D01*
X119495103Y-82769195D01*
X119523204Y-82705227D01*
X119581430Y-82666606D01*
X119598821Y-82662570D01*
X128387435Y-81281502D01*
X128406684Y-81280000D01*
X128654000Y-81280000D01*
X128721039Y-81299685D01*
G37*
%TD.AperFunction*%
%TD*%
%TA.AperFunction,Conductor*%
%TO.N,+3.3V*%
G36*
X122253942Y-88411685D02*
G01*
X122299697Y-88464489D01*
X122310475Y-88505702D01*
X122554999Y-91439999D01*
X123568461Y-92200096D01*
X123573444Y-92204037D01*
X124180600Y-92710000D01*
X125857000Y-94107000D01*
X128172062Y-94228845D01*
X128237974Y-94252026D01*
X128280890Y-94307162D01*
X128287544Y-94330492D01*
X128498565Y-95491111D01*
X128491190Y-95560591D01*
X128447423Y-95615053D01*
X128381951Y-95637176D01*
X125603000Y-95758000D01*
X124984921Y-99466469D01*
X124954483Y-99529360D01*
X124894875Y-99565811D01*
X124865087Y-99570058D01*
X118742200Y-99692515D01*
X118674781Y-99674175D01*
X118627979Y-99622297D01*
X118615741Y-99570797D01*
X118492689Y-92802895D01*
X118511152Y-92735510D01*
X118563116Y-92688803D01*
X118579676Y-92682288D01*
X120523000Y-92075000D01*
X120892492Y-88503238D01*
X120918971Y-88438582D01*
X120976202Y-88398504D01*
X121015834Y-88392000D01*
X122186903Y-88392000D01*
X122253942Y-88411685D01*
G37*
%TD.AperFunction*%
%TD*%
%TA.AperFunction,Conductor*%
%TO.N,GND*%
G36*
X123793038Y-84731817D02*
G01*
X123843594Y-84780045D01*
X123854708Y-84805551D01*
X124333000Y-86360000D01*
X128494660Y-91278325D01*
X128522937Y-91342217D01*
X128524000Y-91358422D01*
X128524000Y-93467920D01*
X128504315Y-93534959D01*
X128451511Y-93580714D01*
X128393122Y-93591729D01*
X126280833Y-93474379D01*
X126214988Y-93451006D01*
X126205793Y-93443658D01*
X123745187Y-91278325D01*
X123102008Y-90712327D01*
X123064685Y-90653262D01*
X123060117Y-90626122D01*
X122936000Y-88392000D01*
X122792481Y-88289486D01*
X122760240Y-88255623D01*
X122681731Y-88133462D01*
X122681728Y-88133457D01*
X122681723Y-88133451D01*
X122635979Y-88080659D01*
X122635975Y-88080656D01*
X122635973Y-88080653D01*
X122527239Y-87986433D01*
X122527236Y-87986431D01*
X122527234Y-87986430D01*
X122396368Y-87926664D01*
X122396363Y-87926662D01*
X122396362Y-87926662D01*
X122366340Y-87917846D01*
X122329324Y-87906977D01*
X122329315Y-87906975D01*
X122268600Y-87898245D01*
X122214175Y-87876410D01*
X121209926Y-87159089D01*
X121166816Y-87104105D01*
X121158000Y-87058186D01*
X121158000Y-86797851D01*
X121158817Y-86783638D01*
X121234564Y-86127161D01*
X121353294Y-85098166D01*
X121380533Y-85033825D01*
X121438234Y-84994425D01*
X121452905Y-84990641D01*
X122013926Y-84882056D01*
X122025687Y-84880363D01*
X123724437Y-84718577D01*
X123793038Y-84731817D01*
G37*
%TD.AperFunction*%
%TD*%
M02*
