%TF.GenerationSoftware,KiCad,Pcbnew,7.0.10*%
%TF.CreationDate,2024-01-12T17:51:54+01:00*%
%TF.ProjectId,LightDudu4Lila,4c696768-7444-4756-9475-344c696c612e,rev?*%
%TF.SameCoordinates,Original*%
%TF.FileFunction,Paste,Top*%
%TF.FilePolarity,Positive*%
%FSLAX46Y46*%
G04 Gerber Fmt 4.6, Leading zero omitted, Abs format (unit mm)*
G04 Created by KiCad (PCBNEW 7.0.10) date 2024-01-12 17:51:54*
%MOMM*%
%LPD*%
G01*
G04 APERTURE LIST*
G04 Aperture macros list*
%AMRoundRect*
0 Rectangle with rounded corners*
0 $1 Rounding radius*
0 $2 $3 $4 $5 $6 $7 $8 $9 X,Y pos of 4 corners*
0 Add a 4 corners polygon primitive as box body*
4,1,4,$2,$3,$4,$5,$6,$7,$8,$9,$2,$3,0*
0 Add four circle primitives for the rounded corners*
1,1,$1+$1,$2,$3*
1,1,$1+$1,$4,$5*
1,1,$1+$1,$6,$7*
1,1,$1+$1,$8,$9*
0 Add four rect primitives between the rounded corners*
20,1,$1+$1,$2,$3,$4,$5,0*
20,1,$1+$1,$4,$5,$6,$7,0*
20,1,$1+$1,$6,$7,$8,$9,0*
20,1,$1+$1,$8,$9,$2,$3,0*%
G04 Aperture macros list end*
%ADD10RoundRect,0.140000X0.140000X0.170000X-0.140000X0.170000X-0.140000X-0.170000X0.140000X-0.170000X0*%
%ADD11RoundRect,0.250000X-0.250000X-0.475000X0.250000X-0.475000X0.250000X0.475000X-0.250000X0.475000X0*%
%ADD12RoundRect,0.225000X0.225000X0.250000X-0.225000X0.250000X-0.225000X-0.250000X0.225000X-0.250000X0*%
%ADD13RoundRect,0.250000X-0.312500X-0.625000X0.312500X-0.625000X0.312500X0.625000X-0.312500X0.625000X0*%
%ADD14RoundRect,0.140000X0.170000X-0.140000X0.170000X0.140000X-0.170000X0.140000X-0.170000X-0.140000X0*%
%ADD15RoundRect,0.250000X0.312500X0.625000X-0.312500X0.625000X-0.312500X-0.625000X0.312500X-0.625000X0*%
%ADD16RoundRect,0.140000X-0.140000X-0.170000X0.140000X-0.170000X0.140000X0.170000X-0.140000X0.170000X0*%
%ADD17RoundRect,0.250000X-0.350000X0.850000X-0.350000X-0.850000X0.350000X-0.850000X0.350000X0.850000X0*%
%ADD18RoundRect,0.250000X-1.125000X1.275000X-1.125000X-1.275000X1.125000X-1.275000X1.125000X1.275000X0*%
%ADD19RoundRect,0.250000X0.262500X0.450000X-0.262500X0.450000X-0.262500X-0.450000X0.262500X-0.450000X0*%
%ADD20RoundRect,0.218750X-0.256250X0.218750X-0.256250X-0.218750X0.256250X-0.218750X0.256250X0.218750X0*%
%ADD21RoundRect,0.250000X0.475000X-0.250000X0.475000X0.250000X-0.475000X0.250000X-0.475000X-0.250000X0*%
%ADD22RoundRect,0.140000X-0.170000X0.140000X-0.170000X-0.140000X0.170000X-0.140000X0.170000X0.140000X0*%
%ADD23RoundRect,0.243750X-0.243750X-0.456250X0.243750X-0.456250X0.243750X0.456250X-0.243750X0.456250X0*%
%ADD24RoundRect,0.250000X0.250000X0.475000X-0.250000X0.475000X-0.250000X-0.475000X0.250000X-0.475000X0*%
%ADD25RoundRect,0.135000X0.135000X0.185000X-0.135000X0.185000X-0.135000X-0.185000X0.135000X-0.185000X0*%
%ADD26RoundRect,0.135000X-0.185000X0.135000X-0.185000X-0.135000X0.185000X-0.135000X0.185000X0.135000X0*%
%ADD27RoundRect,0.135000X-0.135000X-0.185000X0.135000X-0.185000X0.135000X0.185000X-0.135000X0.185000X0*%
%ADD28R,1.200000X1.400000*%
%ADD29R,0.900000X0.700000*%
%ADD30RoundRect,0.225000X0.250000X-0.225000X0.250000X0.225000X-0.250000X0.225000X-0.250000X-0.225000X0*%
%ADD31RoundRect,0.075000X-0.662500X-0.075000X0.662500X-0.075000X0.662500X0.075000X-0.662500X0.075000X0*%
%ADD32RoundRect,0.075000X-0.075000X-0.662500X0.075000X-0.662500X0.075000X0.662500X-0.075000X0.662500X0*%
G04 APERTURE END LIST*
D10*
%TO.C,C1*%
X109319000Y-85725000D03*
X108359000Y-85725000D03*
%TD*%
D11*
%TO.C,C13*%
X119954000Y-85979000D03*
X121854000Y-85979000D03*
%TD*%
D12*
%TO.C,C8*%
X98946000Y-86487000D03*
X97396000Y-86487000D03*
%TD*%
D13*
%TO.C,R6*%
X105217500Y-91059000D03*
X108142500Y-91059000D03*
%TD*%
D14*
%TO.C,C6*%
X99568000Y-80363000D03*
X99568000Y-79403000D03*
%TD*%
D15*
%TO.C,R5*%
X98236500Y-91059000D03*
X95311500Y-91059000D03*
%TD*%
D16*
%TO.C,C4*%
X103253000Y-72161400D03*
X104213000Y-72161400D03*
%TD*%
D14*
%TO.C,C3*%
X99669000Y-75918000D03*
X99669000Y-74958000D03*
%TD*%
D17*
%TO.C,U3*%
X123946000Y-89653000D03*
X121666000Y-89653000D03*
D18*
X123191000Y-94278000D03*
X120141000Y-94278000D03*
X123191000Y-97628000D03*
X120141000Y-97628000D03*
D17*
X119386000Y-89653000D03*
%TD*%
D19*
%TO.C,R4*%
X75588500Y-77724000D03*
X73763500Y-77724000D03*
%TD*%
D20*
%TO.C,D1*%
X113411000Y-89509500D03*
X113411000Y-91084500D03*
%TD*%
D21*
%TO.C,C12*%
X127127000Y-94803000D03*
X127127000Y-92903000D03*
%TD*%
D22*
%TO.C,C11*%
X94361000Y-79530000D03*
X94361000Y-80490000D03*
%TD*%
D14*
%TO.C,C10*%
X94361000Y-77315000D03*
X94361000Y-76355000D03*
%TD*%
D23*
%TO.C,D2*%
X78437500Y-98679000D03*
X80312500Y-98679000D03*
%TD*%
D24*
%TO.C,C14*%
X75245000Y-87122000D03*
X73345000Y-87122000D03*
%TD*%
D22*
%TO.C,C2*%
X113258000Y-75466000D03*
X113258000Y-76426000D03*
%TD*%
D23*
%TO.C,D3*%
X108917500Y-98552000D03*
X110792500Y-98552000D03*
%TD*%
D25*
%TO.C,R3*%
X116209000Y-86868000D03*
X115189000Y-86868000D03*
%TD*%
D26*
%TO.C,R2*%
X121412000Y-76452000D03*
X121412000Y-77472000D03*
%TD*%
D27*
%TO.C,R1*%
X103249000Y-66421000D03*
X104269000Y-66421000D03*
%TD*%
D28*
%TO.C,X1*%
X90463000Y-76751000D03*
X90463000Y-78951000D03*
X92163000Y-78951000D03*
X92163000Y-76751000D03*
%TD*%
D12*
%TO.C,C7*%
X98565000Y-84074000D03*
X97015000Y-84074000D03*
%TD*%
D29*
%TO.C,IC1*%
X75164000Y-82508000D03*
X75164000Y-83608000D03*
X72664000Y-82508000D03*
X72664000Y-83608000D03*
%TD*%
D22*
%TO.C,C9*%
X93599000Y-83467000D03*
X93599000Y-84427000D03*
%TD*%
D30*
%TO.C,C5*%
X99161000Y-70879000D03*
X99161000Y-69329000D03*
%TD*%
D31*
%TO.C,U2*%
X102136500Y-76117000D03*
X102136500Y-76617000D03*
X102136500Y-77117000D03*
X102136500Y-77617000D03*
X102136500Y-78117000D03*
X102136500Y-78617000D03*
X102136500Y-79117000D03*
X102136500Y-79617000D03*
X102136500Y-80117000D03*
X102136500Y-80617000D03*
X102136500Y-81117000D03*
X102136500Y-81617000D03*
D32*
X103549000Y-83029500D03*
X104049000Y-83029500D03*
X104549000Y-83029500D03*
X105049000Y-83029500D03*
X105549000Y-83029500D03*
X106049000Y-83029500D03*
X106549000Y-83029500D03*
X107049000Y-83029500D03*
X107549000Y-83029500D03*
X108049000Y-83029500D03*
X108549000Y-83029500D03*
X109049000Y-83029500D03*
D31*
X110461500Y-81617000D03*
X110461500Y-81117000D03*
X110461500Y-80617000D03*
X110461500Y-80117000D03*
X110461500Y-79617000D03*
X110461500Y-79117000D03*
X110461500Y-78617000D03*
X110461500Y-78117000D03*
X110461500Y-77617000D03*
X110461500Y-77117000D03*
X110461500Y-76617000D03*
X110461500Y-76117000D03*
D32*
X109049000Y-74704500D03*
X108549000Y-74704500D03*
X108049000Y-74704500D03*
X107549000Y-74704500D03*
X107049000Y-74704500D03*
X106549000Y-74704500D03*
X106049000Y-74704500D03*
X105549000Y-74704500D03*
X105049000Y-74704500D03*
X104549000Y-74704500D03*
X104049000Y-74704500D03*
X103549000Y-74704500D03*
%TD*%
D20*
%TO.C,FB1*%
X101219000Y-84302500D03*
X101219000Y-85877500D03*
%TD*%
M02*
